<svg width="32" height="33" viewBox="0 0 32 33" fill="none" xmlns="http://www.w3.org/2000/svg">
<path fill-rule="evenodd" clip-rule="evenodd" d="M16.0004 32.1004C24.616 32.1004 31.6004 25.116 31.6004 16.5004C31.6004 7.88475 24.616 0.900391 16.0004 0.900391C7.38475 0.900391 0.400391 7.88475 0.400391 16.5004C0.400391 25.116 7.38475 32.1004 16.0004 32.1004ZM15.1321 10.9779C14.5337 10.579 13.7643 10.5418 13.1303 10.8811C12.4962 11.2205 12.1004 11.8812 12.1004 12.6004V20.4004C12.1004 21.1195 12.4962 21.7803 13.1303 22.1197C13.7643 22.459 14.5337 22.4218 15.1321 22.0229L20.9821 18.1229C21.5245 17.7612 21.8504 17.1524 21.8504 16.5004C21.8504 15.8484 21.5245 15.2396 20.9821 14.8779L15.1321 10.9779Z" fill="#333333"/>
</svg>
