<svg width="28" height="33" viewBox="0 0 28 33" fill="none" xmlns="http://www.w3.org/2000/svg">
<path d="M22.9654 17.4026C22.9502 14.8052 24.1271 12.8476 26.5036 11.4041C25.1744 9.49981 23.1635 8.45244 20.5127 8.25059C18.0028 8.05254 15.2568 9.71309 14.2514 9.71309C13.1888 9.71309 10.7589 8.31914 8.84697 8.31914C4.90127 8.38008 0.708008 11.465 0.708008 17.7416C0.708008 19.5964 1.04697 21.5121 1.7249 23.485C2.63135 26.0824 5.89912 32.4466 9.30781 32.3438C11.0902 32.3019 12.3509 31.0793 14.6703 31.0793C16.9212 31.0793 18.0866 32.3438 20.0747 32.3438C23.5139 32.2942 26.4693 26.509 27.3301 23.9039C22.7179 21.7292 22.9654 17.5359 22.9654 17.4026V17.4026ZM18.9626 5.78643C20.8936 3.49365 20.7184 1.40654 20.6612 0.65625C18.955 0.755273 16.9821 1.81787 15.8586 3.12422C14.6208 4.52578 13.8934 6.25869 14.0495 8.2125C15.8929 8.35342 17.5763 7.40508 18.9626 5.78643V5.78643Z" fill="#333333"/>
</svg>
