<svg width="308" height="439" viewBox="0 0 308 439" fill="none" xmlns="http://www.w3.org/2000/svg">
<path opacity="0.05" d="M305.76 133.355C297.677 68.5519 243.001 1.87474 153.551 0.000348901C153.551 0.000348901 15.6222 -1.24925 0.0962147 145.819C0.0962147 145.819 -3.01856 196.299 26.1964 240.532L153.567 438.064L280.937 240.532C280.937 240.532 313.858 198.158 305.791 133.355H305.76ZM216.15 299.904L216.118 300.176C216.006 301.313 215.894 302.275 214.68 303.14C213.307 304.165 211.326 304.694 209.249 304.694C207.333 304.694 205.352 304.245 203.659 303.364C201.742 302.355 200.688 300.176 201.103 298.061L201.151 297.805C201.215 297.516 201.247 297.356 201.199 297.196C200.991 296.812 198.739 295.498 198.244 295.274L198.388 294.969L198.212 295.274L197.924 295.097C196.135 293.928 195.544 292.518 196.183 290.9C196.343 290.499 196.567 290.099 196.902 289.65C197.11 289.362 197.269 289.042 197.445 288.689C197.749 288.064 198.1 287.376 198.787 286.911L199.905 284.235C199.282 282.057 198.995 279.846 198.803 277.779C198.723 277.555 198.563 276.994 198.26 275.408C197.653 273.438 196.726 271.499 195.832 269.641C195.241 268.407 194.634 267.142 194.123 265.844C193.388 264.034 192.446 262.271 191.535 260.589C191.264 260.077 190.992 259.564 190.72 259.051C190.593 258.811 190.337 258.475 190.05 258.074C189.507 257.337 188.82 256.408 188.484 255.511C188.149 254.694 187.126 251.81 186.983 250.993L185.274 243.608C185.146 243.239 185.034 242.855 184.954 242.47C184.778 241.733 184.603 241.044 184.171 240.548C182.59 238.689 179.507 233.595 177.654 230.551C177.031 229.526 176.504 228.66 176.393 228.516L176.361 228.452C176.361 228.452 173.901 223.726 173.038 222.124C172.479 221.083 172.144 220.458 171.856 220.314C171.632 220.202 171.201 220.346 170.339 220.666C169.604 220.939 168.981 220.939 168.47 220.666C167.911 220.346 167.543 219.705 167.336 218.68C167.288 218.439 167.208 218.199 167.08 217.959C166.665 217.126 166.25 216.293 165.834 215.46C164.796 213.345 163.71 211.166 162.56 209.083C162.32 208.651 162.096 208.202 161.857 207.77C160.898 205.943 160.004 204.229 158.471 202.868C157.672 202.147 156.777 201.826 155.931 201.938C155.1 202.05 154.381 202.579 153.822 203.46C153.375 204.165 152.976 204.918 152.592 205.655C151.794 207.145 150.979 208.683 149.765 209.949C149.03 210.718 148.455 211.615 147.944 212.464C146.459 214.899 144.398 218.584 143.488 220.955C143.264 221.515 143.04 221.82 142.721 221.948C142.354 222.108 142.018 221.948 141.763 221.836C141.651 221.788 141.555 221.74 141.427 221.708C140.82 221.547 139.942 222.685 139.622 223.117C139.542 223.214 139.478 223.31 139.43 223.374C137.594 226.225 135.341 228.741 133.377 230.871C132.642 231.688 131.428 233.611 130.47 235.165C129.847 236.158 129.367 236.943 129.08 237.312C126.684 240.644 125.757 244.024 124.783 247.613C124.416 248.99 124.016 250.4 123.537 251.874C123.393 252.467 123.058 253.444 122.547 254.726C122.163 255.687 121.956 256.2 121.812 256.472C120.886 258.571 119.448 260.349 118.074 262.079L117.707 262.528C116.253 264.114 112.148 274.591 111.845 275.953L108.858 285.741L108.954 286.158C109.241 287.392 109.529 288.561 110.136 289.634C111.11 291.349 110.838 293.992 109.529 295.418C108.81 296.187 108.091 296.459 107.516 296.667C106.749 296.956 106.382 297.084 106.254 298.189L106.222 298.301C106.142 298.526 106.078 298.878 106.031 299.231C105.871 300.32 105.631 301.794 104.226 302.707C101.318 304.598 99.0343 304.501 95.8716 304.373H95.616C95.3924 304.357 95.2007 304.357 95.041 304.357C94.2263 304.357 93.8589 304.325 92.6769 303.716C90.1851 302.419 90.2969 299.215 90.7601 297.532C90.8081 297.372 90.856 297.196 90.9358 297.052C90.9678 296.812 91.0956 296.587 91.3352 296.203C91.4949 295.962 91.6387 295.706 91.7984 295.466C92.1498 294.889 92.5172 294.296 92.9485 293.768C93.9068 292.582 95.0569 291.108 95.9834 289.907C96.4945 289.25 96.9418 288.657 97.2612 288.257C97.3571 288.064 97.5487 287.856 97.8203 287.552C98.587 286.687 99.8649 285.261 100.12 283.066V283.002L102.804 273.117C103.267 271.595 103.603 270.057 103.81 268.535C104.257 265.283 105.136 259.916 105.711 258.106C105.967 256.312 107.947 246.379 108.666 243.511C108.89 242.63 110.535 237.632 113.202 234.989C114.624 233.579 115.551 232.121 116.046 230.535C116.685 228.484 117.643 226.658 118.506 225.136C118.889 224.463 119.336 223.566 119.432 222.573C119.48 221.804 119.624 221.083 119.752 220.378C119.847 219.865 119.943 219.385 120.007 218.888C120.023 218.728 120.135 216.821 120.167 215.54C120.055 215.492 119.927 215.428 119.831 215.315C119.608 215.043 119.656 214.707 119.704 214.45C119.704 214.402 119.72 214.338 119.736 214.29C119.736 213.761 120.295 211.406 120.406 210.942H120.438C120.742 208.731 125.566 194.937 127.802 190.019C128.265 189.026 128.377 187.119 128.441 186.094C128.489 185.421 128.489 185.277 128.569 185.149C129.383 183.659 130.07 182.073 130.725 180.535C131.636 178.404 132.578 176.193 133.904 174.207C134.175 173.79 134.319 173.294 134.319 172.781C134.319 172.381 134.415 172.06 134.543 171.692C135.118 169.929 135.198 169.385 135.277 168.856C135.341 168.424 135.405 167.975 135.693 166.966C135.773 166.677 136.06 166.549 136.3 166.437C136.348 166.421 136.412 166.389 136.459 166.357C137.45 163.521 137.338 158.138 137.274 154.918V154.39C136.699 151.522 135.118 149.039 133.6 146.636C133.185 145.995 132.786 145.338 132.386 144.697C131.46 143.143 130.853 141.894 130.342 139.731C130.262 139.426 129.751 137.552 129.319 136.447C129 135.726 128.697 135.021 128.521 134.845C128.313 134.957 127.834 135.566 127.339 136.19L127.163 136.415C126.205 137.6 125.103 138.657 123.841 139.523C122.818 140.227 121.812 140.964 120.806 141.701C118.585 143.303 116.301 144.97 113.889 146.379C113.059 146.86 112.5 147.581 111.909 148.35C111.621 148.702 111.334 149.087 111.014 149.423C107.197 155.191 101.766 159.917 91.7664 167.671C91.6546 167.751 90.7761 168.584 90.1212 169.193C89.5621 169.721 89.035 170.202 88.8753 170.362C87.1342 171.916 87.3738 173.822 87.869 176.145C88.0607 177.027 88.0766 177.908 88.0926 178.773C88.1245 179.942 88.1405 181.048 88.5558 182.105C88.9072 183.002 89.3225 184.38 89.4184 185.293C89.4663 185.742 89.4503 186.062 89.2746 186.479C88.8753 187.135 88.3642 187.472 87.8211 187.488C87.2141 187.504 86.5911 187.103 86.096 186.382C85.473 185.453 85.2174 184.396 84.9619 183.371C84.85 182.922 84.7382 182.441 84.5945 182.009C84.5625 181.897 84.5306 181.801 84.4986 181.688C84.3389 181.128 84.275 181 83.9236 180.952C82.8374 180.727 82.2943 180.759 82.1506 180.871L82.1027 180.903C80.1859 182.009 79.2115 183.323 78.908 185.149C78.9559 185.309 79.0039 185.469 79.0518 185.63C79.1955 186.094 79.3553 186.559 79.3872 187.055C79.4511 187.776 79.3073 188.289 78.9719 188.625C78.7483 188.834 78.4608 188.962 78.0934 188.978C78.0614 189.218 78.0135 189.442 77.9816 189.667C77.8378 190.548 77.6941 191.445 77.5183 192.342C77.4225 192.807 77.2308 193.768 76.1447 193.768H76.1127C75.8571 193.752 75.1543 193.688 75.0106 192.839V192.775C74.9946 192.374 74.8828 191.958 74.7869 191.765C74.6272 192.054 74.4195 192.598 74.3077 192.903C74.132 193.367 74.0362 193.608 73.9403 193.752C73.6209 194.232 73.1417 194.425 72.5986 194.313C71.8319 194.152 71.8479 193.464 71.8638 193.159V193.047C71.8638 192.406 71.8638 191.781 71.8638 191.141C71.8638 189.955 71.8638 188.721 71.8319 187.504C71.768 185.806 72.0395 184.3 72.6305 183.002C73.0299 182.121 73.3014 181.16 73.557 180.231C73.9403 178.869 74.3397 177.459 75.1543 176.193C75.2981 175.793 75.5536 175.248 76.1287 174.896C76.4002 174.543 76.6718 174.175 76.9433 173.822C77.5663 173.021 78.2052 172.188 78.7483 171.339C83.2208 164.482 88.2044 157.385 94.418 149.055C94.993 148.286 95.5361 147.485 96.0792 146.716C97.6606 144.457 99.2898 142.118 101.478 140.276C102.453 139.33 103.635 138.625 104.785 137.953C105.36 137.616 105.967 137.248 106.526 136.879C107.628 135.261 108.73 133.659 109.832 132.041L110.503 131.064C111.573 129.51 113.474 128.356 115.343 127.315C116.349 126.754 116.701 125.921 116.908 124.864C117.356 120.827 121.62 116.613 125.134 115.556C126.285 115.027 127.642 114.435 129.032 114.13C130.757 113.746 132.067 112.544 133.441 111.262L133.824 110.91C134.527 110.253 137.066 108.571 138.584 107.738C139.095 107.466 139.622 107.225 140.133 106.985C141.731 106.264 143.232 105.575 143.967 103.957C143.999 103.877 144.047 103.797 144.079 103.717C144.238 103.38 144.382 103.108 144.35 102.804C144.095 100.417 143.839 98.0296 143.568 95.6265C143.536 95.3542 143.472 95.3382 143.408 95.3061C142.162 94.8896 141.347 92.839 141.172 91.0286C141.108 90.3237 141.14 89.6028 141.188 88.9139C141.188 88.6736 141.219 88.4173 141.219 88.177C141.219 87.7605 141.395 87.1837 141.779 86.9114C141.954 86.7832 142.162 86.7352 142.37 86.7672C142.386 86.6551 142.402 86.4147 142.37 85.9662C142.338 85.4695 142.306 84.9889 142.274 84.4923C142.21 83.515 142.146 82.5378 142.066 81.5766C141.938 80.1507 142.481 78.1802 143.312 77.1069C143.919 76.1296 144.35 75.6009 145.596 74.3193L145.644 74.2712C146.89 73.3421 149.526 72.0604 151.027 72.1245C151.027 72.1245 151.091 72.1245 151.155 72.1245C155.308 71.772 158.838 73.31 161.074 76.466C162.592 78.6128 163.678 80.2949 163.885 82.4897C163.917 82.8903 163.965 83.7874 163.949 84.236C163.949 84.5404 163.822 84.7486 163.726 84.9088C163.662 85.005 163.63 85.0851 163.614 85.1812C163.534 86.0783 163.486 87.0556 163.454 87.9848C163.358 90.1475 163.263 92.3904 162.656 94.473C162.32 95.6105 162.049 96.812 161.793 97.9495C161.41 99.6316 161.026 101.362 160.419 103.028L160.707 103.717C161.25 104.197 162.001 104.31 162.783 104.422C163.103 104.47 163.438 104.518 163.758 104.582C163.87 104.422 163.949 104.23 164.061 104.053C164.269 103.669 164.476 103.268 164.812 102.932C164.844 102.9 164.892 102.836 164.892 102.788L164.924 102.499C164.956 102.131 165.036 101.81 165.147 101.538C166.281 98.8306 168.661 97.565 171.217 96.3955C172.799 95.6746 174.476 95.258 176.201 95.1619L176.999 94.6493C177.878 90.2276 180.817 87.0876 183.66 84.0437L183.916 83.7714C185.082 82.5218 186.551 81.7368 188.085 80.9678L188.229 80.8396C189.091 79.3818 189.331 77.7797 189.459 76.418C189.666 74.063 189.97 71.9323 190.385 69.9137C190.513 69.3209 190.481 69.1607 190.449 69.1287C190.449 69.1287 190.417 69.1287 190.337 69.1287C190.225 69.1287 190.034 69.1287 189.682 69.2088C184.938 70.1219 180.402 67.831 178.405 63.4895C177.015 60.4776 176.824 57.4017 177.83 54.3097C177.942 53.9573 177.942 53.5728 177.814 53.2203C176.057 48.3181 177.958 41.9419 182.159 38.7218C182.287 38.6257 182.43 38.5296 182.59 38.4334C183.101 38.113 183.389 37.8887 183.389 37.4242C182.957 35.6779 183.501 34.4924 185.05 33.8035C188.005 32.5059 190.385 31.9452 192.749 32.0253C194.075 32.0733 194.314 32.9865 194.362 33.5793C196.647 34.2201 198.068 35.758 198.404 37.9689C198.483 38.0329 198.563 38.097 198.627 38.1291C200.959 39.1383 201.423 41.205 201.694 43.2236C202.029 45.7868 202.445 48.3982 202.844 50.9294C203.227 53.3485 203.611 55.8477 203.946 58.3148C204.761 64.3225 204.441 70.1219 203.02 75.5529C202.573 77.235 202.109 79.2055 202.205 81.2241C202.269 82.4257 201.391 84.1559 199.538 86.5269C199.474 86.607 199.442 86.6551 199.41 86.6871C198.34 88.209 197.557 89.3625 197.365 90.5V90.6281C197.094 92.118 196.774 93.7201 196.199 94.3289C195.528 95.8027 195.129 96.8921 194.762 97.8694C194.043 99.8079 193.532 101.202 191.551 103.829C191.12 104.406 187.813 108.395 187.063 108.972C186.567 109.356 186.072 109.725 185.577 110.109C183.596 111.599 181.744 112.993 180.146 114.835C180.402 115.892 181.168 119.097 181.328 120.426C181.488 121.772 181.232 123.758 180.929 126.065C180.657 128.212 180.338 130.663 180.354 132.842C180.354 135.005 179.044 140.884 178.485 142.054C177.638 143.784 177.335 147.068 177.111 149.455C177.047 150.096 176.999 150.689 176.936 151.186C176.632 153.717 176.632 156.376 176.904 159.324L176.936 159.628C177.111 161.455 177.303 163.345 176.568 165.203C176.568 165.235 176.632 165.332 176.68 165.38C176.792 165.524 176.952 165.732 176.999 166.02C177.095 167.11 177.175 167.238 177.367 167.558C177.447 167.687 177.527 167.831 177.638 168.055C178.182 169.16 180.737 175.633 181.248 177.908C181.552 179.253 182.047 180.439 182.558 181.688C183.085 182.986 183.644 184.332 183.996 185.886C184.603 188.641 185.369 190.788 186.408 192.646C187.142 193.976 187.51 195.386 187.861 196.764C188.053 197.533 188.261 198.318 188.516 199.071V199.151C188.628 199.744 189.203 202.451 189.459 203.444C189.746 204.598 190.113 205.735 190.465 206.825C190.896 208.17 191.359 209.564 191.663 211.038C191.775 211.567 191.887 211.935 191.982 212.272C192.174 212.896 192.334 213.441 192.446 214.739C192.493 215.267 191.982 215.428 191.791 215.492C191.791 215.492 191.775 215.492 191.759 215.492L191.871 215.876C192.11 216.757 192.43 217.847 192.541 218.359C192.733 219.256 192.925 221.323 193.116 224.495C193.132 224.88 193.228 225.248 193.372 225.617C194.155 227.523 195.225 230.182 195.48 231.272C195.864 232.89 196.567 233.819 197.397 234.908C197.972 235.661 198.563 236.43 199.09 237.504L201.119 241.509C201.47 242.198 201.774 242.919 202.029 243.672L202.253 244.345C202.812 245.947 203.371 247.597 203.787 250.16C203.787 250.208 204.25 253.957 204.314 257.113C204.33 257.93 204.505 258.731 204.681 259.596C204.777 260.029 204.857 260.461 204.937 260.894C205.528 262.576 206.502 273.165 206.534 274.255L206.662 275.729C206.71 276.225 206.837 276.706 207.029 277.186C207.764 278.917 208.579 281.208 208.93 282.425L209.249 283.098C209.521 283.659 209.792 284.219 210.048 284.78C210.128 284.94 210.224 284.972 210.527 285.053C210.671 285.085 210.831 285.133 210.99 285.213C211.997 285.709 212.061 287.007 212.109 287.856C212.172 289.33 212.827 290.516 213.514 291.765C213.706 292.102 213.882 292.438 214.057 292.79C214.393 293.447 214.808 294.072 215.319 294.809C216.533 296.539 216.405 297.773 216.166 300L216.15 299.904Z" fill="#8E836E"/>
</svg>
