<svg width="27" height="27" viewBox="0 0 27 27" fill="none" xmlns="http://www.w3.org/2000/svg">
<g clip-path="url(#clip0_1190_15778)">
<path d="M11.25 14.625C11.25 15.2217 11.4871 15.794 11.909 16.216C12.331 16.6379 12.9033 16.875 13.5 16.875C14.0967 16.875 14.669 16.6379 15.091 16.216C15.5129 15.794 15.75 15.2217 15.75 14.625C15.75 14.0283 15.5129 13.456 15.091 13.034C14.669 12.6121 14.0967 12.375 13.5 12.375C12.9033 12.375 12.331 12.6121 11.909 13.034C11.4871 13.456 11.25 14.0283 11.25 14.625Z" stroke="white" stroke-width="2" stroke-linecap="round" stroke-linejoin="round"/>
<path d="M9 23.625V22.5C9 21.9033 9.23705 21.331 9.65901 20.909C10.081 20.4871 10.6533 20.25 11.25 20.25H15.75C16.3467 20.25 16.919 20.4871 17.341 20.909C17.7629 21.331 18 21.9033 18 22.5V23.625" stroke="white" stroke-width="2" stroke-linecap="round" stroke-linejoin="round"/>
<path d="M16.875 5.625C16.875 6.22174 17.1121 6.79403 17.534 7.21599C17.956 7.63795 18.5283 7.875 19.125 7.875C19.7217 7.875 20.294 7.63795 20.716 7.21599C21.1379 6.79403 21.375 6.22174 21.375 5.625C21.375 5.02826 21.1379 4.45597 20.716 4.03401C20.294 3.61205 19.7217 3.375 19.125 3.375C18.5283 3.375 17.956 3.61205 17.534 4.03401C17.1121 4.45597 16.875 5.02826 16.875 5.625Z" stroke="white" stroke-width="2" stroke-linecap="round" stroke-linejoin="round"/>
<path d="M19.125 11.25H21.375C21.9717 11.25 22.544 11.4871 22.966 11.909C23.3879 12.331 23.625 12.9033 23.625 13.5V14.625" stroke="white" stroke-width="2" stroke-linecap="round" stroke-linejoin="round"/>
<path d="M5.625 5.625C5.625 6.22174 5.86205 6.79403 6.28401 7.21599C6.70597 7.63795 7.27826 7.875 7.875 7.875C8.47174 7.875 9.04403 7.63795 9.46599 7.21599C9.88795 6.79403 10.125 6.22174 10.125 5.625C10.125 5.02826 9.88795 4.45597 9.46599 4.03401C9.04403 3.61205 8.47174 3.375 7.875 3.375C7.27826 3.375 6.70597 3.61205 6.28401 4.03401C5.86205 4.45597 5.625 5.02826 5.625 5.625Z" stroke="white" stroke-width="2" stroke-linecap="round" stroke-linejoin="round"/>
<path d="M3.375 14.625V13.5C3.375 12.9033 3.61205 12.331 4.03401 11.909C4.45597 11.4871 5.02826 11.25 5.625 11.25H7.875" stroke="white" stroke-width="2" stroke-linecap="round" stroke-linejoin="round"/>
</g>
<defs>
<clipPath id="clip0_1190_15778">
<rect width="27" height="27" fill="white"/>
</clipPath>
</defs>
</svg>
