<svg width="13" height="14" viewBox="0 0 13 14" fill="none" xmlns="http://www.w3.org/2000/svg">
<path fill-rule="evenodd" clip-rule="evenodd" d="M8.65804 1.67268C8.36529 1.96552 8.36529 2.4402 8.65804 2.73304L10.8432 4.91823C11.136 5.21118 11.6109 5.21129 11.9038 4.91848C12.1968 4.62568 12.1969 4.15083 11.9041 3.85788L9.71839 1.67268C9.42555 1.37994 8.95087 1.37994 8.65804 1.67268Z" stroke="white" stroke-linecap="round" stroke-linejoin="round"/>
<path fill-rule="evenodd" clip-rule="evenodd" d="M6.11061 1.68857C5.95913 1.83995 5.87402 2.04533 5.87402 2.25948C5.87402 2.47364 5.95913 2.67901 6.11061 2.83039L10.7463 7.46603C11.062 7.78119 11.5735 7.78071 11.8886 7.46496C12.2038 7.14921 12.2033 6.63775 11.8875 6.32259L7.25405 1.68857C7.1026 1.53659 6.89688 1.45117 6.68233 1.45117C6.46778 1.45117 6.26206 1.53659 6.11061 1.68857Z" stroke="white" stroke-linecap="round" stroke-linejoin="round"/>
<path fill-rule="evenodd" clip-rule="evenodd" d="M1.09456 9.23543C1.23521 9.0947 1.42602 9.01562 1.62499 9.01562C1.82395 9.01562 2.01477 9.0947 2.15541 9.23543L4.34061 11.4206C4.6248 11.7149 4.62073 12.1826 4.33147 12.4718C4.04221 12.7611 3.5745 12.7652 3.28026 12.481L1.09456 10.2958C0.801814 10.003 0.801814 9.52827 1.09456 9.23543Z" stroke="white" stroke-linecap="round" stroke-linejoin="round"/>
<path fill-rule="evenodd" clip-rule="evenodd" d="M1.11168 6.68748C1.42686 6.3724 1.93775 6.3724 2.25293 6.68748L6.8884 11.323C7.20369 11.6387 7.20333 12.1502 6.88759 12.4655C6.57185 12.7808 6.0603 12.7805 5.745 12.4647L1.11168 7.83142C0.959548 7.67995 0.874023 7.47412 0.874023 7.25945C0.874023 7.04477 0.959548 6.83894 1.11168 6.68748Z" stroke="white" stroke-linecap="round" stroke-linejoin="round"/>
<path fill-rule="evenodd" clip-rule="evenodd" d="M4.09375 8.42188L7.84375 4.67188L8.90426 5.73239L5.15426 9.48239L4.09375 8.42188Z" stroke="white" stroke-linecap="round" stroke-linejoin="round"/>
</svg>
