<svg width="29" height="29" viewBox="0 0 29 29" fill="none" xmlns="http://www.w3.org/2000/svg">
<path d="M19.1774 14.5363C19.1774 11.904 17.0305 9.7571 14.3982 9.7571C11.7659 9.7571 9.61899 11.904 9.61899 14.5363C9.61899 17.1686 11.7659 19.3155 14.3982 19.3155C17.0305 19.3155 19.1774 17.1686 19.1774 14.5363ZM21.7537 14.5363C21.7537 18.6061 18.468 21.8918 14.3982 21.8918C10.3284 21.8918 7.04269 18.6061 7.04269 14.5363C7.04269 10.4665 10.3284 7.1808 14.3982 7.1808C18.468 7.1808 21.7537 10.4665 21.7537 14.5363ZM23.77 6.8821C23.77 7.83421 23.0045 8.59963 22.0524 8.59963C21.1003 8.59963 20.3349 7.83421 20.3349 6.8821C20.3349 5.92999 21.1003 5.16457 22.0524 5.16457C23.0045 5.16457 23.77 5.92999 23.77 6.8821ZM14.3982 2.77496C12.3073 2.77496 7.82678 2.60694 5.94123 3.35369C5.28782 3.61506 4.80243 3.93243 4.29837 4.43649C3.79431 4.94054 3.47694 5.42593 3.21558 6.07934C2.46883 7.96489 2.63685 12.4454 2.63685 14.5363C2.63685 16.6272 2.46883 21.1078 3.21558 22.9933C3.47694 23.6467 3.79431 24.1321 4.29837 24.6362C4.80243 25.1402 5.28782 25.4576 5.94123 25.719C7.82678 26.4657 12.3073 26.2977 14.3982 26.2977C16.4891 26.2977 20.9696 26.4657 22.8552 25.719C23.5086 25.4576 23.994 25.1402 24.498 24.6362C25.0021 24.1321 25.3195 23.6467 25.5808 22.9933C26.3276 21.1078 26.1596 16.6272 26.1596 14.5363C26.1596 12.4454 26.3276 7.96489 25.5808 6.07934C25.3195 5.42593 25.0021 4.94054 24.498 4.43649C23.994 3.93243 23.5086 3.61506 22.8552 3.35369C20.9696 2.60694 16.4891 2.77496 14.3982 2.77496ZM28.7359 14.5363C28.7359 16.5152 28.7545 18.4754 28.6425 20.4543C28.5305 22.7506 28.0078 24.7855 26.3276 26.4657C24.6474 28.1459 22.6125 28.6686 20.3162 28.7806C18.3373 28.8927 16.3771 28.874 14.3982 28.874C12.4193 28.874 10.4591 28.8927 8.48019 28.7806C6.18392 28.6686 4.14902 28.1459 2.46883 26.4657C0.788631 24.7855 0.265904 22.7506 0.153891 20.4543C0.041878 18.4754 0.0605469 16.5152 0.0605469 14.5363C0.0605469 12.5574 0.041878 10.5972 0.153891 8.6183C0.265904 6.32204 0.788631 4.28714 2.46883 2.60694C4.14902 0.926744 6.18392 0.404017 8.48019 0.292006C10.4591 0.179992 12.4193 0.19866 14.3982 0.19866C16.3771 0.19866 18.3373 0.179992 20.3162 0.292006C22.6125 0.404017 24.6474 0.926744 26.3276 2.60694C28.0078 4.28714 28.5305 6.32204 28.6425 8.6183C28.7545 10.5972 28.7359 12.5574 28.7359 14.5363Z" fill="black"/>
</svg>
