<svg width="1920" height="56" viewBox="0 0 1920 56" fill="none" xmlns="http://www.w3.org/2000/svg">
<mask id="path-1-inside-1_1190_15959" fill="white">
<path d="M351 0H1567V36H351V0Z"/>
</mask>
<path d="M351 1H1567V-1H351V1Z" fill="#333333" mask="url(#path-1-inside-1_1190_15959)"/>
<path d="M356.698 33.168C355.214 33.168 353.987 32.678 353.016 31.698C352.045 30.718 351.56 29.5187 351.56 28.1C351.56 26.6813 352.045 25.482 353.016 24.502C353.987 23.522 355.214 23.032 356.698 23.032C357.603 23.032 358.434 23.2513 359.19 23.69C359.946 24.1193 360.529 24.7027 360.94 25.44L360.072 25.944C359.764 25.3467 359.307 24.8707 358.7 24.516C358.093 24.1613 357.426 23.984 356.698 23.984C355.475 23.984 354.477 24.3807 353.702 25.174C352.927 25.9673 352.54 26.9427 352.54 28.1C352.54 29.2573 352.927 30.2327 353.702 31.026C354.477 31.8193 355.475 32.216 356.698 32.216C357.426 32.216 358.093 32.0387 358.7 31.684C359.307 31.3293 359.764 30.8533 360.072 30.256L360.94 30.746C360.539 31.4833 359.955 32.0713 359.19 32.51C358.434 32.9487 357.603 33.168 356.698 33.168ZM368.409 32.118C367.7 32.818 366.832 33.168 365.805 33.168C364.779 33.168 363.906 32.818 363.187 32.118C362.478 31.4087 362.123 30.536 362.123 29.5C362.123 28.464 362.478 27.596 363.187 26.896C363.906 26.1867 364.779 25.832 365.805 25.832C366.832 25.832 367.7 26.1867 368.409 26.896C369.128 27.596 369.487 28.464 369.487 29.5C369.487 30.536 369.128 31.4087 368.409 32.118ZM363.845 31.474C364.377 32.006 365.031 32.272 365.805 32.272C366.58 32.272 367.233 32.006 367.765 31.474C368.297 30.9327 368.563 30.2747 368.563 29.5C368.563 28.7253 368.297 28.072 367.765 27.54C367.233 26.9987 366.58 26.728 365.805 26.728C365.031 26.728 364.377 26.9987 363.845 27.54C363.313 28.072 363.047 28.7253 363.047 29.5C363.047 30.2747 363.313 30.9327 363.845 31.474ZM374.986 25.832C375.984 25.832 376.834 26.1867 377.534 26.896C378.243 27.6053 378.598 28.4733 378.598 29.5C378.598 30.5267 378.243 31.3947 377.534 32.104C376.834 32.8133 375.984 33.168 374.986 33.168C373.744 33.168 372.802 32.6547 372.158 31.628V35.8H371.234V26H372.158V27.372C372.802 26.3453 373.744 25.832 374.986 25.832ZM372.956 31.474C373.488 32.006 374.141 32.272 374.916 32.272C375.69 32.272 376.344 32.006 376.876 31.474C377.408 30.9327 377.674 30.2747 377.674 29.5C377.674 28.7253 377.408 28.072 376.876 27.54C376.344 26.9987 375.69 26.728 374.916 26.728C374.141 26.728 373.488 26.9987 372.956 27.54C372.424 28.072 372.158 28.7253 372.158 29.5C372.158 30.2747 372.424 30.9327 372.956 31.474ZM385.1 26H386.08L383.084 33.644C382.814 34.3347 382.426 34.876 381.922 35.268C381.428 35.6693 380.872 35.8467 380.256 35.8V34.932C381.096 35.0253 381.736 34.54 382.174 33.476L382.356 33.042L379.22 26H380.2L382.832 31.866L385.1 26ZM388.321 27.162C388.751 26.3127 389.488 25.888 390.533 25.888V26.784C389.899 26.784 389.371 26.9707 388.951 27.344C388.531 27.7173 388.321 28.3053 388.321 29.108V33H387.397V26H388.321V27.162ZM392.938 24.32C392.807 24.4507 392.648 24.516 392.462 24.516C392.275 24.516 392.116 24.4507 391.986 24.32C391.855 24.1893 391.79 24.0307 391.79 23.844C391.79 23.6573 391.855 23.4987 391.986 23.368C392.116 23.2373 392.275 23.172 392.462 23.172C392.648 23.172 392.807 23.2373 392.938 23.368C393.068 23.4987 393.134 23.6573 393.134 23.844C393.134 24.0307 393.068 24.1893 392.938 24.32ZM392 33V26H392.924V33H392ZM401.104 26H402.028V32.72C402.028 33.728 401.683 34.5213 400.992 35.1C400.302 35.6787 399.476 35.968 398.514 35.968C396.872 35.968 395.766 35.3987 395.196 34.26L396.008 33.798C396.428 34.6473 397.264 35.072 398.514 35.072C399.317 35.072 399.947 34.8573 400.404 34.428C400.871 34.008 401.104 33.4387 401.104 32.72V31.628C400.46 32.6547 399.518 33.168 398.276 33.168C397.278 33.168 396.424 32.8133 395.714 32.104C395.014 31.3947 394.664 30.5267 394.664 29.5C394.664 28.4733 395.014 27.6053 395.714 26.896C396.424 26.1867 397.278 25.832 398.276 25.832C399.518 25.832 400.46 26.3453 401.104 27.372V26ZM396.386 31.474C396.918 32.006 397.572 32.272 398.346 32.272C399.121 32.272 399.774 32.006 400.306 31.474C400.838 30.9327 401.104 30.2747 401.104 29.5C401.104 28.7253 400.838 28.072 400.306 27.54C399.774 26.9987 399.121 26.728 398.346 26.728C397.572 26.728 396.918 26.9987 396.386 27.54C395.854 28.072 395.588 28.7253 395.588 29.5C395.588 30.2747 395.854 30.9327 396.386 31.474ZM407.461 25.832C408.31 25.832 408.977 26.0933 409.463 26.616C409.957 27.1293 410.205 27.8247 410.205 28.702V33H409.281V28.702C409.281 28.0767 409.113 27.5913 408.777 27.246C408.45 26.9007 407.983 26.728 407.377 26.728C406.705 26.728 406.159 26.9427 405.739 27.372C405.319 27.792 405.109 28.4453 405.109 29.332V33H404.185V23.2H405.109V27.092C405.631 26.252 406.415 25.832 407.461 25.832ZM415.901 26.896H413.885V31.138C413.885 31.5207 413.96 31.796 414.109 31.964C414.259 32.1227 414.483 32.2067 414.781 32.216C415.08 32.216 415.453 32.2067 415.901 32.188V33C414.921 33.1493 414.184 33.0793 413.689 32.79C413.204 32.5007 412.961 31.95 412.961 31.138V26.896H411.491V26H412.961V24.32L413.885 24.04V26H415.901V26.896ZM429.573 31.684C428.584 32.6733 427.389 33.168 425.989 33.168C424.589 33.168 423.395 32.6733 422.405 31.684C421.416 30.6947 420.921 29.5 420.921 28.1C420.921 26.7 421.416 25.5053 422.405 24.516C423.395 23.5267 424.589 23.032 425.989 23.032C427.389 23.032 428.584 23.5267 429.573 24.516C430.563 25.5053 431.057 26.7 431.057 28.1C431.057 29.5 430.563 30.6947 429.573 31.684ZM422.699 31.418C423.614 32.3233 424.711 32.776 425.989 32.776C427.268 32.776 428.36 32.3233 429.265 31.418C430.18 30.5033 430.637 29.3973 430.637 28.1C430.637 26.8027 430.18 25.7013 429.265 24.796C428.36 23.8813 427.268 23.424 425.989 23.424C424.711 23.424 423.614 23.8813 422.699 24.796C421.794 25.7013 421.341 26.8027 421.341 28.1C421.341 29.3973 421.794 30.5033 422.699 31.418ZM426.031 30.788C425.266 30.788 424.622 30.5267 424.099 30.004C423.577 29.4813 423.315 28.8467 423.315 28.1C423.315 27.3533 423.577 26.7187 424.099 26.196C424.622 25.6733 425.266 25.412 426.031 25.412C426.526 25.412 426.974 25.5287 427.375 25.762C427.786 25.9953 428.103 26.3127 428.327 26.714L427.557 27.162C427.427 26.8727 427.221 26.6533 426.941 26.504C426.661 26.3547 426.358 26.28 426.031 26.28C425.49 26.28 425.051 26.462 424.715 26.826C424.389 27.1807 424.225 27.6053 424.225 28.1C424.225 28.5947 424.389 29.024 424.715 29.388C425.051 29.7427 425.49 29.92 426.031 29.92C426.367 29.92 426.675 29.8453 426.955 29.696C427.235 29.5373 427.441 29.3133 427.571 29.024L428.341 29.486C428.117 29.8873 427.8 30.2047 427.389 30.438C426.979 30.6713 426.526 30.788 426.031 30.788ZM436.073 33V32.118L439.601 28.562C440.609 27.554 441.113 26.6907 441.113 25.972C441.113 25.3467 440.917 24.8613 440.525 24.516C440.143 24.1613 439.681 23.984 439.139 23.984C438.131 23.984 437.399 24.446 436.941 25.37L436.115 24.88C436.423 24.2733 436.843 23.816 437.375 23.508C437.907 23.1907 438.495 23.032 439.139 23.032C439.923 23.032 440.609 23.298 441.197 23.83C441.795 24.3527 442.093 25.0667 442.093 25.972C442.093 26.5413 441.935 27.0873 441.617 27.61C441.3 28.1327 440.852 28.6833 440.273 29.262L437.473 32.048H442.303V33H436.073ZM450.072 31.796C449.428 32.7107 448.518 33.168 447.342 33.168C446.166 33.168 445.251 32.7107 444.598 31.796C443.954 30.872 443.632 29.64 443.632 28.1C443.632 26.56 443.954 25.3327 444.598 24.418C445.251 23.494 446.166 23.032 447.342 23.032C448.518 23.032 449.428 23.494 450.072 24.418C450.725 25.3327 451.052 26.56 451.052 28.1C451.052 29.64 450.725 30.872 450.072 31.796ZM445.326 31.138C445.811 31.8567 446.483 32.216 447.342 32.216C448.201 32.216 448.868 31.8567 449.344 31.138C449.829 30.4193 450.072 29.4067 450.072 28.1C450.072 26.7933 449.829 25.7807 449.344 25.062C448.868 24.3433 448.201 23.984 447.342 23.984C446.483 23.984 445.811 24.3433 445.326 25.062C444.85 25.7807 444.612 26.7933 444.612 28.1C444.612 29.4067 444.85 30.4193 445.326 31.138ZM452.374 33V32.118L455.902 28.562C456.91 27.554 457.414 26.6907 457.414 25.972C457.414 25.3467 457.218 24.8613 456.826 24.516C456.443 24.1613 455.981 23.984 455.44 23.984C454.432 23.984 453.699 24.446 453.242 25.37L452.416 24.88C452.724 24.2733 453.144 23.816 453.676 23.508C454.208 23.1907 454.796 23.032 455.44 23.032C456.224 23.032 456.91 23.298 457.498 23.83C458.095 24.3527 458.394 25.0667 458.394 25.972C458.394 26.5413 458.235 27.0873 457.918 27.61C457.6 28.1327 457.152 28.6833 456.574 29.262L453.774 32.048H458.604V33H452.374ZM466.866 30.116V31.04H465.606V33H464.626V31.04H459.446V30.116L463.086 23.2H464.164L460.524 30.116H464.626V27.12H465.606V30.116H466.866ZM478.761 33L477.851 30.592H473.203L472.293 33H471.257L475.023 23.2H476.031L479.797 33H478.761ZM473.553 29.668H477.501L475.527 24.418L473.553 29.668ZM484.24 33.168C483.186 33.168 482.308 32.818 481.608 32.118C480.908 31.4087 480.558 30.536 480.558 29.5C480.558 28.464 480.908 27.596 481.608 26.896C482.308 26.1867 483.186 25.832 484.24 25.832C484.931 25.832 485.552 26 486.102 26.336C486.653 26.6627 487.054 27.106 487.306 27.666L486.55 28.1C486.364 27.68 486.06 27.3487 485.64 27.106C485.23 26.854 484.763 26.728 484.24 26.728C483.466 26.728 482.812 26.9987 482.28 27.54C481.748 28.072 481.482 28.7253 481.482 29.5C481.482 30.2747 481.748 30.9327 482.28 31.474C482.812 32.006 483.466 32.272 484.24 32.272C484.763 32.272 485.23 32.1507 485.64 31.908C486.051 31.656 486.373 31.32 486.606 30.9L487.376 31.348C487.087 31.908 486.662 32.3513 486.102 32.678C485.542 33.0047 484.922 33.168 484.24 33.168ZM492.613 26.896H490.597V31.138C490.597 31.5207 490.672 31.796 490.821 31.964C490.97 32.1227 491.194 32.2067 491.493 32.216C491.792 32.216 492.165 32.2067 492.613 32.188V33C491.633 33.1493 490.896 33.0793 490.401 32.79C489.916 32.5007 489.673 31.95 489.673 31.138V26.896H488.203V26H489.673V24.32L490.597 24.04V26H492.613V26.896ZM495.291 24.32C495.16 24.4507 495.002 24.516 494.815 24.516C494.628 24.516 494.47 24.4507 494.339 24.32C494.208 24.1893 494.143 24.0307 494.143 23.844C494.143 23.6573 494.208 23.4987 494.339 23.368C494.47 23.2373 494.628 23.172 494.815 23.172C495.002 23.172 495.16 23.2373 495.291 23.368C495.422 23.4987 495.487 23.6573 495.487 23.844C495.487 24.0307 495.422 24.1893 495.291 24.32ZM494.353 33V26H495.277V33H494.353ZM502.478 26H503.458L500.588 33H499.468L496.598 26H497.578L500.028 32.034L502.478 26ZM507.735 25.832C508.771 25.832 509.606 26.2007 510.241 26.938C510.885 27.666 511.207 28.5293 511.207 29.528C511.207 29.6307 511.198 29.7753 511.179 29.962H505.033C505.126 30.6713 505.425 31.236 505.929 31.656C506.442 32.0667 507.072 32.272 507.819 32.272C508.351 32.272 508.808 32.1647 509.191 31.95C509.583 31.726 509.877 31.4367 510.073 31.082L510.885 31.558C510.577 32.0527 510.157 32.4447 509.625 32.734C509.093 33.0233 508.486 33.168 507.805 33.168C506.704 33.168 505.808 32.8227 505.117 32.132C504.426 31.4413 504.081 30.564 504.081 29.5C504.081 28.4547 504.422 27.582 505.103 26.882C505.784 26.182 506.662 25.832 507.735 25.832ZM507.735 26.728C507.007 26.728 506.396 26.9473 505.901 27.386C505.416 27.8153 505.126 28.3753 505.033 29.066H510.255C510.162 28.3287 509.877 27.7547 509.401 27.344C508.925 26.9333 508.37 26.728 507.735 26.728ZM522.877 23.2V24.124H519.867V33H518.887V24.124H515.877V23.2H522.877ZM524.277 27.162C524.706 26.3127 525.444 25.888 526.489 25.888V26.784C525.854 26.784 525.327 26.9707 524.907 27.344C524.487 27.7173 524.277 28.3053 524.277 29.108V33H523.353V26H524.277V27.162ZM528.893 24.32C528.763 24.4507 528.604 24.516 528.417 24.516C528.231 24.516 528.072 24.4507 527.941 24.32C527.811 24.1893 527.745 24.0307 527.745 23.844C527.745 23.6573 527.811 23.4987 527.941 23.368C528.072 23.2373 528.231 23.172 528.417 23.172C528.604 23.172 528.763 23.2373 528.893 23.368C529.024 23.4987 529.089 23.6573 529.089 23.844C529.089 24.0307 529.024 24.1893 528.893 24.32ZM527.955 33V26H528.879V33H527.955ZM534.792 25.832C535.791 25.832 536.64 26.1867 537.34 26.896C538.049 27.6053 538.404 28.4733 538.404 29.5C538.404 30.5267 538.049 31.3947 537.34 32.104C536.64 32.8133 535.791 33.168 534.792 33.168C533.551 33.168 532.608 32.6547 531.964 31.628V33H531.04V23.2H531.964V27.372C532.608 26.3453 533.551 25.832 534.792 25.832ZM532.762 31.474C533.294 32.006 533.947 32.272 534.722 32.272C535.497 32.272 536.15 32.006 536.682 31.474C537.214 30.9327 537.48 30.2747 537.48 29.5C537.48 28.7253 537.214 28.072 536.682 27.54C536.15 26.9987 535.497 26.728 534.722 26.728C533.947 26.728 533.294 26.9987 532.762 27.54C532.23 28.072 531.964 28.7253 531.964 29.5C531.964 30.2747 532.23 30.9327 532.762 31.474ZM543.375 25.832C544.411 25.832 545.246 26.2007 545.881 26.938C546.525 27.666 546.847 28.5293 546.847 29.528C546.847 29.6307 546.837 29.7753 546.819 29.962H540.673C540.766 30.6713 541.065 31.236 541.569 31.656C542.082 32.0667 542.712 32.272 543.459 32.272C543.991 32.272 544.448 32.1647 544.831 31.95C545.223 31.726 545.517 31.4367 545.713 31.082L546.525 31.558C546.217 32.0527 545.797 32.4447 545.265 32.734C544.733 33.0233 544.126 33.168 543.445 33.168C542.343 33.168 541.447 32.8227 540.757 32.132C540.066 31.4413 539.721 30.564 539.721 29.5C539.721 28.4547 540.061 27.582 540.743 26.882C541.424 26.182 542.301 25.832 543.375 25.832ZM543.375 26.728C542.647 26.728 542.035 26.9473 541.541 27.386C541.055 27.8153 540.766 28.3753 540.673 29.066H545.895C545.801 28.3287 545.517 27.7547 545.041 27.344C544.565 26.9333 544.009 26.728 543.375 26.728ZM549.132 32.916C548.982 33.0653 548.8 33.14 548.586 33.14C548.371 33.14 548.189 33.0653 548.04 32.916C547.89 32.7667 547.816 32.5847 547.816 32.37C547.816 32.1553 547.89 31.9733 548.04 31.824C548.189 31.6747 548.371 31.6 548.586 31.6C548.8 31.6 548.982 31.6747 549.132 31.824C549.281 31.9733 549.356 32.1553 549.356 32.37C549.356 32.5847 549.281 32.7667 549.132 32.916ZM561.746 33L560.836 30.592H556.188L555.278 33H554.242L558.008 23.2H559.016L562.782 33H561.746ZM556.538 29.668H560.486L558.512 24.418L556.538 29.668ZM564.101 33V22.78H565.025V33H564.101ZM567.185 33V22.78H568.109V33H567.185ZM580.13 33L577.834 29.08H575.09V33H574.11V23.2H578.03C578.842 23.2 579.533 23.4893 580.102 24.068C580.681 24.6373 580.97 25.328 580.97 26.14C580.97 26.8027 580.77 27.3953 580.368 27.918C579.976 28.4313 579.472 28.7767 578.856 28.954L581.25 33H580.13ZM575.09 24.124V28.156H578.03C578.572 28.156 579.034 27.96 579.416 27.568C579.799 27.1667 579.99 26.6907 579.99 26.14C579.99 25.58 579.799 25.104 579.416 24.712C579.034 24.32 578.572 24.124 578.03 24.124H575.09ZM583.653 24.32C583.522 24.4507 583.364 24.516 583.177 24.516C582.99 24.516 582.832 24.4507 582.701 24.32C582.57 24.1893 582.505 24.0307 582.505 23.844C582.505 23.6573 582.57 23.4987 582.701 23.368C582.832 23.2373 582.99 23.172 583.177 23.172C583.364 23.172 583.522 23.2373 583.653 23.368C583.784 23.4987 583.849 23.6573 583.849 23.844C583.849 24.0307 583.784 24.1893 583.653 24.32ZM582.715 33V26H583.639V33H582.715ZM591.82 26H592.744V32.72C592.744 33.728 592.399 34.5213 591.708 35.1C591.017 35.6787 590.191 35.968 589.23 35.968C587.587 35.968 586.481 35.3987 585.912 34.26L586.724 33.798C587.144 34.6473 587.979 35.072 589.23 35.072C590.033 35.072 590.663 34.8573 591.12 34.428C591.587 34.008 591.82 33.4387 591.82 32.72V31.628C591.176 32.6547 590.233 33.168 588.992 33.168C587.993 33.168 587.139 32.8133 586.43 32.104C585.73 31.3947 585.38 30.5267 585.38 29.5C585.38 28.4733 585.73 27.6053 586.43 26.896C587.139 26.1867 587.993 25.832 588.992 25.832C590.233 25.832 591.176 26.3453 591.82 27.372V26ZM587.102 31.474C587.634 32.006 588.287 32.272 589.062 32.272C589.837 32.272 590.49 32.006 591.022 31.474C591.554 30.9327 591.82 30.2747 591.82 29.5C591.82 28.7253 591.554 28.072 591.022 27.54C590.49 26.9987 589.837 26.728 589.062 26.728C588.287 26.728 587.634 26.9987 587.102 27.54C586.57 28.072 586.304 28.7253 586.304 29.5C586.304 30.2747 586.57 30.9327 587.102 31.474ZM598.176 25.832C599.026 25.832 599.693 26.0933 600.178 26.616C600.673 27.1293 600.92 27.8247 600.92 28.702V33H599.996V28.702C599.996 28.0767 599.828 27.5913 599.492 27.246C599.166 26.9007 598.699 26.728 598.092 26.728C597.42 26.728 596.874 26.9427 596.454 27.372C596.034 27.792 595.824 28.4453 595.824 29.332V33H594.9V23.2H595.824V27.092C596.347 26.252 597.131 25.832 598.176 25.832ZM606.617 26.896H604.601V31.138C604.601 31.5207 604.676 31.796 604.825 31.964C604.974 32.1227 605.198 32.2067 605.497 32.216C605.796 32.216 606.169 32.2067 606.617 32.188V33C605.637 33.1493 604.9 33.0793 604.405 32.79C603.92 32.5007 603.677 31.95 603.677 31.138V26.896H602.207V26H603.677V24.32L604.601 24.04V26H606.617V26.896ZM608.661 27.834C608.661 28.1513 608.801 28.4033 609.081 28.59C609.361 28.7767 609.702 28.9213 610.103 29.024C610.504 29.1267 610.906 29.2433 611.307 29.374C611.708 29.4953 612.049 29.7053 612.329 30.004C612.609 30.2933 612.749 30.676 612.749 31.152C612.749 31.7493 612.511 32.2347 612.035 32.608C611.568 32.9813 610.962 33.168 610.215 33.168C609.543 33.168 608.969 33.0187 608.493 32.72C608.026 32.4213 607.7 32.034 607.513 31.558L608.297 31.096C608.428 31.46 608.661 31.7493 608.997 31.964C609.342 32.1693 609.748 32.272 610.215 32.272C610.672 32.272 611.055 32.1833 611.363 32.006C611.671 31.8193 611.825 31.5347 611.825 31.152C611.825 30.8347 611.685 30.5827 611.405 30.396C611.125 30.2093 610.784 30.0647 610.383 29.962C609.982 29.8593 609.58 29.7473 609.179 29.626C608.778 29.4953 608.437 29.2853 608.157 28.996C607.877 28.6973 607.737 28.31 607.737 27.834C607.737 27.2647 607.961 26.7887 608.409 26.406C608.866 26.0233 609.44 25.832 610.131 25.832C610.7 25.832 611.2 25.9627 611.629 26.224C612.058 26.476 612.376 26.8213 612.581 27.26L611.811 27.708C611.54 27.0547 610.98 26.728 610.131 26.728C609.73 26.728 609.384 26.826 609.095 27.022C608.806 27.2087 608.661 27.4793 608.661 27.834ZM624.351 33L622.055 29.08H619.311V33H618.331V23.2H622.251C623.063 23.2 623.753 23.4893 624.323 24.068C624.901 24.6373 625.191 25.328 625.191 26.14C625.191 26.8027 624.99 27.3953 624.589 27.918C624.197 28.4313 623.693 28.7767 623.077 28.954L625.471 33H624.351ZM619.311 24.124V28.156H622.251C622.792 28.156 623.254 27.96 623.637 27.568C624.019 27.1667 624.211 26.6907 624.211 26.14C624.211 25.58 624.019 25.104 623.637 24.712C623.254 24.32 622.792 24.124 622.251 24.124H619.311ZM629.814 25.832C630.85 25.832 631.685 26.2007 632.32 26.938C632.964 27.666 633.286 28.5293 633.286 29.528C633.286 29.6307 633.277 29.7753 633.258 29.962H627.112C627.205 30.6713 627.504 31.236 628.008 31.656C628.521 32.0667 629.151 32.272 629.898 32.272C630.43 32.272 630.887 32.1647 631.27 31.95C631.662 31.726 631.956 31.4367 632.152 31.082L632.964 31.558C632.656 32.0527 632.236 32.4447 631.704 32.734C631.172 33.0233 630.565 33.168 629.884 33.168C628.783 33.168 627.887 32.8227 627.196 32.132C626.505 31.4413 626.16 30.564 626.16 29.5C626.16 28.4547 626.501 27.582 627.182 26.882C627.863 26.182 628.741 25.832 629.814 25.832ZM629.814 26.728C629.086 26.728 628.475 26.9473 627.98 27.386C627.495 27.8153 627.205 28.3753 627.112 29.066H632.334C632.241 28.3287 631.956 27.7547 631.48 27.344C631.004 26.9333 630.449 26.728 629.814 26.728ZM635.41 27.834C635.41 28.1513 635.55 28.4033 635.83 28.59C636.11 28.7767 636.451 28.9213 636.852 29.024C637.254 29.1267 637.655 29.2433 638.056 29.374C638.458 29.4953 638.798 29.7053 639.078 30.004C639.358 30.2933 639.498 30.676 639.498 31.152C639.498 31.7493 639.26 32.2347 638.784 32.608C638.318 32.9813 637.711 33.168 636.964 33.168C636.292 33.168 635.718 33.0187 635.242 32.72C634.776 32.4213 634.449 32.034 634.262 31.558L635.046 31.096C635.177 31.46 635.41 31.7493 635.746 31.964C636.092 32.1693 636.498 32.272 636.964 32.272C637.422 32.272 637.804 32.1833 638.112 32.006C638.42 31.8193 638.574 31.5347 638.574 31.152C638.574 30.8347 638.434 30.5827 638.154 30.396C637.874 30.2093 637.534 30.0647 637.132 29.962C636.731 29.8593 636.33 29.7473 635.928 29.626C635.527 29.4953 635.186 29.2853 634.906 28.996C634.626 28.6973 634.486 28.31 634.486 27.834C634.486 27.2647 634.71 26.7887 635.158 26.406C635.616 26.0233 636.19 25.832 636.88 25.832C637.45 25.832 637.949 25.9627 638.378 26.224C638.808 26.476 639.125 26.8213 639.33 27.26L638.56 27.708C638.29 27.0547 637.73 26.728 636.88 26.728C636.479 26.728 636.134 26.826 635.844 27.022C635.555 27.2087 635.41 27.4793 635.41 27.834ZM644.269 25.832C645.305 25.832 646.14 26.2007 646.775 26.938C647.419 27.666 647.741 28.5293 647.741 29.528C647.741 29.6307 647.731 29.7753 647.713 29.962H641.567C641.66 30.6713 641.959 31.236 642.463 31.656C642.976 32.0667 643.606 32.272 644.353 32.272C644.885 32.272 645.342 32.1647 645.725 31.95C646.117 31.726 646.411 31.4367 646.607 31.082L647.419 31.558C647.111 32.0527 646.691 32.4447 646.159 32.734C645.627 33.0233 645.02 33.168 644.339 33.168C643.237 33.168 642.341 32.8227 641.651 32.132C640.96 31.4413 640.615 30.564 640.615 29.5C640.615 28.4547 640.955 27.582 641.637 26.882C642.318 26.182 643.195 25.832 644.269 25.832ZM644.269 26.728C643.541 26.728 642.929 26.9473 642.435 27.386C641.949 27.8153 641.66 28.3753 641.567 29.066H646.789C646.695 28.3287 646.411 27.7547 645.935 27.344C645.459 26.9333 644.903 26.728 644.269 26.728ZM650.334 27.162C650.764 26.3127 651.501 25.888 652.546 25.888V26.784C651.912 26.784 651.384 26.9707 650.964 27.344C650.544 27.7173 650.334 28.3053 650.334 29.108V33H649.41V26H650.334V27.162ZM659.053 26H660.033L657.163 33H656.043L653.173 26H654.153L656.603 32.034L659.053 26ZM664.31 25.832C665.346 25.832 666.181 26.2007 666.816 26.938C667.46 27.666 667.782 28.5293 667.782 29.528C667.782 29.6307 667.773 29.7753 667.754 29.962H661.608C661.701 30.6713 662 31.236 662.504 31.656C663.017 32.0667 663.647 32.272 664.394 32.272C664.926 32.272 665.383 32.1647 665.766 31.95C666.158 31.726 666.452 31.4367 666.648 31.082L667.46 31.558C667.152 32.0527 666.732 32.4447 666.2 32.734C665.668 33.0233 665.061 33.168 664.38 33.168C663.279 33.168 662.383 32.8227 661.692 32.132C661.001 31.4413 660.656 30.564 660.656 29.5C660.656 28.4547 660.997 27.582 661.678 26.882C662.359 26.182 663.237 25.832 664.31 25.832ZM664.31 26.728C663.582 26.728 662.971 26.9473 662.476 27.386C661.991 27.8153 661.701 28.3753 661.608 29.066H666.83C666.737 28.3287 666.452 27.7547 665.976 27.344C665.5 26.9333 664.945 26.728 664.31 26.728ZM675.472 23.2H676.396V33H675.472V31.628C674.828 32.6547 673.885 33.168 672.644 33.168C671.645 33.168 670.791 32.8133 670.082 32.104C669.382 31.3947 669.032 30.5267 669.032 29.5C669.032 28.4733 669.382 27.6053 670.082 26.896C670.791 26.1867 671.645 25.832 672.644 25.832C673.885 25.832 674.828 26.3453 675.472 27.372V23.2ZM670.754 31.474C671.286 32.006 671.939 32.272 672.714 32.272C673.489 32.272 674.142 32.006 674.674 31.474C675.206 30.9327 675.472 30.2747 675.472 29.5C675.472 28.7253 675.206 28.072 674.674 27.54C674.142 26.9987 673.489 26.728 672.714 26.728C671.939 26.728 671.286 26.9987 670.754 27.54C670.222 28.072 669.956 28.7253 669.956 29.5C669.956 30.2747 670.222 30.9327 670.754 31.474ZM679.728 32.916C679.579 33.0653 679.397 33.14 679.182 33.14C678.968 33.14 678.786 33.0653 678.636 32.916C678.487 32.7667 678.412 32.5847 678.412 32.37C678.412 32.1553 678.487 31.9733 678.636 31.824C678.786 31.6747 678.968 31.6 679.182 31.6C679.397 31.6 679.579 31.6747 679.728 31.824C679.878 31.9733 679.952 32.1553 679.952 32.37C679.952 32.5847 679.878 32.7667 679.728 32.916Z" fill="#BDBDBD"/>
<g clip-path="url(#clip0_1190_15959)">
<path d="M1229.28 23.2V24.124H1226.27V33H1225.29V24.124H1222.28V23.2H1229.28ZM1232.72 25.832C1233.75 25.832 1234.59 26.2007 1235.22 26.938C1235.87 27.666 1236.19 28.5293 1236.19 29.528C1236.19 29.6307 1236.18 29.7753 1236.16 29.962H1230.01C1230.11 30.6713 1230.41 31.236 1230.91 31.656C1231.42 32.0667 1232.05 32.272 1232.8 32.272C1233.33 32.272 1233.79 32.1647 1234.17 31.95C1234.56 31.726 1234.86 31.4367 1235.05 31.082L1235.87 31.558C1235.56 32.0527 1235.14 32.4447 1234.61 32.734C1234.07 33.0233 1233.47 33.168 1232.79 33.168C1231.69 33.168 1230.79 32.8227 1230.1 32.132C1229.41 31.4413 1229.06 30.564 1229.06 29.5C1229.06 28.4547 1229.4 27.582 1230.08 26.882C1230.77 26.182 1231.64 25.832 1232.72 25.832ZM1232.72 26.728C1231.99 26.728 1231.38 26.9473 1230.88 27.386C1230.4 27.8153 1230.11 28.3753 1230.01 29.066H1235.24C1235.14 28.3287 1234.86 27.7547 1234.38 27.344C1233.91 26.9333 1233.35 26.728 1232.72 26.728ZM1238.78 27.162C1239.21 26.3127 1239.95 25.888 1240.99 25.888V26.784C1240.36 26.784 1239.83 26.9707 1239.41 27.344C1238.99 27.7173 1238.78 28.3053 1238.78 29.108V33H1237.86V26H1238.78V27.162ZM1249.92 25.832C1250.71 25.832 1251.34 26.084 1251.81 26.588C1252.3 27.092 1252.54 27.7733 1252.54 28.632V33H1251.62V28.632C1251.62 28.0253 1251.46 27.5587 1251.14 27.232C1250.83 26.896 1250.42 26.728 1249.91 26.728C1249.33 26.728 1248.86 26.924 1248.49 27.316C1248.14 27.6987 1247.96 28.3007 1247.96 29.122V33H1247.04V28.632C1247.04 28.016 1246.89 27.5447 1246.59 27.218C1246.3 26.8913 1245.9 26.728 1245.4 26.728C1244.84 26.728 1244.36 26.924 1243.97 27.316C1243.58 27.708 1243.38 28.31 1243.38 29.122V33H1242.46V26H1243.38V27.022C1243.89 26.2287 1244.6 25.832 1245.53 25.832C1246.53 25.832 1247.24 26.2567 1247.65 27.106C1248.16 26.2567 1248.91 25.832 1249.92 25.832ZM1255.26 27.834C1255.26 28.1513 1255.4 28.4033 1255.68 28.59C1255.96 28.7767 1256.3 28.9213 1256.7 29.024C1257.1 29.1267 1257.5 29.2433 1257.9 29.374C1258.3 29.4953 1258.64 29.7053 1258.92 30.004C1259.2 30.2933 1259.34 30.676 1259.34 31.152C1259.34 31.7493 1259.11 32.2347 1258.63 32.608C1258.16 32.9813 1257.56 33.168 1256.81 33.168C1256.14 33.168 1255.56 33.0187 1255.09 32.72C1254.62 32.4213 1254.29 32.034 1254.11 31.558L1254.89 31.096C1255.02 31.46 1255.26 31.7493 1255.59 31.964C1255.94 32.1693 1256.34 32.272 1256.81 32.272C1257.27 32.272 1257.65 32.1833 1257.96 32.006C1258.27 31.8193 1258.42 31.5347 1258.42 31.152C1258.42 30.8347 1258.28 30.5827 1258 30.396C1257.72 30.2093 1257.38 30.0647 1256.98 29.962C1256.58 29.8593 1256.18 29.7473 1255.77 29.626C1255.37 29.4953 1255.03 29.2853 1254.75 28.996C1254.47 28.6973 1254.33 28.31 1254.33 27.834C1254.33 27.2647 1254.56 26.7887 1255 26.406C1255.46 26.0233 1256.04 25.832 1256.73 25.832C1257.3 25.832 1257.79 25.9627 1258.22 26.224C1258.65 26.476 1258.97 26.8213 1259.18 27.26L1258.41 27.708C1258.14 27.0547 1257.58 26.728 1256.73 26.728C1256.32 26.728 1255.98 26.826 1255.69 27.022C1255.4 27.2087 1255.26 27.4793 1255.26 27.834ZM1270.65 32.118C1269.94 32.818 1269.07 33.168 1268.05 33.168C1267.02 33.168 1266.15 32.818 1265.43 32.118C1264.72 31.4087 1264.37 30.536 1264.37 29.5C1264.37 28.464 1264.72 27.596 1265.43 26.896C1266.15 26.1867 1267.02 25.832 1268.05 25.832C1269.07 25.832 1269.94 26.1867 1270.65 26.896C1271.37 27.596 1271.73 28.464 1271.73 29.5C1271.73 30.536 1271.37 31.4087 1270.65 32.118ZM1266.09 31.474C1266.62 32.006 1267.27 32.272 1268.05 32.272C1268.82 32.272 1269.48 32.006 1270.01 31.474C1270.54 30.9327 1270.81 30.2747 1270.81 29.5C1270.81 28.7253 1270.54 28.072 1270.01 27.54C1269.48 26.9987 1268.82 26.728 1268.05 26.728C1267.27 26.728 1266.62 26.9987 1266.09 27.54C1265.56 28.072 1265.29 28.7253 1265.29 29.5C1265.29 30.2747 1265.56 30.9327 1266.09 31.474ZM1276.7 23.928C1276.02 23.872 1275.51 23.9887 1275.18 24.278C1274.85 24.5673 1274.69 25.048 1274.69 25.72V26H1276.7V26.896H1274.69V33H1273.76V26.896H1272.57V26H1273.76V25.72C1273.76 24.8053 1274.01 24.1147 1274.52 23.648C1275.03 23.172 1275.76 22.9667 1276.7 23.032V23.928ZM1284.81 33.168C1283.91 33.168 1283.14 32.958 1282.5 32.538C1281.86 32.1087 1281.42 31.5207 1281.17 30.774L1282.01 30.284C1282.18 30.8907 1282.51 31.3667 1282.99 31.712C1283.46 32.048 1284.07 32.216 1284.82 32.216C1285.55 32.216 1286.11 32.0573 1286.51 31.74C1286.93 31.4133 1287.13 30.984 1287.13 30.452C1287.13 29.9387 1286.94 29.5513 1286.57 29.29C1286.2 29.0287 1285.58 28.758 1284.72 28.478C1283.71 28.142 1283.03 27.8713 1282.71 27.666C1281.96 27.218 1281.59 26.5693 1281.59 25.72C1281.59 24.8893 1281.88 24.236 1282.45 23.76C1283.03 23.2747 1283.75 23.032 1284.6 23.032C1285.36 23.032 1286.02 23.2327 1286.58 23.634C1287.14 24.026 1287.56 24.53 1287.83 25.146L1287 25.608C1286.56 24.5253 1285.75 23.984 1284.6 23.984C1283.99 23.984 1283.5 24.1333 1283.13 24.432C1282.75 24.7307 1282.57 25.146 1282.57 25.678C1282.57 26.1633 1282.73 26.5273 1283.07 26.77C1283.41 27.0127 1283.96 27.26 1284.74 27.512C1285.09 27.6333 1285.34 27.722 1285.49 27.778C1285.65 27.8247 1285.88 27.9087 1286.16 28.03C1286.46 28.142 1286.68 28.2447 1286.82 28.338C1286.96 28.422 1287.13 28.5433 1287.33 28.702C1287.53 28.8513 1287.68 29.0053 1287.76 29.164C1287.85 29.3133 1287.93 29.5 1288 29.724C1288.07 29.9387 1288.11 30.172 1288.11 30.424C1288.11 31.2547 1287.81 31.922 1287.2 32.426C1286.59 32.9207 1285.8 33.168 1284.81 33.168ZM1293.22 25.832C1294.26 25.832 1295.1 26.2007 1295.73 26.938C1296.37 27.666 1296.7 28.5293 1296.7 29.528C1296.7 29.6307 1296.69 29.7753 1296.67 29.962H1290.52C1290.62 30.6713 1290.91 31.236 1291.42 31.656C1291.93 32.0667 1292.56 32.272 1293.31 32.272C1293.84 32.272 1294.3 32.1647 1294.68 31.95C1295.07 31.726 1295.37 31.4367 1295.56 31.082L1296.37 31.558C1296.07 32.0527 1295.65 32.4447 1295.11 32.734C1294.58 33.0233 1293.98 33.168 1293.29 33.168C1292.19 33.168 1291.3 32.8227 1290.61 32.132C1289.92 31.4413 1289.57 30.564 1289.57 29.5C1289.57 28.4547 1289.91 27.582 1290.59 26.882C1291.27 26.182 1292.15 25.832 1293.22 25.832ZM1293.22 26.728C1292.5 26.728 1291.88 26.9473 1291.39 27.386C1290.9 27.8153 1290.62 28.3753 1290.52 29.066H1295.74C1295.65 28.3287 1295.37 27.7547 1294.89 27.344C1294.41 26.9333 1293.86 26.728 1293.22 26.728ZM1299.29 27.162C1299.72 26.3127 1300.46 25.888 1301.5 25.888V26.784C1300.87 26.784 1300.34 26.9707 1299.92 27.344C1299.5 27.7173 1299.29 28.3053 1299.29 29.108V33H1298.37V26H1299.29V27.162ZM1308.01 26H1308.99L1306.12 33H1305L1302.13 26H1303.11L1305.56 32.034L1308.01 26ZM1311.24 24.32C1311.11 24.4507 1310.95 24.516 1310.77 24.516C1310.58 24.516 1310.42 24.4507 1310.29 24.32C1310.16 24.1893 1310.09 24.0307 1310.09 23.844C1310.09 23.6573 1310.16 23.4987 1310.29 23.368C1310.42 23.2373 1310.58 23.172 1310.77 23.172C1310.95 23.172 1311.11 23.2373 1311.24 23.368C1311.37 23.4987 1311.44 23.6573 1311.44 23.844C1311.44 24.0307 1311.37 24.1893 1311.24 24.32ZM1310.3 33V26H1311.23V33H1310.3ZM1316.65 33.168C1315.6 33.168 1314.72 32.818 1314.02 32.118C1313.32 31.4087 1312.97 30.536 1312.97 29.5C1312.97 28.464 1313.32 27.596 1314.02 26.896C1314.72 26.1867 1315.6 25.832 1316.65 25.832C1317.34 25.832 1317.96 26 1318.51 26.336C1319.06 26.6627 1319.47 27.106 1319.72 27.666L1318.96 28.1C1318.77 27.68 1318.47 27.3487 1318.05 27.106C1317.64 26.854 1317.17 26.728 1316.65 26.728C1315.88 26.728 1315.22 26.9987 1314.69 27.54C1314.16 28.072 1313.89 28.7253 1313.89 29.5C1313.89 30.2747 1314.16 30.9327 1314.69 31.474C1315.22 32.006 1315.88 32.272 1316.65 32.272C1317.17 32.272 1317.64 32.1507 1318.05 31.908C1318.46 31.656 1318.78 31.32 1319.02 30.9L1319.79 31.348C1319.5 31.908 1319.07 32.3513 1318.51 32.678C1317.95 33.0047 1317.33 33.168 1316.65 33.168ZM1324.48 25.832C1325.52 25.832 1326.35 26.2007 1326.99 26.938C1327.63 27.666 1327.95 28.5293 1327.95 29.528C1327.95 29.6307 1327.94 29.7753 1327.92 29.962H1321.78C1321.87 30.6713 1322.17 31.236 1322.67 31.656C1323.19 32.0667 1323.82 32.272 1324.56 32.272C1325.1 32.272 1325.55 32.1647 1325.94 31.95C1326.33 31.726 1326.62 31.4367 1326.82 31.082L1327.63 31.558C1327.32 32.0527 1326.9 32.4447 1326.37 32.734C1325.84 33.0233 1325.23 33.168 1324.55 33.168C1323.45 33.168 1322.55 32.8227 1321.86 32.132C1321.17 31.4413 1320.83 30.564 1320.83 29.5C1320.83 28.4547 1321.17 27.582 1321.85 26.882C1322.53 26.182 1323.41 25.832 1324.48 25.832ZM1324.48 26.728C1323.75 26.728 1323.14 26.9473 1322.65 27.386C1322.16 27.8153 1321.87 28.3753 1321.78 29.066H1327C1326.91 28.3287 1326.62 27.7547 1326.15 27.344C1325.67 26.9333 1325.11 26.728 1324.48 26.728Z" fill="#BDBDBD"/>
<path d="M1381.62 23.2C1382.5 23.2 1383.23 23.494 1383.82 24.082C1384.41 24.67 1384.7 25.4027 1384.7 26.28C1384.7 27.1573 1384.41 27.89 1383.82 28.478C1383.23 29.066 1382.5 29.36 1381.62 29.36H1379.1V33H1378.12V23.2H1381.62ZM1381.62 28.436C1382.23 28.436 1382.73 28.2353 1383.12 27.834C1383.52 27.4233 1383.72 26.9053 1383.72 26.28C1383.72 25.6547 1383.52 25.1413 1383.12 24.74C1382.73 24.3293 1382.23 24.124 1381.62 24.124H1379.1V28.436H1381.62ZM1387.23 27.162C1387.65 26.3127 1388.39 25.888 1389.44 25.888V26.784C1388.8 26.784 1388.28 26.9707 1387.86 27.344C1387.44 27.7173 1387.23 28.3053 1387.23 29.108V33H1386.3V26H1387.23V27.162ZM1391.84 24.32C1391.71 24.4507 1391.55 24.516 1391.37 24.516C1391.18 24.516 1391.02 24.4507 1390.89 24.32C1390.76 24.1893 1390.69 24.0307 1390.69 23.844C1390.69 23.6573 1390.76 23.4987 1390.89 23.368C1391.02 23.2373 1391.18 23.172 1391.37 23.172C1391.55 23.172 1391.71 23.2373 1391.84 23.368C1391.97 23.4987 1392.04 23.6573 1392.04 23.844C1392.04 24.0307 1391.97 24.1893 1391.84 24.32ZM1390.9 33V26H1391.83V33H1390.9ZM1399.03 26H1400.01L1397.14 33H1396.02L1393.15 26H1394.13L1396.58 32.034L1399.03 26ZM1407.07 26H1408V33H1407.07V31.628C1406.43 32.6547 1405.48 33.168 1404.24 33.168C1403.24 33.168 1402.39 32.8133 1401.68 32.104C1400.98 31.3947 1400.63 30.5267 1400.63 29.5C1400.63 28.4733 1400.98 27.6053 1401.68 26.896C1402.39 26.1867 1403.24 25.832 1404.24 25.832C1405.48 25.832 1406.43 26.3453 1407.07 27.372V26ZM1402.35 31.474C1402.89 32.006 1403.54 32.272 1404.31 32.272C1405.09 32.272 1405.74 32.006 1406.27 31.474C1406.81 30.9327 1407.07 30.2747 1407.07 29.5C1407.07 28.7253 1406.81 28.072 1406.27 27.54C1405.74 26.9987 1405.09 26.728 1404.31 26.728C1403.54 26.728 1402.89 26.9987 1402.35 27.54C1401.82 28.072 1401.56 28.7253 1401.56 29.5C1401.56 30.2747 1401.82 30.9327 1402.35 31.474ZM1413.41 33.168C1412.36 33.168 1411.48 32.818 1410.78 32.118C1410.08 31.4087 1409.73 30.536 1409.73 29.5C1409.73 28.464 1410.08 27.596 1410.78 26.896C1411.48 26.1867 1412.36 25.832 1413.41 25.832C1414.1 25.832 1414.73 26 1415.28 26.336C1415.83 26.6627 1416.23 27.106 1416.48 27.666L1415.72 28.1C1415.54 27.68 1415.23 27.3487 1414.81 27.106C1414.4 26.854 1413.94 26.728 1413.41 26.728C1412.64 26.728 1411.99 26.9987 1411.45 27.54C1410.92 28.072 1410.66 28.7253 1410.66 29.5C1410.66 30.2747 1410.92 30.9327 1411.45 31.474C1411.99 32.006 1412.64 32.272 1413.41 32.272C1413.94 32.272 1414.4 32.1507 1414.81 31.908C1415.22 31.656 1415.55 31.32 1415.78 30.9L1416.55 31.348C1416.26 31.908 1415.84 32.3513 1415.28 32.678C1414.72 33.0047 1414.1 33.168 1413.41 33.168ZM1423.12 26H1424.1L1421.1 33.644C1420.83 34.3347 1420.44 34.876 1419.94 35.268C1419.44 35.6693 1418.89 35.8467 1418.27 35.8V34.932C1419.11 35.0253 1419.75 34.54 1420.19 33.476L1420.37 33.042L1417.24 26H1418.22L1420.85 31.866L1423.12 26ZM1432.75 23.2C1433.63 23.2 1434.36 23.494 1434.95 24.082C1435.54 24.67 1435.83 25.4027 1435.83 26.28C1435.83 27.1573 1435.54 27.89 1434.95 28.478C1434.36 29.066 1433.63 29.36 1432.75 29.36H1430.23V33H1429.25V23.2H1432.75ZM1432.75 28.436C1433.36 28.436 1433.86 28.2353 1434.25 27.834C1434.65 27.4233 1434.85 26.9053 1434.85 26.28C1434.85 25.6547 1434.65 25.1413 1434.25 24.74C1433.86 24.3293 1433.36 24.124 1432.75 24.124H1430.23V28.436H1432.75ZM1442.88 32.118C1442.17 32.818 1441.3 33.168 1440.27 33.168C1439.25 33.168 1438.37 32.818 1437.65 32.118C1436.95 31.4087 1436.59 30.536 1436.59 29.5C1436.59 28.464 1436.95 27.596 1437.65 26.896C1438.37 26.1867 1439.25 25.832 1440.27 25.832C1441.3 25.832 1442.17 26.1867 1442.88 26.896C1443.6 27.596 1443.95 28.464 1443.95 29.5C1443.95 30.536 1443.6 31.4087 1442.88 32.118ZM1438.31 31.474C1438.84 32.006 1439.5 32.272 1440.27 32.272C1441.05 32.272 1441.7 32.006 1442.23 31.474C1442.76 30.9327 1443.03 30.2747 1443.03 29.5C1443.03 28.7253 1442.76 28.072 1442.23 27.54C1441.7 26.9987 1441.05 26.728 1440.27 26.728C1439.5 26.728 1438.84 26.9987 1438.31 27.54C1437.78 28.072 1437.51 28.7253 1437.51 29.5C1437.51 30.2747 1437.78 30.9327 1438.31 31.474ZM1445.7 33V22.78H1446.62V33H1445.7ZM1449.72 24.32C1449.59 24.4507 1449.43 24.516 1449.25 24.516C1449.06 24.516 1448.9 24.4507 1448.77 24.32C1448.64 24.1893 1448.58 24.0307 1448.58 23.844C1448.58 23.6573 1448.64 23.4987 1448.77 23.368C1448.9 23.2373 1449.06 23.172 1449.25 23.172C1449.43 23.172 1449.59 23.2373 1449.72 23.368C1449.85 23.4987 1449.92 23.6573 1449.92 23.844C1449.92 24.0307 1449.85 24.1893 1449.72 24.32ZM1448.79 33V26H1449.71V33H1448.79ZM1455.13 33.168C1454.08 33.168 1453.2 32.818 1452.5 32.118C1451.8 31.4087 1451.45 30.536 1451.45 29.5C1451.45 28.464 1451.8 27.596 1452.5 26.896C1453.2 26.1867 1454.08 25.832 1455.13 25.832C1455.82 25.832 1456.44 26 1456.99 26.336C1457.54 26.6627 1457.95 27.106 1458.2 27.666L1457.44 28.1C1457.26 27.68 1456.95 27.3487 1456.53 27.106C1456.12 26.854 1455.65 26.728 1455.13 26.728C1454.36 26.728 1453.7 26.9987 1453.17 27.54C1452.64 28.072 1452.37 28.7253 1452.37 29.5C1452.37 30.2747 1452.64 30.9327 1453.17 31.474C1453.7 32.006 1454.36 32.272 1455.13 32.272C1455.65 32.272 1456.12 32.1507 1456.53 31.908C1456.94 31.656 1457.26 31.32 1457.5 30.9L1458.27 31.348C1457.98 31.908 1457.55 32.3513 1456.99 32.678C1456.43 33.0047 1455.81 33.168 1455.13 33.168ZM1464.83 26H1465.81L1462.82 33.644C1462.55 34.3347 1462.16 34.876 1461.66 35.268C1461.16 35.6693 1460.61 35.8467 1459.99 35.8V34.932C1460.83 35.0253 1461.47 34.54 1461.91 33.476L1462.09 33.042L1458.95 26H1459.93L1462.57 31.866L1464.83 26Z" fill="#BDBDBD"/>
<path d="M1519.7 33.168C1518.21 33.168 1516.99 32.678 1516.02 31.698C1515.05 30.718 1514.56 29.5187 1514.56 28.1C1514.56 26.6813 1515.05 25.482 1516.02 24.502C1516.99 23.522 1518.21 23.032 1519.7 23.032C1520.6 23.032 1521.43 23.2513 1522.19 23.69C1522.95 24.1193 1523.53 24.7027 1523.94 25.44L1523.07 25.944C1522.76 25.3467 1522.31 24.8707 1521.7 24.516C1521.09 24.1613 1520.43 23.984 1519.7 23.984C1518.48 23.984 1517.48 24.3807 1516.7 25.174C1515.93 25.9673 1515.54 26.9427 1515.54 28.1C1515.54 29.2573 1515.93 30.2327 1516.7 31.026C1517.48 31.8193 1518.48 32.216 1519.7 32.216C1520.43 32.216 1521.09 32.0387 1521.7 31.684C1522.31 31.3293 1522.76 30.8533 1523.07 30.256L1523.94 30.746C1523.54 31.4833 1522.96 32.0713 1522.19 32.51C1521.43 32.9487 1520.6 33.168 1519.7 33.168ZM1531.41 32.118C1530.7 32.818 1529.83 33.168 1528.81 33.168C1527.78 33.168 1526.91 32.818 1526.19 32.118C1525.48 31.4087 1525.12 30.536 1525.12 29.5C1525.12 28.464 1525.48 27.596 1526.19 26.896C1526.91 26.1867 1527.78 25.832 1528.81 25.832C1529.83 25.832 1530.7 26.1867 1531.41 26.896C1532.13 27.596 1532.49 28.464 1532.49 29.5C1532.49 30.536 1532.13 31.4087 1531.41 32.118ZM1526.85 31.474C1527.38 32.006 1528.03 32.272 1528.81 32.272C1529.58 32.272 1530.23 32.006 1530.77 31.474C1531.3 30.9327 1531.56 30.2747 1531.56 29.5C1531.56 28.7253 1531.3 28.072 1530.77 27.54C1530.23 26.9987 1529.58 26.728 1528.81 26.728C1528.03 26.728 1527.38 26.9987 1526.85 27.54C1526.31 28.072 1526.05 28.7253 1526.05 29.5C1526.05 30.2747 1526.31 30.9327 1526.85 31.474ZM1540.1 32.118C1539.39 32.818 1538.52 33.168 1537.5 33.168C1536.47 33.168 1535.6 32.818 1534.88 32.118C1534.17 31.4087 1533.81 30.536 1533.81 29.5C1533.81 28.464 1534.17 27.596 1534.88 26.896C1535.6 26.1867 1536.47 25.832 1537.5 25.832C1538.52 25.832 1539.39 26.1867 1540.1 26.896C1540.82 27.596 1541.18 28.464 1541.18 29.5C1541.18 30.536 1540.82 31.4087 1540.1 32.118ZM1535.54 31.474C1536.07 32.006 1536.72 32.272 1537.5 32.272C1538.27 32.272 1538.92 32.006 1539.46 31.474C1539.99 30.9327 1540.25 30.2747 1540.25 29.5C1540.25 28.7253 1539.99 28.072 1539.46 27.54C1538.92 26.9987 1538.27 26.728 1537.5 26.728C1536.72 26.728 1536.07 26.9987 1535.54 27.54C1535 28.072 1534.74 28.7253 1534.74 29.5C1534.74 30.2747 1535 30.9327 1535.54 31.474ZM1548.58 33H1547.35L1543.85 29.626V33H1542.92V23.2H1543.85V29.094L1547.18 26H1548.44L1544.83 29.36L1548.58 33ZM1550.98 24.32C1550.85 24.4507 1550.69 24.516 1550.5 24.516C1550.32 24.516 1550.16 24.4507 1550.03 24.32C1549.9 24.1893 1549.83 24.0307 1549.83 23.844C1549.83 23.6573 1549.9 23.4987 1550.03 23.368C1550.16 23.2373 1550.32 23.172 1550.5 23.172C1550.69 23.172 1550.85 23.2373 1550.98 23.368C1551.11 23.4987 1551.18 23.6573 1551.18 23.844C1551.18 24.0307 1551.11 24.1893 1550.98 24.32ZM1550.04 33V26H1550.97V33H1550.04ZM1556.36 25.832C1557.4 25.832 1558.23 26.2007 1558.87 26.938C1559.51 27.666 1559.83 28.5293 1559.83 29.528C1559.83 29.6307 1559.82 29.7753 1559.8 29.962H1553.66C1553.75 30.6713 1554.05 31.236 1554.55 31.656C1555.07 32.0667 1555.7 32.272 1556.44 32.272C1556.98 32.272 1557.43 32.1647 1557.82 31.95C1558.21 31.726 1558.5 31.4367 1558.7 31.082L1559.51 31.558C1559.2 32.0527 1558.78 32.4447 1558.25 32.734C1557.72 33.0233 1557.11 33.168 1556.43 33.168C1555.33 33.168 1554.43 32.8227 1553.74 32.132C1553.05 31.4413 1552.71 30.564 1552.71 29.5C1552.71 28.4547 1553.05 27.582 1553.73 26.882C1554.41 26.182 1555.29 25.832 1556.36 25.832ZM1556.36 26.728C1555.63 26.728 1555.02 26.9473 1554.53 27.386C1554.04 27.8153 1553.75 28.3753 1553.66 29.066H1558.88C1558.79 28.3287 1558.5 27.7547 1558.03 27.344C1557.55 26.9333 1557 26.728 1556.36 26.728ZM1561.96 27.834C1561.96 28.1513 1562.1 28.4033 1562.38 28.59C1562.66 28.7767 1563 28.9213 1563.4 29.024C1563.8 29.1267 1564.2 29.2433 1564.6 29.374C1565 29.4953 1565.34 29.7053 1565.62 30.004C1565.9 30.2933 1566.04 30.676 1566.04 31.152C1566.04 31.7493 1565.81 32.2347 1565.33 32.608C1564.86 32.9813 1564.26 33.168 1563.51 33.168C1562.84 33.168 1562.26 33.0187 1561.79 32.72C1561.32 32.4213 1561 32.034 1560.81 31.558L1561.59 31.096C1561.72 31.46 1561.96 31.7493 1562.29 31.964C1562.64 32.1693 1563.04 32.272 1563.51 32.272C1563.97 32.272 1564.35 32.1833 1564.66 32.006C1564.97 31.8193 1565.12 31.5347 1565.12 31.152C1565.12 30.8347 1564.98 30.5827 1564.7 30.396C1564.42 30.2093 1564.08 30.0647 1563.68 29.962C1563.28 29.8593 1562.88 29.7473 1562.47 29.626C1562.07 29.4953 1561.73 29.2853 1561.45 28.996C1561.17 28.6973 1561.03 28.31 1561.03 27.834C1561.03 27.2647 1561.26 26.7887 1561.7 26.406C1562.16 26.0233 1562.74 25.832 1563.43 25.832C1564 25.832 1564.5 25.9627 1564.92 26.224C1565.35 26.476 1565.67 26.8213 1565.88 27.26L1565.11 27.708C1564.84 27.0547 1564.28 26.728 1563.43 26.728C1563.03 26.728 1562.68 26.826 1562.39 27.022C1562.1 27.2087 1561.96 27.4793 1561.96 27.834Z" fill="#BDBDBD"/>
</g>
<defs>
<clipPath id="clip0_1190_15959">
<rect width="345" height="16" fill="white" transform="translate(1222 20)"/>
</clipPath>
</defs>
</svg>
