<svg width="30" height="31" viewBox="0 0 30 31" fill="none" xmlns="http://www.w3.org/2000/svg">
<circle cx="15" cy="15.5" r="15" fill="white"/>
<path fill-rule="evenodd" clip-rule="evenodd" d="M9.15697 11.6292C10.1896 11.6292 11.0268 10.8657 11.0268 9.92294C11.0268 8.9793 10.1896 8.21484 9.15697 8.21484C8.1233 8.21484 7.28613 8.9793 7.28613 9.92294C7.28613 10.8657 8.1233 11.6292 9.15697 11.6292ZM7.71472 22.6054H11.0697V12.9292H7.71472V22.6054ZM17.5589 15.0289C16.3036 15.0289 15.7786 16.114 15.7786 17.2236V22.4817H12.4291V12.8056H15.7786V14.1082C16.6599 12.9702 17.4257 12.5006 18.8142 12.5006C20.2039 12.5006 22.4629 13.1594 22.4629 16.981V22.4817H19.1229V17.1971C19.1229 16.114 18.8142 15.0289 17.5589 15.0289Z" fill="#88816E"/>
</svg>
