<svg width="201" height="15" viewBox="0 0 201 15" fill="none" xmlns="http://www.w3.org/2000/svg">
<path d="M0 15L10.8934 1.30869C11.5336 0.504377 12.499 0 13.5189 0H16.1017L19.8354 15H16.6462C15.9325 15 15.31 14.5091 15.1334 13.8092L14.7875 12.4363H9.77936L10.2194 11.6022C10.9258 10.2621 12.3018 9.42648 13.8 9.42648H14.0531L12.8478 4.59759L5.70131 13.7943C5.1097 14.5568 4.20461 15.0015 3.24801 15.0015H0V15Z" fill="#A29B89"/>
<path d="M179.913 0.0234375H164.177L163.847 1.21425C163.51 2.43191 164.416 3.63615 165.664 3.62869L176.281 3.55557L175.641 6.0685H164.957C163.542 6.06403 162.378 6.98772 162.009 8.37103L160.227 15.0011H175.582C177.046 15.0011 178.315 13.9699 178.631 12.5195L179.348 9.27085C179.516 8.50533 179.011 7.75473 178.246 7.63386L178.305 7.61446C179.336 7.26528 180.134 6.17744 180.38 5.10302L181.13 1.57686C181.311 0.782988 180.717 0.0249297 179.913 0.0249297V0.0234375ZM174.371 11.6928H165.581L166.119 9.27383H174.954L174.371 11.6928Z" fill="white"/>
<path d="M36.9448 14.9991L37.3157 13.9157C37.7381 12.6816 36.8345 11.3923 35.5453 11.3923H25.8439L27.2361 6.08594H25.2243C23.81 6.08594 22.5723 7.04992 22.2074 8.43472L21.1065 12.607C20.7887 13.8143 21.6849 14.9991 22.9167 14.9991H36.9448Z" fill="#A29B89"/>
<path d="M40.6494 1.10277L40.9599 0H26.7669C25.385 0 24.1679 0.91922 23.7735 2.26224L23.4395 3.39783H37.6471C39.0408 3.39783 40.2667 2.4607 40.6494 1.10277Z" fill="#A29B89"/>
<path d="M106.247 1.10277L106.558 0H92.3646C90.9827 0 89.7656 0.91922 89.3712 2.26224L89.0371 3.39783H103.245C104.638 3.39783 105.864 2.4607 106.247 1.10277Z" fill="#A29B89"/>
<path d="M100.872 11.3848H91.1706L91.8211 9.46424H98.501C99.8947 9.46424 101.121 8.52711 101.503 7.16917L101.814 6.06641H90.6996C89.2853 6.06641 88.0476 7.03039 87.6827 8.41519L86.4317 12.6009C86.1139 13.8081 87.0101 14.993 88.2419 14.993H102.27L102.641 13.9096C103.063 12.6755 102.16 11.3862 100.87 11.3862L100.872 11.3848Z" fill="#A29B89"/>
<path d="M200.688 1.1223L200.999 0.0195312H186.806C185.424 0.0195312 184.207 0.938751 183.813 2.28177L183.479 3.41736H197.686C199.08 3.41736 200.306 2.48024 200.688 1.1223Z" fill="white"/>
<path d="M195.481 11.3909H185.78L186.28 9.48377H192.96C194.354 9.48377 195.58 8.54664 195.963 7.1887L196.273 6.08594H185.159C183.745 6.08594 182.507 7.04993 182.142 8.43472L181.041 12.607C180.723 13.8143 181.619 14.9991 182.851 14.9991H196.879L197.25 13.9157C197.673 12.6816 196.769 11.3923 195.48 11.3923L195.481 11.3909Z" fill="white"/>
<path d="M62.4021 0L58.3682 15H62.6905L66.6758 0H62.4021Z" fill="#A29B89"/>
<path d="M156.961 0L152.824 15H157.145L161.235 0H156.961Z" fill="white"/>
<path d="M45.4387 15H49.7154L52.7618 3.4426H56.8443C58.2394 3.4426 59.4639 2.50547 59.848 1.14604L60.1703 0H45.3636C43.8714 0 42.588 1.06994 42.2996 2.55322L42.1348 3.39783H48.4851L45.4387 15Z" fill="#A29B89"/>
<path d="M118.585 15H122.862L125.818 3.4426H129.901C131.296 3.4426 132.521 2.50547 132.905 1.14604L133.227 0H118.42C116.928 0 115.645 1.06994 115.356 2.55322L115.191 3.39783H121.542L118.585 15Z" fill="white"/>
<path d="M68.373 0L71.5475 12.0424L75.0162 7.57163L73.4327 1.19678C73.2576 0.493932 72.6336 0 71.9183 0L68.373 0Z" fill="#A29B89"/>
<path d="M88.3397 0L76.8591 15H72.0967L83.1564 0.83267C83.5714 0.305909 84.1998 0 84.865 0H88.3412H88.3397Z" fill="#A29B89"/>
<path d="M131.597 14.9998L133.335 8.41154C133.702 7.02823 134.939 6.06723 136.352 6.06723H147.808L148.352 3.63339H134.414L134.71 2.42019C135.054 1.00555 136.305 0.0117188 137.743 0.0117188H151.028C152.257 0.0117188 153.153 1.19208 152.84 2.39632L151.731 6.71636C151.366 8.12055 150.104 9.09349 148.672 9.07559L147.625 9.06216L149.656 14.9983H144.979L143.038 8.97262L137.702 8.92786L136.229 14.9983H131.596L131.597 14.9998Z" fill="white"/>
</svg>
