<svg width="153" height="44" viewBox="0 0 153 44" fill="none" xmlns="http://www.w3.org/2000/svg">
<g clip-path="url(#clip0_1328_5285)">
<path d="M64.6416 43.5222L73.9211 31.6503C74.4986 30.9346 75.3696 30.5176 76.2904 30.5176H78.6221L81.9916 43.5209H79.1134C78.4699 43.5209 77.9072 43.085 77.7484 42.4622L77.4361 41.546H72.9155L73.3126 40.8034C73.9507 39.6115 75.1919 38.8676 76.5449 38.8676H76.7724L75.6846 34.5722L69.7868 42.446C69.2524 43.124 68.4366 43.5195 67.5723 43.5195H64.6416V43.5222Z" fill="#8E836E"/>
<path d="M74.7363 0.496094L84.9622 14.4855L82.3101 25.9538H90.0374L92.8672 14.4855L110.846 0.496094H100.212L90.8021 7.63136L85.4468 0.496094H74.7363Z" fill="#271F18"/>
<path d="M109.947 25.9146L116.178 0.421875H121.836C123.856 0.421875 125.608 1.81557 126.06 3.78368L129.754 18.2695L142.938 2.02677C143.76 1.0111 144.999 0.421875 146.306 0.421875H152.579L146.291 25.9146H138.323L141.485 13.7844L132.412 25.9146H124.049L120.677 13.6821L118.233 23.598C117.821 24.9729 116.554 25.9132 115.119 25.9132H109.947V25.9146Z" fill="#271F18"/>
<path d="M63.1267 11.3187H53.3653L53.1338 12.2187C52.5158 14.624 54.3413 16.9634 56.8264 16.9526L59.6293 16.9392L58.9144 19.7454H43.8852L46.1227 10.6797H42.6319C40.1791 10.6797 38.0306 12.3263 37.3965 14.6953L35.6639 21.8238C35.112 23.8875 36.6668 25.9121 38.8046 25.9121H60.2727C62.1601 25.9121 63.8308 24.6919 64.4043 22.8947L66.2244 15.5536C66.8921 13.4577 65.3264 11.3187 63.1267 11.3187Z" fill="#271F18"/>
<path d="M69.2699 2.37885L69.8097 0.494141H45.1847C42.7884 0.494141 40.6762 2.06675 39.9923 4.36177L39.4121 6.30433H64.06C66.4791 6.30433 68.6048 4.70212 69.2699 2.37885Z" fill="#271F18"/>
<path d="M50.5363 31.4983L50.8177 30.5176H37.0499C35.8033 30.5176 34.6038 31.3355 34.2471 32.5287L33.998 33.539H47.8264C49.0851 33.539 50.1903 32.7063 50.5363 31.4969V31.4983Z" fill="#8E836E"/>
<path d="M55.2256 43.5222H59.0852L61.5596 33.5807H65.2428C66.5015 33.5807 67.6081 32.7467 67.9527 31.5373L68.2435 30.5176H54.881C53.5348 30.5176 52.3757 31.4687 52.1159 32.7884L51.9678 33.539H57.6986L55.2243 43.5209L55.2256 43.5222Z" fill="#8E836E"/>
<path d="M86.5176 43.5222H90.3772L92.8516 33.5807H96.5348C97.7935 33.5807 98.9001 32.7467 99.2448 31.5373L99.5355 30.5176H86.173C84.8268 30.5176 83.6677 31.4687 83.4078 32.7884L83.2598 33.539H88.9906L86.5163 43.5209L86.5176 43.5222Z" fill="#8E836E"/>
<path d="M31.5486 43.5218L31.7748 42.6017C32.0386 41.2873 33.2044 40.3443 34.5453 40.3443H44.4709L44.9583 38.4878H34.9613C33.887 38.4878 33.0846 37.4991 33.3068 36.4484L33.5921 35.0938H47.4959C48.593 35.0938 49.3994 36.1215 49.1383 37.187L48.1098 41.3748C47.8001 42.6339 46.6706 43.5205 45.3715 43.5205H31.5459L31.5486 43.5218Z" fill="#8E836E"/>
<path d="M103.189 30.5059L99.9297 43.5226H103.83L107.046 30.5059H103.189Z" fill="#8E836E"/>
<path d="M109.973 32.8155L107.949 41.0175C107.597 42.2753 108.543 43.5211 109.849 43.5211H121.358C122.624 43.5211 123.736 42.6762 124.074 41.4561L126.29 32.6944C126.589 31.6182 125.779 30.5527 124.66 30.5527H112.959C111.568 30.5527 110.348 31.4769 109.973 32.8155ZM120.554 40.2992H111.839L113.634 33.6885H122.151L120.554 40.2992Z" fill="#8E836E"/>
<path d="M129.841 30.5059L126.646 43.5213H130.572L132.581 35.4268L138.274 43.5145L141.914 43.5213L145.126 30.5059H143.366C142.064 30.5059 140.932 31.3964 140.626 32.661L139.405 37.8806L134.034 30.5059H129.841Z" fill="#8E836E"/>
<path d="M18.5059 7.62449L18.5234 7.55588C18.1006 7.55454 18.0656 7.51283 18.0522 7.49535C18.0279 7.46575 17.9929 7.44692 17.9741 7.4375C17.8556 7.51553 17.8085 7.6783 17.791 7.77247L17.9889 7.67965C18.0508 7.65005 18.1195 7.63794 18.1881 7.64332L18.4641 7.65543C18.4843 7.65678 18.5005 7.64333 18.5059 7.62449Z" fill="#8E836E"/>
<path d="M28.1355 14.9656C27.4543 9.52398 22.8462 3.925 15.3074 3.76761C15.3074 3.76761 3.68284 3.66268 2.37432 16.0122C2.37432 16.0122 2.11181 20.2511 4.57404 23.9654L15.3088 40.5524L26.0435 23.9654C26.0435 23.9654 28.8181 20.4071 28.1382 14.9656H28.1355ZM20.5833 28.9509L20.5806 28.9738C20.5711 29.0693 20.5617 29.15 20.4594 29.2226C20.3436 29.3087 20.1767 29.3531 20.0017 29.3531C19.8401 29.3531 19.6732 29.3155 19.5305 29.2415C19.369 29.1567 19.2801 28.9738 19.3151 28.7962L19.3192 28.7747C19.3245 28.7505 19.3272 28.737 19.3232 28.7236C19.3057 28.6913 19.1159 28.581 19.0741 28.5621L19.0863 28.5366L19.0714 28.5621L19.0472 28.5473C18.8964 28.4491 18.8466 28.3307 18.9005 28.1949C18.9139 28.1612 18.9328 28.1276 18.9611 28.0899C18.9786 28.0657 18.992 28.0388 19.0068 28.0092C19.0324 27.9568 19.062 27.8989 19.1199 27.8599L19.2141 27.6352C19.1616 27.4523 19.1374 27.2666 19.1213 27.0931C19.1145 27.0743 19.1011 27.0272 19.0755 26.894C19.0243 26.7285 18.9462 26.5658 18.8709 26.4097C18.8211 26.3061 18.7699 26.1998 18.7268 26.0909C18.6649 25.9389 18.5855 25.7909 18.5087 25.6496C18.4858 25.6066 18.463 25.5635 18.4401 25.5205C18.4293 25.5003 18.4078 25.4721 18.3835 25.4384C18.3378 25.3765 18.2799 25.2985 18.2516 25.2232C18.2233 25.1546 18.1372 24.9124 18.1251 24.8438L17.981 24.2236C17.9702 24.1927 17.9608 24.1604 17.9541 24.1281C17.9393 24.0663 17.9245 24.0084 17.8881 23.9667C17.7548 23.8107 17.495 23.3829 17.3389 23.1273C17.2864 23.0412 17.2419 22.9685 17.2325 22.9564L17.2298 22.951C17.2298 22.951 17.0225 22.5542 16.9498 22.4197C16.9027 22.3322 16.8744 22.2797 16.8502 22.2676C16.8313 22.2582 16.795 22.2703 16.7223 22.2972C16.6604 22.3201 16.6079 22.3201 16.5648 22.2972C16.5177 22.2703 16.4867 22.2165 16.4692 22.1304C16.4652 22.1102 16.4584 22.0901 16.4477 22.0699C16.4127 21.9999 16.3777 21.93 16.3427 21.86C16.2552 21.6825 16.1636 21.4995 16.0667 21.3246C16.0465 21.2883 16.0277 21.2506 16.0075 21.2143C15.9267 21.0609 15.8513 20.917 15.7221 20.8027C15.6547 20.7421 15.5794 20.7152 15.508 20.7246C15.438 20.734 15.3774 20.7784 15.3303 20.8524C15.2926 20.9116 15.259 20.9748 15.2267 21.0367C15.1593 21.1618 15.0907 21.291 14.9884 21.3973C14.9264 21.4618 14.878 21.5372 14.8349 21.6085C14.7097 21.8129 14.536 22.1224 14.4593 22.3215C14.4405 22.3685 14.4216 22.3941 14.3947 22.4049C14.3637 22.4183 14.3355 22.4049 14.3139 22.3954C14.3045 22.3914 14.2964 22.3874 14.2856 22.3847C14.2345 22.3712 14.1604 22.4667 14.1335 22.5031C14.1268 22.5111 14.1214 22.5192 14.1174 22.5246C13.9626 22.764 13.7727 22.9752 13.6072 23.1542C13.5452 23.2228 13.4429 23.3842 13.3621 23.5147C13.3096 23.5981 13.2693 23.664 13.245 23.695C13.0431 23.9748 12.965 24.2586 12.8829 24.56C12.8519 24.6757 12.8183 24.794 12.7779 24.9178C12.7658 24.9676 12.7375 25.0496 12.6944 25.1573C12.6621 25.238 12.6446 25.281 12.6325 25.3039C12.5544 25.4801 12.4333 25.6294 12.3175 25.7747L12.2865 25.8124C12.164 25.9456 11.818 26.8254 11.7925 26.9397L11.5407 27.7617L11.5488 27.7967C11.573 27.9003 11.5973 27.9985 11.6484 28.0886C11.7305 28.2325 11.7076 28.4545 11.5973 28.5742C11.5367 28.6388 11.4761 28.6617 11.4276 28.6792C11.363 28.7034 11.332 28.7141 11.3213 28.807L11.3186 28.8164C11.3119 28.8352 11.3065 28.8648 11.3024 28.8944C11.289 28.9859 11.2688 29.1096 11.1503 29.1863C10.9053 29.3451 10.7128 29.337 10.4462 29.3262H10.4247C10.4059 29.3249 10.3897 29.3249 10.3762 29.3249C10.3076 29.3249 10.2766 29.3222 10.177 29.2711C9.96698 29.1621 9.97641 28.8931 10.0154 28.7518C10.0195 28.7383 10.0235 28.7235 10.0303 28.7114C10.0329 28.6913 10.0437 28.6724 10.0639 28.6401C10.0774 28.62 10.0895 28.5984 10.103 28.5783C10.1326 28.5298 10.1635 28.4801 10.1999 28.4357C10.2807 28.3361 10.3776 28.2124 10.4557 28.1115C10.4987 28.0563 10.5364 28.0065 10.5634 27.9729C10.5714 27.9568 10.5876 27.9393 10.6105 27.9137C10.6751 27.8411 10.7828 27.7213 10.8043 27.537V27.5316L11.0305 26.7016C11.0695 26.5738 11.0978 26.4447 11.1153 26.3169C11.153 26.0438 11.227 25.5931 11.2755 25.4411C11.297 25.2904 11.464 24.4564 11.5246 24.2156C11.5434 24.1416 11.6821 23.7219 11.9069 23.4999C12.0267 23.3815 12.1048 23.2591 12.1465 23.1259C12.2004 22.9537 12.2811 22.8004 12.3538 22.6726C12.3861 22.6161 12.4238 22.5407 12.4319 22.4573C12.4359 22.3928 12.4481 22.3322 12.4588 22.273C12.4669 22.23 12.475 22.1896 12.4804 22.1479C12.4817 22.1345 12.4911 21.9744 12.4938 21.8668C12.4844 21.8627 12.4736 21.8573 12.4656 21.8479C12.4467 21.8251 12.4508 21.7968 12.4548 21.7753C12.4548 21.7712 12.4561 21.7659 12.4575 21.7618C12.4575 21.7174 12.5046 21.5197 12.514 21.4807H12.5167C12.5423 21.295 12.9489 20.1367 13.1373 19.7238C13.1764 19.6403 13.1858 19.4803 13.1912 19.3942C13.1952 19.3377 13.1952 19.3256 13.2019 19.3148C13.2706 19.1897 13.3285 19.0565 13.3837 18.9274C13.4604 18.7484 13.5398 18.5628 13.6516 18.396C13.6745 18.361 13.6866 18.3193 13.6866 18.2763C13.6866 18.2426 13.6947 18.2157 13.7054 18.1848C13.7539 18.0368 13.7606 17.9911 13.7674 17.9467C13.7727 17.9103 13.7781 17.8727 13.8024 17.7879C13.8091 17.7637 13.8333 17.7529 13.8535 17.7435C13.8575 17.7422 13.8629 17.7395 13.867 17.7368C13.9504 17.4987 13.941 17.0467 13.9356 16.7763V16.7319C13.8872 16.4911 13.7539 16.2826 13.626 16.0808C13.591 16.027 13.5573 15.9718 13.5237 15.918C13.4456 15.7875 13.3945 15.6826 13.3514 15.501C13.3446 15.4754 13.3016 15.318 13.2652 15.2252C13.2383 15.1647 13.2127 15.1055 13.1979 15.0907C13.1804 15.1001 13.14 15.1512 13.0983 15.2037L13.0835 15.2225C13.0027 15.3221 12.9098 15.4108 12.8035 15.4835C12.7173 15.5427 12.6325 15.6046 12.5477 15.6664C12.3606 15.801 12.168 15.9409 11.9648 16.0593C11.8948 16.0996 11.8476 16.1602 11.7978 16.2247C11.7736 16.2543 11.7494 16.2866 11.7225 16.3149C11.4007 16.7992 10.943 17.196 10.1003 17.8471C10.0908 17.8538 10.0168 17.9238 9.9616 17.9749C9.91448 18.0193 9.87006 18.0597 9.85659 18.0731C9.70986 18.2036 9.73005 18.3637 9.77178 18.5588C9.78794 18.6327 9.78928 18.7067 9.79063 18.7794C9.79332 18.8776 9.79467 18.9704 9.82967 19.0592C9.85929 19.1345 9.89429 19.2502 9.90236 19.3269C9.9064 19.3646 9.90506 19.3915 9.89025 19.4264C9.85659 19.4816 9.81351 19.5099 9.76774 19.5112C9.71659 19.5125 9.66408 19.4789 9.62235 19.4184C9.56985 19.3404 9.54831 19.2516 9.52677 19.1655C9.51735 19.1278 9.50792 19.0874 9.49581 19.0511C9.49311 19.0417 9.49042 19.0336 9.48773 19.0242C9.47427 18.9771 9.46888 18.9664 9.43927 18.9623C9.34772 18.9435 9.30195 18.9462 9.28984 18.9556L9.2858 18.9583C9.12425 19.0511 9.04213 19.1614 9.01655 19.3148C9.02059 19.3282 9.02463 19.3417 9.02867 19.3552C9.04079 19.3942 9.05425 19.4332 9.05694 19.4749C9.06233 19.5354 9.05021 19.5785 9.02194 19.6067C9.00309 19.6242 8.97886 19.635 8.9479 19.6363C8.9452 19.6565 8.94117 19.6753 8.93847 19.6942C8.92636 19.7681 8.91424 19.8435 8.89943 19.9188C8.89136 19.9578 8.8752 20.0385 8.78366 20.0385H8.78097C8.75943 20.0372 8.70019 20.0318 8.68808 19.9605V19.9551C8.68673 19.9215 8.67731 19.8865 8.66923 19.8704C8.65577 19.8946 8.63827 19.9403 8.62884 19.9659C8.61404 20.0049 8.60596 20.0251 8.59788 20.0372C8.57096 20.0776 8.53057 20.0937 8.4848 20.0843C8.42018 20.0708 8.42153 20.013 8.42287 19.9874V19.978C8.42287 19.9242 8.42287 19.8717 8.42287 19.8179C8.42287 19.7184 8.42287 19.6148 8.42018 19.5125C8.4148 19.3699 8.43768 19.2435 8.48749 19.1345C8.52115 19.0605 8.54403 18.9798 8.56557 18.9018C8.59788 18.7874 8.63154 18.6691 8.70019 18.5628C8.71231 18.5292 8.73385 18.4834 8.78231 18.4538C8.8052 18.4242 8.82808 18.3933 8.85097 18.3637C8.90347 18.2964 8.95732 18.2265 9.00309 18.1552C9.38003 17.5794 9.80005 16.9835 10.3237 16.2839C10.3722 16.2193 10.418 16.1521 10.4637 16.0875C10.597 15.8978 10.7343 15.7014 10.9188 15.5467C11.0009 15.4673 11.1005 15.4082 11.1974 15.3517C11.2459 15.3234 11.297 15.2925 11.3442 15.2615C11.4371 15.1256 11.5299 14.9911 11.6228 14.8553L11.6794 14.7732C11.7696 14.6427 11.9298 14.5458 12.0873 14.4584C12.1721 14.4113 12.2017 14.3414 12.2192 14.2526C12.2569 13.9136 12.6163 13.5598 12.9125 13.471C13.0094 13.4266 13.1239 13.3768 13.241 13.3512C13.3864 13.319 13.4968 13.2181 13.6125 13.1104L13.6448 13.0809C13.7041 13.0257 13.9181 12.8844 14.046 12.8145C14.0891 12.7916 14.1335 12.7714 14.1766 12.7513C14.3112 12.6907 14.4378 12.6329 14.4997 12.497C14.5024 12.4903 14.5064 12.4836 14.5091 12.4768C14.5226 12.4486 14.5347 12.4257 14.532 12.4001C14.5105 12.1997 14.4889 11.9993 14.466 11.7975C14.4633 11.7746 14.458 11.7733 14.4526 11.7706C14.3476 11.7356 14.2789 11.5634 14.2641 11.4114C14.2587 11.3522 14.2614 11.2917 14.2655 11.2338C14.2655 11.2136 14.2681 11.1921 14.2681 11.1719C14.2681 11.1369 14.283 11.0885 14.3153 11.0657C14.3301 11.0549 14.3476 11.0509 14.3651 11.0535C14.3664 11.0441 14.3678 11.0239 14.3651 10.9863C14.3624 10.9446 14.3597 10.9042 14.357 10.8625C14.3516 10.7805 14.3462 10.6984 14.3395 10.6177C14.3287 10.498 14.3745 10.3325 14.4445 10.2424C14.4957 10.1603 14.532 10.1159 14.637 10.0083L14.641 10.0042C14.7461 9.92621 14.9682 9.81859 15.0947 9.82397C15.0947 9.82397 15.1001 9.82397 15.1055 9.82397C15.4555 9.79438 15.753 9.92352 15.9415 10.1885C16.0694 10.3688 16.1609 10.5101 16.1784 10.6944C16.1811 10.728 16.1852 10.8033 16.1838 10.841C16.1838 10.8666 16.173 10.884 16.165 10.8975C16.1596 10.9056 16.1569 10.9123 16.1555 10.9204C16.1488 10.9957 16.1448 11.0778 16.1421 11.1558C16.134 11.3374 16.1259 11.5257 16.0748 11.7006C16.0465 11.7961 16.0236 11.897 16.0021 11.9925C15.9698 12.1338 15.9375 12.2791 15.8863 12.419L15.9105 12.4768C15.9563 12.5172 16.0196 12.5266 16.0855 12.536C16.1125 12.5401 16.1407 12.5441 16.1677 12.5495C16.1771 12.536 16.1838 12.5199 16.1932 12.5051C16.2107 12.4728 16.2282 12.4392 16.2565 12.4109C16.2592 12.4082 16.2632 12.4028 16.2632 12.3988L16.2659 12.3746C16.2686 12.3436 16.2754 12.3167 16.2848 12.2939C16.3804 12.0665 16.5809 11.9602 16.7963 11.862C16.9296 11.8015 17.071 11.7665 17.2164 11.7585L17.2837 11.7154C17.3577 11.3441 17.6054 11.0804 17.845 10.8248L17.8666 10.802C17.9649 10.697 18.0887 10.6311 18.2179 10.5666L18.2301 10.5558C18.3028 10.4334 18.323 10.2989 18.3337 10.1845C18.3512 9.98675 18.3768 9.80783 18.4118 9.63833C18.4226 9.58855 18.4199 9.5751 18.4172 9.57241C18.4172 9.57241 18.4145 9.57241 18.4078 9.57241C18.3983 9.57241 18.3822 9.57241 18.3526 9.57914C17.9527 9.65582 17.5704 9.46344 17.4021 9.09888C17.285 8.84597 17.2689 8.58768 17.3537 8.32804C17.3631 8.29845 17.3631 8.26616 17.3523 8.23657C17.2042 7.82492 17.3644 7.2895 17.7185 7.0191C17.7293 7.01103 17.7414 7.00296 17.7548 6.99489C17.7979 6.96798 17.8222 6.94915 17.8222 6.91014C17.7858 6.7635 17.8316 6.66395 17.9622 6.60611C18.2112 6.49714 18.4118 6.45006 18.611 6.45678C18.7228 6.46082 18.743 6.5375 18.747 6.58728C18.9395 6.64109 19.0593 6.77023 19.0876 6.95588C19.0943 6.96126 19.1011 6.96664 19.1064 6.96933C19.303 7.05408 19.342 7.22762 19.3649 7.39712C19.3932 7.61236 19.4282 7.83164 19.4619 8.04419C19.4942 8.24733 19.5265 8.45719 19.5547 8.66436C19.6234 9.16883 19.5965 9.65582 19.4767 10.1119C19.439 10.2531 19.3999 10.4186 19.408 10.5881C19.4134 10.689 19.3393 10.8343 19.1832 11.0334C19.1778 11.0401 19.1751 11.0441 19.1724 11.0468C19.0822 11.1746 19.0163 11.2715 19.0001 11.367V11.3778C18.9772 11.5029 18.9503 11.6374 18.9018 11.6885C18.8453 11.8123 18.8116 11.9037 18.7807 11.9858C18.7201 12.1486 18.677 12.2656 18.5101 12.4862C18.4737 12.5347 18.1951 12.8696 18.1318 12.9181C18.0901 12.9504 18.0483 12.9813 18.0066 13.0136C17.8397 13.1387 17.6835 13.2557 17.5489 13.4104C17.5704 13.4992 17.635 13.7683 17.6485 13.8799C17.662 13.9929 17.6404 14.1598 17.6148 14.3535C17.592 14.5337 17.565 14.7396 17.5664 14.9225C17.5664 15.1041 17.456 15.5978 17.4089 15.696C17.3375 15.8413 17.3119 16.1171 17.2931 16.3176C17.2877 16.3714 17.2837 16.4211 17.2783 16.4628C17.2527 16.6754 17.2527 16.8987 17.2756 17.1462L17.2783 17.1718C17.2931 17.3252 17.3093 17.4839 17.2473 17.6399C17.2473 17.6426 17.2527 17.6507 17.2567 17.6547C17.2662 17.6668 17.2796 17.6843 17.2837 17.7086C17.2917 17.8 17.2985 17.8108 17.3146 17.8377C17.3214 17.8485 17.3281 17.8606 17.3375 17.8794C17.3833 17.9722 17.5987 18.5157 17.6418 18.7067C17.6673 18.8197 17.7091 18.9193 17.7522 19.0242C17.7966 19.1332 17.8437 19.2462 17.8733 19.3767C17.9245 19.6081 17.9891 19.7883 18.0766 19.9444C18.1385 20.056 18.1695 20.1744 18.1991 20.2901C18.2153 20.3547 18.2328 20.4206 18.2543 20.4838V20.4906C18.2637 20.5403 18.3122 20.7677 18.3337 20.8511C18.358 20.9479 18.3889 21.0435 18.4185 21.1349C18.4549 21.2479 18.4939 21.365 18.5195 21.4887C18.5289 21.5331 18.5383 21.5641 18.5464 21.5923C18.5626 21.6448 18.576 21.6905 18.5855 21.7995C18.5895 21.8439 18.5464 21.8573 18.5303 21.8627C18.5303 21.8627 18.5289 21.8627 18.5276 21.8627L18.537 21.895C18.5572 21.969 18.5841 22.0605 18.5935 22.1035C18.6097 22.1789 18.6259 22.3524 18.642 22.6188C18.6434 22.651 18.6514 22.682 18.6635 22.7129C18.7295 22.873 18.8197 23.0963 18.8412 23.1878C18.8736 23.3237 18.9328 23.4017 19.0028 23.4932C19.0513 23.5564 19.1011 23.621 19.1455 23.7111L19.3165 24.0474C19.3461 24.1053 19.3717 24.1658 19.3932 24.229L19.412 24.2855C19.4592 24.4201 19.5063 24.5586 19.5413 24.7739C19.5413 24.7779 19.5803 25.0927 19.5857 25.3577C19.5871 25.4263 19.6019 25.4936 19.6167 25.5662C19.6247 25.6025 19.6315 25.6389 19.6382 25.6752C19.688 25.8164 19.7701 26.7057 19.7728 26.7971L19.7836 26.9209C19.7876 26.9626 19.7984 27.003 19.8146 27.0433C19.8765 27.1886 19.9451 27.381 19.9748 27.4832L20.0017 27.5397C20.0246 27.5868 20.0475 27.6339 20.069 27.681C20.0757 27.6944 20.0838 27.6971 20.1094 27.7038C20.1215 27.7065 20.135 27.7106 20.1484 27.7173C20.2332 27.759 20.2386 27.868 20.2427 27.9393C20.248 28.063 20.3032 28.1626 20.3611 28.2675C20.3773 28.2958 20.3921 28.324 20.4069 28.3536C20.4352 28.4088 20.4702 28.4612 20.5132 28.5231C20.6156 28.6684 20.6048 28.772 20.5846 28.959L20.5833 28.9509Z" fill="#8E836E"/>
</g>
<defs>
<clipPath id="clip0_1328_5285">
<rect width="152.156" height="43.2326" fill="white" transform="translate(0.421875 0.421875)"/>
</clipPath>
</defs>
</svg>
