<svg width="201" height="16" viewBox="0 0 201 16" fill="none" xmlns="http://www.w3.org/2000/svg">
<g clip-path="url(#clip0_1190_15536)">
<path d="M0 15.5L10.8934 1.80869C11.5336 1.00438 12.499 0.5 13.5189 0.5H16.1017L19.8354 15.5H16.6462C15.9325 15.5 15.31 15.0091 15.1334 14.3092L14.7875 12.9363H9.77936L10.2194 12.1022C10.9258 10.7621 12.3018 9.92648 13.8 9.92648H14.0531L12.8478 5.09759L5.70131 14.2943C5.1097 15.0568 4.20461 15.5015 3.24801 15.5015H0V15.5Z" fill="#88816E"/>
<path d="M179.913 0.521484H164.177L163.847 1.71229C163.51 2.92996 164.416 4.1342 165.664 4.12674L176.281 4.05362L175.641 6.56655H164.957C163.542 6.56207 162.378 7.48577 162.009 8.86908L160.227 15.4991H175.582C177.046 15.4991 178.315 14.468 178.631 13.0175L179.348 9.7689C179.516 9.00338 179.011 8.25278 178.246 8.13191L178.305 8.11251C179.336 7.76333 180.134 6.67548 180.38 5.60107L181.13 2.07491C181.311 1.28103 180.717 0.522977 179.913 0.522977V0.521484ZM174.371 12.1908H165.581L166.119 9.77188H174.954L174.371 12.1908Z" fill="#261F18"/>
<path d="M36.9448 15.4991L37.3157 14.4157C37.7381 13.1816 36.8345 11.8923 35.5453 11.8923H25.8439L27.2361 6.58594H25.2243C23.81 6.58594 22.5723 7.54992 22.2074 8.93472L21.1065 13.107C20.7887 14.3143 21.6849 15.4991 22.9167 15.4991H36.9448Z" fill="#88816E"/>
<path d="M40.6494 1.60277L40.9599 0.5H26.7669C25.385 0.5 24.1679 1.41922 23.7735 2.76224L23.4395 3.89783H37.6471C39.0408 3.89783 40.2667 2.9607 40.6494 1.60277Z" fill="#88816E"/>
<path d="M106.247 1.60277L106.558 0.5H92.3646C90.9827 0.5 89.7656 1.41922 89.3712 2.76224L89.0371 3.89783H103.245C104.638 3.89783 105.864 2.9607 106.247 1.60277Z" fill="#88816E"/>
<path d="M100.872 11.8867H91.1706L91.8211 9.96619H98.501C99.8947 9.96619 101.121 9.02906 101.503 7.67113L101.814 6.56836H90.6996C89.2853 6.56836 88.0476 7.53235 87.6827 8.91715L86.4317 13.1029C86.1139 14.3101 87.0101 15.4949 88.2419 15.4949H102.27L102.641 14.4116C103.063 13.1775 102.16 11.8882 100.87 11.8882L100.872 11.8867Z" fill="#88816E"/>
<path d="M200.688 1.62425L200.999 0.521484H186.806C185.424 0.521484 184.207 1.4407 183.813 2.78372L183.479 3.91932H197.686C199.08 3.91932 200.306 2.98219 200.688 1.62425Z" fill="#261F18"/>
<path d="M195.481 11.8909H185.78L186.28 9.98377H192.96C194.354 9.98377 195.58 9.04664 195.963 7.6887L196.273 6.58594H185.159C183.745 6.58594 182.507 7.54993 182.142 8.93472L181.041 13.107C180.723 14.3143 181.619 15.4991 182.851 15.4991H196.879L197.25 14.4157C197.673 13.1816 196.769 11.8923 195.48 11.8923L195.481 11.8909Z" fill="#261F18"/>
<path d="M62.4021 0.5L58.3682 15.5H62.6905L66.6758 0.5H62.4021Z" fill="#88816E"/>
<path d="M156.961 0.5L152.824 15.5H157.145L161.235 0.5H156.961Z" fill="#261F18"/>
<path d="M45.4387 15.5H49.7154L52.7618 3.9426H56.8443C58.2394 3.9426 59.4639 3.00547 59.848 1.64604L60.1703 0.5H45.3636C43.8714 0.5 42.588 1.56994 42.2996 3.05322L42.1348 3.89783H48.4851L45.4387 15.5Z" fill="#88816E"/>
<path d="M118.585 15.5H122.862L125.818 3.9426H129.901C131.296 3.9426 132.521 3.00547 132.905 1.64604L133.227 0.5H118.42C116.928 0.5 115.645 1.56994 115.356 3.05322L115.191 3.89783H121.542L118.585 15.5Z" fill="#261F18"/>
<path d="M68.373 0.5L71.5475 12.5424L75.0162 8.07163L73.4327 1.69678C73.2576 0.993932 72.6336 0.5 71.9183 0.5L68.373 0.5Z" fill="#88816E"/>
<path d="M88.3397 0.5L76.8591 15.5H72.0967L83.1564 1.33267C83.5714 0.805909 84.1998 0.5 84.865 0.5H88.3412H88.3397Z" fill="#88816E"/>
<path d="M131.597 15.4998L133.335 8.91154C133.702 7.52823 134.939 6.56723 136.352 6.56723H147.808L148.352 4.13339H134.414L134.71 2.92019C135.054 1.50555 136.305 0.511719 137.743 0.511719H151.028C152.257 0.511719 153.153 1.69208 152.84 2.89632L151.731 7.21636C151.366 8.62055 150.104 9.59349 148.672 9.57559L147.625 9.56216L149.656 15.4983H144.979L143.038 9.47262L137.702 9.42786L136.229 15.4983H131.596L131.597 15.4998Z" fill="#261F18"/>
</g>
<defs>
<clipPath id="clip0_1190_15536">
<rect width="201" height="15" fill="white" transform="translate(0 0.5)"/>
</clipPath>
</defs>
</svg>
