<svg width="197" height="70" viewBox="0 0 197 70" fill="none" xmlns="http://www.w3.org/2000/svg">
<rect width="196.916" height="70" rx="4.57944" fill="white"/>
<g clip-path="url(#clip0_1190_15658)">
<path d="M84.6396 60.0317L95.4519 46.1987C96.1249 45.3648 97.1397 44.8789 98.2126 44.8789H100.929L104.856 60.0301H101.502C100.752 60.0301 100.097 59.5223 99.9114 58.7965L99.5475 57.7291H94.2802L94.7429 56.8638C95.4864 55.475 96.9327 54.6082 98.5091 54.6082H98.7742L97.5068 49.6033L90.6348 58.7777C90.0121 59.5677 89.0615 60.0286 88.0545 60.0286H84.6396V60.0317Z" fill="#8E836E"/>
<path d="M96.4023 9.89844L108.317 26.1986L105.227 39.5613H114.231L117.528 26.1986L138.477 9.89844H126.086L115.122 18.2123L108.882 9.89844H96.4023Z" fill="#271F18"/>
<path d="M137.429 39.5162L144.688 9.8125H151.281C153.635 9.8125 155.676 11.4364 156.203 13.7296L160.507 30.6082L175.869 11.6825C176.827 10.4991 178.27 9.8125 179.793 9.8125H187.103L179.776 39.5162H170.491L174.176 25.3822L163.604 39.5162H153.86L149.93 25.2631L147.083 36.817C146.603 38.4189 145.127 39.5146 143.455 39.5146H137.429V39.5162Z" fill="#271F18"/>
<path d="M82.875 22.5121H71.5012L71.2314 23.5608C70.5114 26.3634 72.6384 29.0893 75.534 29.0767L78.7998 29.061L77.9669 32.3308H60.4552L63.0622 21.7676H58.9948C56.1368 21.7676 53.6334 23.6862 52.8946 26.4465L50.8758 34.7525C50.2327 37.1571 52.0444 39.5161 54.5353 39.5161H79.5496C81.7487 39.5161 83.6954 38.0944 84.3636 36.0003L86.4843 27.4465C87.2623 25.0044 85.4381 22.5121 82.875 22.5121Z" fill="#271F18"/>
<path d="M90.0329 12.0945L90.6619 9.89844H61.9693C59.1772 9.89844 56.7161 11.7308 55.9192 14.4049L55.2432 16.6684H83.9625C86.7812 16.6684 89.258 14.8015 90.0329 12.0945Z" fill="#271F18"/>
<path d="M68.2047 46.0216L68.5325 44.8789H52.4906C51.038 44.8789 49.6404 45.8319 49.2248 47.2223L48.9346 48.3995H65.0471C66.5137 48.3995 67.8016 47.4292 68.2047 46.02V46.0216Z" fill="#8E836E"/>
<path d="M73.669 60.0317H78.1662L81.0492 48.448H85.3409C86.8075 48.448 88.0969 47.4762 88.4985 46.0671L88.8373 44.8789H73.2675C71.6989 44.8789 70.3483 45.9871 70.0456 47.5248L69.873 48.3995H76.5505L73.6675 60.0301L73.669 60.0317Z" fill="#8E836E"/>
<path d="M110.129 60.0317H114.626L117.509 48.448H121.801C123.267 48.448 124.557 47.4762 124.958 46.0671L125.297 44.8789H109.727C108.159 44.8789 106.808 45.9871 106.506 47.5248L106.333 48.3995H113.01L110.127 60.0301L110.129 60.0317Z" fill="#8E836E"/>
<path d="M46.0803 60.0312L46.3438 58.959C46.6513 57.4276 48.0096 56.3288 49.572 56.3288H61.1372L61.705 54.1657H50.0567C48.8049 54.1657 47.87 53.0136 48.1289 51.7894L48.4614 50.2109H64.6618C65.9402 50.2109 66.8798 51.4085 66.5755 52.6499L65.3771 57.5295C65.0163 58.9966 63.7002 60.0296 62.1866 60.0296H46.0771L46.0803 60.0312Z" fill="#8E836E"/>
<path d="M129.554 44.8652L125.757 60.0321H130.301L134.048 44.8652H129.554Z" fill="#8E836E"/>
<path d="M137.458 47.5584L135.1 57.1153C134.689 58.5809 135.792 60.0323 137.314 60.0323H150.723C152.2 60.0323 153.495 59.048 153.889 57.6263L156.471 47.4173C156.819 46.1633 155.875 44.9219 154.571 44.9219H140.937C139.317 44.9219 137.896 45.9987 137.458 47.5584ZM149.787 56.2782H139.632L141.724 48.5757H151.647L149.787 56.2782Z" fill="#8E836E"/>
<path d="M160.609 44.8652L156.885 60.0306H161.46L163.801 50.5991L170.434 60.0227L174.676 60.0306L178.418 44.8652H176.367C174.85 44.8652 173.531 45.9029 173.175 47.3763L171.752 53.4581L165.493 44.8652H160.609Z" fill="#8E836E"/>
<path d="M30.8837 18.2062L30.9041 18.1262C30.4116 18.1247 30.3708 18.0761 30.3551 18.0557C30.3269 18.0212 30.2861 17.9993 30.2641 17.9883C30.1261 18.0792 30.0712 18.2689 30.0508 18.3786L30.2814 18.2704C30.3535 18.2359 30.4335 18.2218 30.5135 18.2281L30.8351 18.2422C30.8586 18.2438 30.8774 18.2281 30.8837 18.2062Z" fill="#8E836E"/>
<path d="M42.1041 26.7586C41.3104 20.4182 35.9411 13.8944 27.157 13.711C27.157 13.711 13.6122 13.5887 12.0876 27.9781C12.0876 27.9781 11.7817 32.9172 14.6506 37.245L27.1586 56.572L39.6665 37.245C39.6665 37.245 42.8994 33.0991 42.1072 26.7586H42.1041ZM33.3043 43.0541L33.3012 43.0808C33.2902 43.192 33.2792 43.2861 33.16 43.3707C33.0251 43.4711 32.8306 43.5228 32.6267 43.5228C32.4384 43.5228 32.2439 43.4789 32.0777 43.3927C31.8894 43.2939 31.7859 43.0808 31.8267 42.8738L31.8314 42.8488C31.8377 42.8206 31.8408 42.8049 31.8361 42.7892C31.8157 42.7516 31.5945 42.623 31.5459 42.6011L31.56 42.5713L31.5428 42.6011L31.5145 42.5839C31.3389 42.4694 31.2808 42.3315 31.3436 42.1732C31.3593 42.134 31.3812 42.0948 31.4142 42.0509C31.4345 42.0227 31.4502 41.9914 31.4675 41.9569C31.4973 41.8957 31.5318 41.8283 31.5992 41.7829L31.709 41.5211C31.6479 41.3079 31.6196 41.0916 31.6008 40.8894C31.593 40.8675 31.5773 40.8126 31.5475 40.6574C31.4879 40.4646 31.3969 40.275 31.3091 40.0931C31.251 39.9724 31.1914 39.8486 31.1412 39.7217C31.0691 39.5445 30.9765 39.3721 30.8871 39.2075C30.8604 39.1574 30.8338 39.1072 30.8071 39.057C30.7946 39.0335 30.7695 39.0006 30.7412 38.9614C30.6879 38.8893 30.6204 38.7984 30.5875 38.7106C30.5546 38.6307 30.4542 38.3485 30.4401 38.2686L30.2722 37.546C30.2597 37.5099 30.2487 37.4723 30.2408 37.4347C30.2236 37.3626 30.2063 37.2952 30.164 37.2466C30.0087 37.0648 29.706 36.5663 29.524 36.2685C29.4628 36.1682 29.4111 36.0835 29.4001 36.0694L29.3969 36.0632C29.3969 36.0632 29.1554 35.6008 29.0707 35.444C29.0158 35.3421 28.9828 35.281 28.9546 35.2669C28.9326 35.2559 28.8903 35.27 28.8056 35.3014C28.7334 35.328 28.6723 35.328 28.6221 35.3014C28.5672 35.27 28.5311 35.2073 28.5107 35.107C28.506 35.0835 28.4981 35.06 28.4856 35.0365C28.4448 34.955 28.404 34.8735 28.3632 34.7919C28.2613 34.585 28.1546 34.3719 28.0417 34.1681C28.0182 34.1258 27.9962 34.0819 27.9727 34.0396C27.8786 33.8609 27.7907 33.6931 27.6401 33.5599C27.5617 33.4894 27.4739 33.458 27.3907 33.469C27.3092 33.48 27.2386 33.5317 27.1837 33.6179C27.1397 33.6869 27.1005 33.7605 27.0629 33.8326C26.9845 33.9784 26.9045 34.1289 26.7852 34.2527C26.7131 34.328 26.6566 34.4158 26.6064 34.4988C26.4606 34.7371 26.2582 35.0976 26.1688 35.3296C26.1468 35.3844 26.1249 35.4142 26.0935 35.4268C26.0574 35.4424 26.0245 35.4268 25.9994 35.4158C25.9884 35.4111 25.979 35.4064 25.9664 35.4033C25.9068 35.3876 25.8206 35.4989 25.7892 35.5412C25.7814 35.5506 25.7751 35.56 25.7704 35.5663C25.59 35.8453 25.3688 36.0914 25.1759 36.2999C25.1037 36.3798 24.9845 36.5679 24.8904 36.7199C24.8292 36.8171 24.7822 36.8939 24.7539 36.93C24.5186 37.256 24.4277 37.5868 24.332 37.9379C24.2959 38.0727 24.2567 38.2106 24.2096 38.3548C24.1955 38.4128 24.1626 38.5084 24.1124 38.6338C24.0747 38.7279 24.0543 38.778 24.0402 38.8047C23.9492 39.01 23.8081 39.184 23.6732 39.3533L23.6371 39.3972C23.4943 39.5524 23.0912 40.5775 23.0614 40.7107L22.7681 41.6685L22.7775 41.7092C22.8057 41.8299 22.834 41.9443 22.8936 42.0494C22.9893 42.2171 22.9626 42.4757 22.834 42.6152C22.7634 42.6905 22.6928 42.7171 22.6363 42.7375C22.561 42.7657 22.525 42.7782 22.5124 42.8864L22.5093 42.8974C22.5014 42.9193 22.4952 42.9538 22.4905 42.9883C22.4748 43.0949 22.4512 43.2391 22.3132 43.3284C22.0277 43.5134 21.8034 43.504 21.4928 43.4914H21.4677C21.4458 43.4899 21.427 43.4899 21.4113 43.4899C21.3313 43.4899 21.2952 43.4867 21.1791 43.4272C20.9344 43.3002 20.9454 42.9867 20.9909 42.8221C20.9956 42.8064 21.0003 42.7892 21.0081 42.7751C21.0113 42.7516 21.0238 42.7296 21.0474 42.692C21.063 42.6685 21.0772 42.6434 21.0928 42.6199C21.1273 42.5635 21.1634 42.5055 21.2058 42.4538C21.2999 42.3378 21.4128 42.1936 21.5038 42.076C21.554 42.0117 21.5979 41.9537 21.6293 41.9146C21.6387 41.8957 21.6575 41.8754 21.6842 41.8456C21.7595 41.7609 21.885 41.6214 21.9101 41.4067V41.4004L22.1736 40.4333C22.2191 40.2844 22.252 40.1339 22.2724 39.985C22.3163 39.6668 22.4026 39.1417 22.4591 38.9646C22.4842 38.789 22.6787 37.8172 22.7493 37.5366C22.7712 37.4504 22.9328 36.9613 23.1947 36.7027C23.3344 36.5648 23.4253 36.4221 23.474 36.2669C23.5367 36.0663 23.6308 35.8876 23.7155 35.7387C23.7532 35.6729 23.7971 35.5851 23.8065 35.4879C23.8112 35.4127 23.8253 35.3421 23.8379 35.2732C23.8473 35.223 23.8567 35.176 23.863 35.1274C23.8645 35.1117 23.8755 34.9252 23.8787 34.7998C23.8677 34.7951 23.8551 34.7888 23.8457 34.7778C23.8238 34.7512 23.8285 34.7183 23.8332 34.6932C23.8332 34.6885 23.8347 34.6822 23.8363 34.6775C23.8363 34.6258 23.8912 34.3954 23.9022 34.3499H23.9053C23.9351 34.1336 24.4088 32.784 24.6284 32.3028C24.6739 32.2056 24.6849 32.0191 24.6912 31.9188C24.6959 31.8529 24.6959 31.8388 24.7037 31.8263C24.7837 31.6805 24.8512 31.5253 24.9155 31.3748C25.0049 31.1664 25.0974 30.9501 25.2276 30.7557C25.2543 30.7149 25.2684 30.6663 25.2684 30.6162C25.2684 30.577 25.2778 30.5457 25.2904 30.5096C25.3469 30.3372 25.3547 30.2839 25.3625 30.2322C25.3688 30.1898 25.3751 30.1459 25.4033 30.0472C25.4112 30.019 25.4394 30.0064 25.4629 29.9955C25.4676 29.9939 25.4739 29.9908 25.4786 29.9876C25.5759 29.7102 25.5649 29.1835 25.5586 28.8685V28.8167C25.5021 28.5361 25.3469 28.2932 25.1978 28.0581C25.1571 27.9954 25.1178 27.9311 25.0786 27.8684C24.9876 27.7164 24.928 27.5941 24.8778 27.3825C24.87 27.3527 24.8198 27.1693 24.7775 27.0612C24.7461 26.9906 24.7163 26.9217 24.699 26.9044C24.6786 26.9154 24.6316 26.9749 24.583 27.0361L24.5657 27.058C24.4716 27.174 24.3633 27.2775 24.2394 27.3621C24.139 27.4311 24.0402 27.5032 23.9414 27.5753C23.7234 27.732 23.4991 27.8951 23.2622 28.033C23.1806 28.08 23.1257 28.1506 23.0677 28.2258C23.0395 28.2603 23.0112 28.2979 22.9799 28.3308C22.605 28.8951 22.0716 29.3575 21.0897 30.1162C21.0787 30.124 20.9925 30.2055 20.9281 30.2651C20.8732 30.3168 20.8215 30.3638 20.8058 30.3795C20.6348 30.5315 20.6583 30.7181 20.707 30.9454C20.7258 31.0316 20.7274 31.1178 20.7289 31.2024C20.7321 31.3169 20.7336 31.425 20.7744 31.5285C20.8089 31.6162 20.8497 31.751 20.8591 31.8404C20.8638 31.8843 20.8623 31.9156 20.845 31.9564C20.8058 32.0206 20.7556 32.0536 20.7023 32.0551C20.6427 32.0567 20.5815 32.0175 20.5329 31.947C20.4717 31.8561 20.4466 31.7526 20.4215 31.6523C20.4105 31.6084 20.3995 31.5614 20.3854 31.5191C20.3823 31.5081 20.3791 31.4987 20.376 31.4877C20.3603 31.4328 20.354 31.4203 20.3195 31.4156C20.2129 31.3937 20.1595 31.3968 20.1454 31.4078L20.1407 31.4109C19.9525 31.5191 19.8568 31.6476 19.827 31.8263C19.8317 31.842 19.8364 31.8576 19.8411 31.8733C19.8552 31.9188 19.8709 31.9642 19.874 32.0128C19.8803 32.0833 19.8662 32.1335 19.8333 32.1664C19.8113 32.1868 19.7831 32.1993 19.747 32.2009C19.7439 32.2244 19.7391 32.2464 19.736 32.2683C19.7219 32.3545 19.7078 32.4423 19.6905 32.5301C19.6811 32.5755 19.6623 32.6696 19.5556 32.6696H19.5525C19.5274 32.668 19.4584 32.6617 19.4443 32.5787V32.5724C19.4427 32.5332 19.4317 32.4925 19.4223 32.4736C19.4066 32.5019 19.3862 32.5552 19.3752 32.5849C19.358 32.6304 19.3486 32.6539 19.3392 32.668C19.3078 32.715 19.2607 32.7339 19.2074 32.7229C19.1321 32.7072 19.1337 32.6398 19.1352 32.61V32.599C19.1352 32.5363 19.1352 32.4752 19.1352 32.4125C19.1352 32.2965 19.1352 32.1758 19.1321 32.0567C19.1258 31.8905 19.1525 31.7432 19.2105 31.6162C19.2497 31.53 19.2764 31.436 19.3015 31.3451C19.3392 31.2118 19.3784 31.0739 19.4584 30.9501C19.4725 30.9109 19.4976 30.8576 19.5541 30.8231C19.5807 30.7886 19.6074 30.7526 19.6341 30.7181C19.6952 30.6397 19.758 30.5582 19.8113 30.4751C20.2505 29.8042 20.7399 29.1098 21.3501 28.2948C21.4066 28.2195 21.4599 28.1411 21.5132 28.0659C21.6685 27.8449 21.8285 27.616 22.0434 27.4358C22.1391 27.3433 22.2552 27.2743 22.3681 27.2085C22.4246 27.1756 22.4842 27.1395 22.5391 27.1035C22.6473 26.9452 22.7555 26.7884 22.8638 26.6301L22.9297 26.5345C23.0348 26.3824 23.2214 26.2696 23.4049 26.1677C23.5038 26.1128 23.5383 26.0313 23.5587 25.9279C23.6026 25.5329 24.0214 25.1206 24.3665 25.0172C24.4794 24.9654 24.6128 24.9074 24.7492 24.8777C24.9186 24.84 25.0473 24.7225 25.1822 24.5971L25.2198 24.5626C25.2888 24.4983 25.5382 24.3338 25.6872 24.2522C25.7374 24.2256 25.7892 24.2021 25.8394 24.1786C25.9962 24.108 26.1437 24.0406 26.2159 23.8823C26.219 23.8745 26.2237 23.8666 26.2268 23.8588C26.2425 23.8259 26.2566 23.7992 26.2535 23.7695C26.2284 23.5359 26.2033 23.3024 26.1766 23.0672C26.1735 23.0406 26.1672 23.039 26.161 23.0359C26.0386 22.9951 25.9586 22.7945 25.9413 22.6174C25.9351 22.5484 25.9382 22.4779 25.9429 22.4105C25.9429 22.3869 25.9461 22.3619 25.9461 22.3384C25.9461 22.2976 25.9633 22.2412 26.001 22.2145C26.0182 22.202 26.0386 22.1973 26.059 22.2004C26.0606 22.1894 26.0621 22.1659 26.059 22.122C26.0559 22.0735 26.0527 22.0264 26.0496 21.9778C26.0433 21.8822 26.037 21.7866 26.0292 21.6926C26.0166 21.553 26.07 21.3602 26.1515 21.2552C26.2111 21.1596 26.2535 21.1079 26.3758 20.9825L26.3806 20.9778C26.5029 20.8869 26.7617 20.7615 26.9092 20.7677C26.9092 20.7677 26.9154 20.7677 26.9217 20.7677C27.3295 20.7333 27.6762 20.8837 27.8958 21.1925C28.0448 21.4026 28.1515 21.5672 28.1719 21.7819C28.175 21.8211 28.1797 21.9089 28.1782 21.9528C28.1782 21.9825 28.1656 22.0029 28.1562 22.0186C28.1499 22.028 28.1468 22.0358 28.1452 22.0452C28.1374 22.133 28.1327 22.2286 28.1295 22.3195C28.1201 22.5312 28.1107 22.7506 28.0511 22.9544C28.0182 23.0657 27.9915 23.1832 27.9664 23.2945C27.9288 23.4591 27.8911 23.6284 27.8315 23.7914L27.8597 23.8588C27.9131 23.9058 27.9868 23.9168 28.0636 23.9278C28.095 23.9325 28.128 23.9372 28.1593 23.9434C28.1703 23.9278 28.1782 23.909 28.1891 23.8917C28.2095 23.8541 28.2299 23.8149 28.2629 23.782C28.266 23.7789 28.2707 23.7726 28.2707 23.7679L28.2738 23.7397C28.277 23.7036 28.2848 23.6723 28.2958 23.6456C28.4072 23.3807 28.6409 23.2569 28.8919 23.1425C29.0472 23.0719 29.2119 23.0312 29.3813 23.0218L29.4597 22.9716C29.546 22.539 29.8346 22.2318 30.1138 21.9339L30.1389 21.9073C30.2534 21.785 30.3977 21.7082 30.5483 21.633L30.5624 21.6205C30.6471 21.4778 30.6706 21.3211 30.6832 21.1878C30.7036 20.9574 30.7334 20.7489 30.7742 20.5514C30.7867 20.4934 30.7836 20.4778 30.7804 20.4746C30.7804 20.4746 30.7773 20.4746 30.7695 20.4746C30.7585 20.4746 30.7397 20.4746 30.7052 20.4825C30.2393 20.5718 29.7938 20.3477 29.5977 19.9229C29.4613 19.6282 29.4424 19.3272 29.5413 19.0247C29.5522 18.9902 29.5522 18.9526 29.5397 18.9181C29.3671 18.4385 29.5538 17.8146 29.9663 17.4996C29.9789 17.4902 29.993 17.4807 30.0087 17.4713C30.0589 17.44 30.0871 17.418 30.0871 17.3726C30.0448 17.2017 30.0981 17.0857 30.2503 17.0183C30.5404 16.8914 30.7742 16.8365 31.0063 16.8444C31.1365 16.8491 31.16 16.9384 31.1647 16.9964C31.3891 17.0591 31.5287 17.2096 31.5616 17.4259C31.5694 17.4322 31.5773 17.4384 31.5836 17.4416C31.8126 17.5403 31.8581 17.7425 31.8847 17.94C31.9177 18.1908 31.9585 18.4463 31.9977 18.694C32.0353 18.9307 32.073 19.1752 32.1059 19.4166C32.1859 20.0044 32.1545 20.5718 32.0149 21.1032C31.971 21.2678 31.9255 21.4606 31.9349 21.6581C31.9412 21.7756 31.8549 21.9449 31.673 22.1769C31.6667 22.1847 31.6636 22.1894 31.6604 22.1926C31.5553 22.3415 31.4785 22.4543 31.4596 22.5656V22.5782C31.433 22.724 31.4016 22.8807 31.3451 22.9403C31.2793 23.0845 31.24 23.1911 31.204 23.2867C31.1334 23.4763 31.0832 23.6127 30.8887 23.8698C30.8463 23.9262 30.5216 24.3165 30.4479 24.3729C30.3993 24.4106 30.3506 24.4466 30.302 24.4842C30.1075 24.63 29.9256 24.7664 29.7687 24.9466C29.7938 25.0501 29.8691 25.3636 29.8848 25.4937C29.9005 25.6253 29.8754 25.8197 29.8456 26.0454C29.8189 26.2555 29.7875 26.4953 29.7891 26.7085C29.7891 26.9201 29.6605 27.4953 29.6056 27.6098C29.5224 27.7791 29.4926 28.1004 29.4707 28.3339C29.4644 28.3966 29.4597 28.4546 29.4534 28.5032C29.4236 28.7509 29.4236 29.0111 29.4503 29.2995L29.4534 29.3293C29.4707 29.508 29.4895 29.6929 29.4173 29.8748C29.4173 29.8779 29.4236 29.8873 29.4283 29.892C29.4393 29.9061 29.455 29.9265 29.4597 29.9547C29.4691 30.0613 29.4769 30.0738 29.4958 30.1052C29.5036 30.1177 29.5115 30.1318 29.5224 30.1538C29.5758 30.2619 29.8267 30.8952 29.8769 31.1178C29.9067 31.2495 29.9554 31.3654 30.0056 31.4877C30.0573 31.6147 30.1122 31.7463 30.1467 31.8984C30.2063 32.168 30.2816 32.378 30.3836 32.5599C30.4557 32.69 30.4918 32.8279 30.5263 32.9627C30.5452 33.0379 30.5655 33.1147 30.5906 33.1884V33.1963C30.6016 33.2542 30.6581 33.5192 30.6832 33.6163C30.7114 33.7292 30.7475 33.8405 30.782 33.9471C30.8244 34.0787 30.8699 34.2151 30.8997 34.3593C30.9106 34.411 30.9216 34.4471 30.931 34.48C30.9499 34.5411 30.9655 34.5944 30.9765 34.7214C30.9812 34.7731 30.931 34.7888 30.9122 34.7951C30.9122 34.7951 30.9106 34.7951 30.9091 34.7951L30.92 34.8327C30.9436 34.9189 30.9749 35.0255 30.9859 35.0757C31.0048 35.1634 31.0236 35.3656 31.0424 35.676C31.044 35.7136 31.0534 35.7497 31.0675 35.7857C31.1444 35.9723 31.2495 36.2325 31.2745 36.339C31.3122 36.4974 31.3812 36.5883 31.4628 36.6949C31.5192 36.7685 31.5773 36.8438 31.6291 36.9488L31.8283 37.3407C31.8628 37.4081 31.8926 37.4786 31.9177 37.5523L31.9396 37.6181C31.9945 37.7748 32.0494 37.9363 32.0902 38.1871C32.0902 38.1918 32.1357 38.5586 32.142 38.8674C32.1435 38.9473 32.1608 39.0257 32.1781 39.1103C32.1875 39.1527 32.1953 39.195 32.2032 39.2373C32.2612 39.4019 32.3569 40.438 32.36 40.5446L32.3726 40.6888C32.3773 40.7374 32.3898 40.7844 32.4086 40.8314C32.4808 41.0007 32.5608 41.2249 32.5953 41.344L32.6267 41.4098C32.6533 41.4647 32.68 41.5195 32.7051 41.5744C32.7129 41.5901 32.7224 41.5932 32.7522 41.6011C32.7663 41.6042 32.782 41.6089 32.7976 41.6167C32.8965 41.6653 32.9027 41.7923 32.9074 41.8754C32.9137 42.0196 32.978 42.1356 33.0455 42.2578C33.0643 42.2907 33.0816 42.3237 33.0988 42.3581C33.1318 42.4224 33.1725 42.4835 33.2227 42.5556C33.342 42.7249 33.3294 42.8456 33.3059 43.0635L33.3043 43.0541Z" fill="#8E836E"/>
</g>
<defs>
<clipPath id="clip0_1190_15658">
<rect width="177.29" height="50.3738" fill="white" transform="translate(9.81348 9.8125)"/>
</clipPath>
</defs>
</svg>
