<svg width="27" height="27" viewBox="0 0 27 27" fill="none" xmlns="http://www.w3.org/2000/svg">
<g clip-path="url(#clip0_1190_15755)">
<path d="M6.75 5.625C6.75 5.02826 6.98705 4.45597 7.40901 4.03401C7.83097 3.61205 8.40326 3.375 9 3.375H18C18.5967 3.375 19.169 3.61205 19.591 4.03401C20.0129 4.45597 20.25 5.02826 20.25 5.625V21.375C20.25 21.9717 20.0129 22.544 19.591 22.966C19.169 23.3879 18.5967 23.625 18 23.625H9C8.40326 23.625 7.83097 23.3879 7.40901 22.966C6.98705 22.544 6.75 21.9717 6.75 21.375V5.625Z" stroke="white" stroke-width="2" stroke-linecap="round" stroke-linejoin="round"/>
<path d="M12.375 4.5H14.625" stroke="white" stroke-width="2" stroke-linecap="round" stroke-linejoin="round"/>
<path d="M13.5 19.125V19.135" stroke="white" stroke-width="2" stroke-linecap="round" stroke-linejoin="round"/>
</g>
<defs>
<clipPath id="clip0_1190_15755">
<rect width="27" height="27" fill="white"/>
</clipPath>
</defs>
</svg>
