<svg width="376" height="535" viewBox="0 0 376 535" fill="none" xmlns="http://www.w3.org/2000/svg">
<path opacity="0.05" d="M374.403 162.864C364.506 83.7213 297.555 2.28959 188.023 0.000426109C188.023 0.000426109 19.1294 -1.52569 0.117815 178.086C0.117815 178.086 -3.69623 239.737 32.0775 293.757L188.043 535L344.008 293.757C344.008 293.757 384.319 242.006 374.442 162.864H374.403ZM264.676 366.267L264.636 366.6C264.5 367.989 264.363 369.163 262.876 370.219C261.194 371.471 258.769 372.117 256.226 372.117C253.879 372.117 251.454 371.569 249.38 370.493C247.033 369.26 245.742 366.6 246.251 364.017L246.309 363.704C246.388 363.352 246.427 363.156 246.368 362.96C246.114 362.491 243.356 360.886 242.75 360.613L242.926 360.241L242.711 360.613L242.359 360.397C240.168 358.969 239.444 357.247 240.227 355.271C240.422 354.782 240.696 354.293 241.107 353.745C241.361 353.393 241.557 353.002 241.772 352.571C242.143 351.808 242.574 350.967 243.415 350.399L244.784 347.132C244.021 344.471 243.669 341.771 243.434 339.247C243.336 338.973 243.141 338.288 242.769 336.351C242.026 333.945 240.892 331.577 239.796 329.308C239.073 327.801 238.329 326.255 237.703 324.671C236.804 322.46 235.65 320.308 234.535 318.253C234.202 317.627 233.87 317.001 233.537 316.375C233.381 316.081 233.068 315.671 232.716 315.181C232.051 314.281 231.21 313.147 230.799 312.051C230.388 311.053 229.136 307.531 228.96 306.533L226.868 297.514C226.711 297.064 226.574 296.594 226.476 296.125C226.261 295.225 226.046 294.383 225.518 293.777C223.582 291.507 219.807 285.285 217.538 281.568C216.775 280.316 216.13 279.259 215.993 279.083L215.954 279.005C215.954 279.005 212.941 273.233 211.885 271.276C211.201 270.005 210.79 269.242 210.438 269.065C210.164 268.928 209.636 269.105 208.58 269.496C207.68 269.829 206.917 269.829 206.291 269.496C205.607 269.105 205.157 268.322 204.903 267.07C204.844 266.776 204.746 266.483 204.59 266.189C204.081 265.172 203.573 264.155 203.064 263.137C201.793 260.554 200.463 257.894 199.054 255.35C198.761 254.822 198.487 254.274 198.194 253.746C197.02 251.515 195.925 249.422 194.047 247.759C193.069 246.878 191.974 246.487 190.937 246.624C189.92 246.761 189.04 247.406 188.356 248.483C187.808 249.343 187.319 250.263 186.85 251.163C185.872 252.983 184.874 254.861 183.388 256.407C182.488 257.346 181.784 258.441 181.158 259.478C179.339 262.452 176.816 266.952 175.701 269.848C175.427 270.533 175.153 270.905 174.762 271.061C174.312 271.257 173.901 271.061 173.588 270.924C173.451 270.865 173.334 270.807 173.178 270.768C172.434 270.572 171.359 271.961 170.967 272.489C170.87 272.607 170.791 272.724 170.733 272.802C168.483 276.285 165.726 279.357 163.32 281.959C162.42 282.957 160.934 285.305 159.76 287.203C158.997 288.416 158.41 289.374 158.058 289.824C155.124 293.894 153.99 298.022 152.797 302.405C152.347 304.088 151.858 305.81 151.271 307.61C151.095 308.333 150.685 309.527 150.059 311.092C149.589 312.266 149.335 312.892 149.159 313.225C148.024 315.788 146.264 317.96 144.582 320.073L144.132 320.621C142.352 322.558 137.326 335.353 136.954 337.017L133.296 348.971L133.414 349.48C133.766 350.986 134.118 352.415 134.861 353.725C136.054 355.819 135.722 359.047 134.118 360.789C133.238 361.728 132.358 362.06 131.653 362.315C130.715 362.667 130.265 362.823 130.108 364.173L130.069 364.31C129.971 364.584 129.893 365.015 129.834 365.445C129.639 366.776 129.345 368.576 127.624 369.691C124.064 372 121.267 371.882 117.395 371.726H117.082C116.808 371.706 116.573 371.706 116.378 371.706C115.38 371.706 114.93 371.667 113.483 370.924C110.432 369.339 110.569 365.426 111.136 363.371C111.195 363.176 111.253 362.96 111.351 362.784C111.39 362.491 111.547 362.217 111.84 361.747C112.036 361.454 112.212 361.141 112.407 360.847C112.837 360.143 113.287 359.419 113.815 358.773C114.989 357.326 116.397 355.526 117.532 354.058C118.158 353.256 118.705 352.532 119.096 352.043C119.214 351.808 119.448 351.554 119.781 351.182C120.72 350.125 122.285 348.384 122.598 345.704V345.625L125.883 333.553C126.451 331.695 126.861 329.816 127.116 327.958C127.663 323.986 128.739 317.431 129.443 315.221C129.756 313.029 132.182 300.899 133.062 297.396C133.336 296.32 135.35 290.216 138.617 286.987C140.357 285.266 141.492 283.485 142.098 281.548C142.88 279.044 144.054 276.813 145.11 274.955C145.58 274.133 146.127 273.037 146.245 271.824C146.303 270.885 146.479 270.005 146.636 269.144C146.753 268.518 146.87 267.931 146.949 267.324C146.968 267.128 147.105 264.8 147.144 263.235C147.007 263.176 146.851 263.098 146.734 262.961C146.46 262.628 146.518 262.218 146.577 261.904C146.577 261.846 146.597 261.768 146.616 261.709C146.616 261.063 147.301 258.187 147.438 257.62H147.477C147.848 254.92 153.755 238.074 156.494 232.067C157.061 230.854 157.198 228.526 157.276 227.274C157.335 226.452 157.335 226.276 157.432 226.119C158.43 224.3 159.271 222.363 160.073 220.484C161.188 217.882 162.342 215.182 163.965 212.756C164.298 212.247 164.474 211.641 164.474 211.015C164.474 210.525 164.591 210.134 164.748 209.684C165.452 207.532 165.55 206.867 165.647 206.221C165.726 205.693 165.804 205.145 166.156 203.912C166.254 203.56 166.606 203.404 166.899 203.267C166.958 203.247 167.036 203.208 167.095 203.169C168.307 199.706 168.17 193.132 168.092 189.199V188.553C167.388 185.051 165.452 182.018 163.594 179.084C163.085 178.301 162.596 177.499 162.107 176.716C160.973 174.818 160.229 173.292 159.604 170.651C159.506 170.279 158.88 167.99 158.352 166.64C157.961 165.76 157.589 164.899 157.374 164.683C157.12 164.82 156.533 165.564 155.926 166.327L155.711 166.601C154.538 168.049 153.188 169.34 151.643 170.397C150.391 171.257 149.159 172.157 147.927 173.057C145.208 175.014 142.411 177.049 139.458 178.771C138.44 179.358 137.756 180.238 137.032 181.177C136.68 181.608 136.328 182.077 135.937 182.488C131.262 189.532 124.612 195.303 112.368 204.773C112.231 204.871 111.155 205.888 110.353 206.632C109.669 207.278 109.023 207.865 108.828 208.06C106.696 209.958 106.989 212.286 107.596 215.123C107.83 216.199 107.85 217.276 107.869 218.332C107.909 219.76 107.928 221.11 108.437 222.402C108.867 223.497 109.375 225.18 109.493 226.295C109.552 226.843 109.532 227.234 109.317 227.743C108.828 228.545 108.202 228.956 107.537 228.976C106.794 228.995 106.031 228.506 105.425 227.626C104.662 226.491 104.349 225.2 104.036 223.947C103.899 223.4 103.762 222.813 103.586 222.284C103.547 222.147 103.508 222.03 103.469 221.893C103.273 221.208 103.195 221.052 102.765 220.993C101.434 220.719 100.769 220.758 100.593 220.895L100.535 220.934C98.1876 222.284 96.9945 223.889 96.6229 226.119C96.6816 226.315 96.7403 226.51 96.7989 226.706C96.975 227.274 97.1706 227.841 97.2097 228.447C97.2879 229.328 97.1119 229.954 96.7011 230.365C96.4273 230.619 96.0752 230.776 95.6254 230.795C95.5863 231.089 95.5276 231.363 95.4885 231.637C95.3124 232.713 95.1364 233.808 94.9213 234.904C94.8039 235.471 94.5692 236.645 93.2392 236.645H93.2C92.8871 236.626 92.0265 236.548 91.8505 235.511V235.432C91.8309 234.943 91.694 234.435 91.5766 234.2C91.381 234.552 91.1268 235.217 90.9899 235.589C90.7747 236.156 90.6573 236.45 90.54 236.626C90.1488 237.213 89.562 237.448 88.897 237.311C87.9582 237.115 87.9777 236.274 87.9973 235.902V235.765C87.9973 234.982 87.9973 234.219 87.9973 233.437C87.9973 231.989 87.9973 230.482 87.9582 228.995C87.8799 226.921 88.2124 225.082 88.9361 223.497C89.4251 222.421 89.7576 221.247 90.0706 220.113C90.54 218.449 91.029 216.728 92.0265 215.182C92.2025 214.693 92.5155 214.028 93.2196 213.597C93.5521 213.167 93.8846 212.717 94.2171 212.286C94.9799 211.308 95.7623 210.291 96.4273 209.254C101.904 200.88 108.006 192.212 115.615 182.038C116.319 181.099 116.984 180.121 117.649 179.181C119.585 176.423 121.58 173.566 124.26 171.316C125.453 170.162 126.901 169.301 128.309 168.479C129.013 168.068 129.756 167.618 130.441 167.168C131.79 165.192 133.14 163.236 134.49 161.259L135.311 160.066C136.621 158.168 138.949 156.759 141.237 155.488C142.47 154.803 142.9 153.785 143.154 152.494C143.702 147.564 148.924 142.418 153.227 141.127C154.635 140.481 156.298 139.757 158 139.385C160.112 138.916 161.716 137.448 163.398 135.883L163.867 135.453C164.728 134.65 167.838 132.596 169.696 131.579C170.322 131.246 170.967 130.952 171.593 130.659C173.549 129.779 175.388 128.937 176.288 126.961C176.327 126.863 176.385 126.765 176.424 126.668C176.62 126.257 176.796 125.924 176.757 125.552C176.444 122.637 176.131 119.722 175.799 116.787C175.759 116.454 175.681 116.435 175.603 116.396C174.077 115.887 173.08 113.383 172.865 111.172C172.786 110.311 172.826 109.43 172.884 108.589C172.884 108.296 172.923 107.983 172.923 107.689C172.923 107.18 173.138 106.476 173.608 106.143C173.823 105.987 174.077 105.928 174.332 105.967C174.351 105.83 174.371 105.537 174.332 104.989C174.292 104.382 174.253 103.796 174.214 103.189C174.136 101.995 174.058 100.802 173.96 99.6281C173.803 97.8867 174.469 95.4802 175.486 94.1693C176.229 92.9758 176.757 92.3301 178.283 90.7649L178.341 90.7062C179.867 89.5714 183.094 88.0061 184.933 88.0844C184.933 88.0844 185.011 88.0844 185.089 88.0844C190.175 87.654 194.497 89.5322 197.235 93.3867C199.094 96.0084 200.424 98.0628 200.678 100.743C200.717 101.232 200.776 102.328 200.756 102.876C200.756 103.248 200.6 103.502 200.482 103.698C200.404 103.815 200.365 103.913 200.345 104.03C200.248 105.126 200.189 106.319 200.15 107.454C200.032 110.096 199.915 112.835 199.172 115.378C198.761 116.767 198.429 118.235 198.116 119.624C197.646 121.678 197.177 123.791 196.434 125.826L196.786 126.668C197.451 127.255 198.37 127.392 199.328 127.528C199.719 127.587 200.13 127.646 200.521 127.724C200.658 127.528 200.756 127.294 200.893 127.078C201.147 126.609 201.402 126.12 201.812 125.709C201.851 125.67 201.91 125.591 201.91 125.533L201.949 125.181C201.988 124.731 202.086 124.339 202.223 124.007C203.612 120.7 206.526 119.154 209.656 117.726C211.592 116.846 213.646 116.337 215.758 116.22L216.736 115.594C217.812 110.193 221.411 106.359 224.892 102.641L225.205 102.309C226.633 100.782 228.432 99.8237 230.31 98.8846L230.486 98.7281C231.542 96.9476 231.836 94.991 231.992 93.328C232.246 90.4518 232.618 87.8496 233.127 85.3844C233.283 84.6604 233.244 84.4648 233.205 84.4256C233.205 84.4256 233.166 84.4256 233.068 84.4256C232.931 84.4256 232.696 84.4256 232.266 84.5235C226.457 85.6387 220.902 82.8408 218.457 77.5386C216.756 73.8603 216.521 70.1037 217.753 66.3275C217.89 65.8971 217.89 65.4275 217.733 64.9971C215.582 59.01 217.91 51.223 223.054 47.2903C223.21 47.1729 223.386 47.0555 223.582 46.9381C224.208 46.5468 224.56 46.2729 224.56 45.7055C224.032 43.5728 224.697 42.125 226.594 41.2837C230.212 39.6989 233.127 39.0141 236.021 39.1119C237.645 39.1706 237.938 40.2858 237.997 41.0098C240.794 41.7924 242.535 43.6707 242.945 46.3707C243.043 46.449 243.141 46.5272 243.219 46.5664C246.075 47.799 246.642 50.3229 246.974 52.7882C247.385 55.9187 247.894 59.1079 248.383 62.1992C248.852 65.1536 249.322 68.2058 249.732 71.2189C250.73 78.556 250.339 85.6387 248.598 92.2714C248.05 94.3258 247.483 96.7324 247.6 99.1976C247.679 100.665 246.603 102.778 244.334 105.674C244.256 105.772 244.217 105.83 244.178 105.869C242.867 107.728 241.909 109.137 241.674 110.526V110.683C241.341 112.502 240.95 114.459 240.246 115.202C239.425 117.002 238.936 118.333 238.486 119.526C237.606 121.894 236.98 123.596 234.554 126.805C234.026 127.509 229.978 132.381 229.058 133.085C228.452 133.555 227.846 134.005 227.239 134.474C224.814 136.294 222.545 137.996 220.589 140.246C220.902 141.537 221.841 145.451 222.036 147.074C222.232 148.718 221.919 151.144 221.548 153.962C221.215 156.583 220.824 159.577 220.843 162.238C220.843 164.879 219.24 172.06 218.555 173.488C217.518 175.601 217.147 179.612 216.873 182.527C216.795 183.31 216.736 184.034 216.658 184.64C216.286 187.732 216.286 190.979 216.619 194.58L216.658 194.951C216.873 197.182 217.108 199.49 216.208 201.76C216.208 201.799 216.286 201.917 216.345 201.975C216.482 202.151 216.677 202.406 216.736 202.758C216.853 204.088 216.951 204.245 217.186 204.636C217.284 204.793 217.381 204.969 217.518 205.243C218.183 206.593 221.313 214.497 221.939 217.276C222.31 218.919 222.917 220.367 223.543 221.893C224.188 223.478 224.873 225.121 225.303 227.019C226.046 230.384 226.985 233.006 228.256 235.276C229.156 236.9 229.606 238.622 230.036 240.304C230.271 241.243 230.525 242.202 230.838 243.122V243.219C230.975 243.943 231.679 247.25 231.992 248.463C232.344 249.872 232.794 251.261 233.224 252.591C233.752 254.235 234.32 255.937 234.691 257.737C234.828 258.383 234.965 258.833 235.082 259.244C235.317 260.007 235.513 260.672 235.65 262.257C235.708 262.902 235.082 263.098 234.848 263.176C234.848 263.176 234.828 263.176 234.809 263.176L234.946 263.646C235.239 264.722 235.63 266.052 235.767 266.678C236.002 267.774 236.236 270.298 236.471 274.172C236.491 274.642 236.608 275.092 236.784 275.542C237.743 277.87 239.053 281.118 239.366 282.448C239.835 284.424 240.696 285.559 241.713 286.89C242.417 287.809 243.141 288.748 243.786 290.059L246.27 294.951C246.701 295.792 247.072 296.672 247.385 297.592L247.659 298.414C248.344 300.37 249.028 302.386 249.537 305.516C249.537 305.575 250.104 310.153 250.182 314.007C250.202 315.005 250.417 315.984 250.632 317.04C250.749 317.568 250.847 318.097 250.945 318.625C251.669 320.679 252.862 333.612 252.901 334.943L253.057 336.743C253.116 337.349 253.273 337.936 253.507 338.523C254.407 340.636 255.405 343.434 255.835 344.921L256.226 345.743C256.559 346.428 256.891 347.112 257.204 347.797C257.302 347.993 257.419 348.032 257.791 348.13C257.967 348.169 258.162 348.228 258.358 348.325C259.59 348.932 259.668 350.517 259.727 351.554C259.805 353.354 260.607 354.802 261.448 356.328C261.683 356.739 261.898 357.149 262.113 357.58C262.524 358.382 263.033 359.145 263.659 360.045C265.145 362.158 264.989 363.665 264.695 366.384L264.676 366.267Z" fill="#8E836E"/>
</svg>
