<svg width="391" height="855" viewBox="0 0 391 855" fill="none" xmlns="http://www.w3.org/2000/svg">
<path opacity="0.05" d="M597.451 260.278C581.658 133.798 474.821 3.65907 300.037 0.000680978C300.037 0.000680978 30.5256 -2.43825 0.188003 284.604C0.188003 284.604 -5.89824 383.131 51.1876 469.462L300.068 855L548.948 469.462C548.948 469.462 613.275 386.758 597.513 260.278H597.451ZM422.355 585.343L422.292 585.874C422.074 588.094 421.855 589.97 419.483 591.659C416.799 593.66 412.929 594.692 408.871 594.692C405.126 594.692 401.256 593.816 397.947 592.096C394.202 590.127 392.142 585.874 392.953 581.747L393.047 581.246C393.172 580.684 393.234 580.371 393.141 580.058C392.735 579.308 388.334 576.744 387.367 576.306L387.647 575.712L387.304 576.306L386.742 575.962C383.247 573.68 382.092 570.928 383.34 567.77C383.652 566.988 384.089 566.206 384.745 565.331C385.151 564.768 385.463 564.143 385.806 563.455C386.399 562.235 387.086 560.891 388.428 559.984L390.612 554.762C389.395 550.51 388.833 546.195 388.459 542.161C388.303 541.723 387.991 540.629 387.398 537.533C386.212 533.687 384.401 529.904 382.654 526.277C381.499 523.869 380.313 521.399 379.314 518.866C377.878 515.333 376.037 511.893 374.258 508.61C373.727 507.61 373.196 506.609 372.666 505.608C372.416 505.139 371.917 504.483 371.355 503.701C370.294 502.263 368.952 500.449 368.296 498.698C367.641 497.103 365.643 491.475 365.362 489.88L362.023 475.466C361.773 474.747 361.555 473.996 361.399 473.246C361.055 471.807 360.712 470.463 359.869 469.494C356.779 465.867 350.755 455.923 347.135 449.982C345.918 447.981 344.888 446.293 344.669 446.011L344.607 445.886C344.607 445.886 339.8 436.662 338.115 433.535C337.022 431.503 336.367 430.283 335.805 430.002C335.368 429.783 334.525 430.064 332.84 430.69C331.404 431.221 330.187 431.221 329.188 430.69C328.096 430.064 327.378 428.814 326.972 426.812C326.879 426.343 326.723 425.874 326.473 425.405C325.661 423.779 324.85 422.153 324.038 420.528C322.01 416.4 319.887 412.148 317.64 408.083C317.172 407.239 316.735 406.363 316.267 405.519C314.394 401.954 312.646 398.608 309.65 395.951C308.089 394.544 306.341 393.918 304.687 394.137C303.064 394.356 301.66 395.388 300.567 397.108C299.693 398.483 298.913 399.953 298.164 401.391C296.604 404.299 295.012 407.301 292.64 409.771C291.204 411.272 290.08 413.023 289.082 414.68C286.179 419.433 282.153 426.625 280.374 431.253C279.937 432.347 279.5 432.941 278.875 433.191C278.158 433.504 277.502 433.191 277.003 432.972C276.784 432.878 276.597 432.785 276.347 432.722C275.161 432.409 273.445 434.63 272.82 435.474C272.664 435.661 272.539 435.849 272.446 435.974C268.857 441.54 264.456 446.449 260.617 450.608C259.181 452.202 256.809 455.954 254.936 458.987C253.719 460.926 252.783 462.458 252.221 463.177C247.539 469.681 245.729 476.279 243.825 483.283C243.107 485.972 242.327 488.724 241.39 491.6C241.109 492.757 240.454 494.665 239.455 497.166C238.706 499.042 238.3 500.043 238.02 500.574C236.209 504.67 233.4 508.141 230.716 511.518L229.998 512.394C227.158 515.489 219.137 535.939 218.544 538.596L212.707 557.701L212.894 558.514C213.456 560.922 214.018 563.205 215.204 565.3C217.108 568.645 216.577 573.805 214.018 576.587C212.613 578.088 211.209 578.62 210.085 579.026C208.587 579.589 207.869 579.839 207.62 581.997L207.557 582.216C207.401 582.653 207.276 583.341 207.183 584.029C206.87 586.155 206.402 589.032 203.656 590.815C197.975 594.504 193.512 594.317 187.332 594.066H186.833C186.396 594.035 186.021 594.035 185.709 594.035C184.117 594.035 183.399 593.973 181.09 592.784C176.221 590.252 176.439 583.998 177.344 580.715C177.438 580.402 177.532 580.058 177.688 579.777C177.75 579.308 178 578.87 178.468 578.12C178.78 577.651 179.061 577.15 179.373 576.681C180.06 575.556 180.778 574.399 181.62 573.367C183.493 571.053 185.74 568.176 187.551 565.831C188.549 564.549 189.423 563.392 190.047 562.61C190.235 562.235 190.609 561.829 191.14 561.235C192.638 559.546 195.135 556.763 195.634 552.48V552.354L200.878 533.062C201.783 530.092 202.438 527.09 202.844 524.119C203.718 517.772 205.435 507.297 206.558 503.764C207.058 500.262 210.928 480.875 212.332 475.278C212.769 473.558 215.984 463.803 221.197 458.644C223.974 455.892 225.785 453.047 226.752 449.951C228.001 445.949 229.873 442.384 231.559 439.414C232.308 438.1 233.182 436.349 233.369 434.411C233.463 432.91 233.744 431.503 233.993 430.127C234.181 429.126 234.368 428.188 234.493 427.219C234.524 426.906 234.742 423.185 234.805 420.684C234.586 420.59 234.337 420.465 234.149 420.246C233.712 419.715 233.806 419.058 233.9 418.558C233.9 418.464 233.931 418.339 233.962 418.245C233.962 417.213 235.054 412.617 235.273 411.71H235.335C235.928 407.395 245.354 380.473 249.724 370.874C250.629 368.935 250.847 365.214 250.972 363.213C251.066 361.9 251.066 361.618 251.222 361.368C252.814 358.46 254.156 355.364 255.436 352.363C257.215 348.204 259.056 343.889 261.647 340.012C262.177 339.199 262.458 338.229 262.458 337.229C262.458 336.447 262.645 335.822 262.895 335.103C264.019 331.663 264.175 330.6 264.331 329.568C264.456 328.724 264.581 327.848 265.142 325.878C265.298 325.316 265.86 325.065 266.328 324.847C266.422 324.815 266.547 324.753 266.64 324.69C268.576 319.156 268.357 308.65 268.232 302.365V301.333C267.109 295.736 264.019 290.889 261.054 286.199C260.242 284.948 259.462 283.666 258.682 282.416C256.871 279.383 255.685 276.944 254.686 272.722C254.53 272.128 253.532 268.47 252.689 266.312C252.065 264.905 251.472 263.53 251.128 263.186C250.723 263.405 249.786 264.593 248.819 265.812L248.475 266.25C246.603 268.564 244.449 270.627 241.983 272.316C239.986 273.692 238.02 275.13 236.053 276.568C231.715 279.695 227.252 282.947 222.539 285.699C220.916 286.637 219.823 288.044 218.668 289.545C218.107 290.233 217.545 290.983 216.921 291.64C209.461 302.896 198.849 312.12 179.311 327.254C179.092 327.411 177.376 329.037 176.096 330.225C175.004 331.257 173.974 332.195 173.661 332.507C170.259 335.54 170.728 339.261 171.695 343.795C172.07 345.515 172.101 347.235 172.132 348.923C172.195 351.206 172.226 353.363 173.037 355.427C173.724 357.178 174.535 359.867 174.723 361.649C174.816 362.525 174.785 363.15 174.442 363.963C173.661 365.245 172.663 365.902 171.601 365.933C170.415 365.964 169.198 365.183 168.231 363.776C167.013 361.962 166.514 359.898 166.015 357.897C165.796 357.022 165.578 356.084 165.297 355.239C165.234 355.021 165.172 354.833 165.109 354.614C164.797 353.52 164.673 353.27 163.986 353.176C161.864 352.738 160.802 352.8 160.521 353.019L160.428 353.082C156.682 355.239 154.779 357.803 154.185 361.368C154.279 361.681 154.373 361.993 154.466 362.306C154.747 363.213 155.059 364.12 155.122 365.089C155.247 366.496 154.966 367.497 154.31 368.153C153.873 368.56 153.312 368.81 152.594 368.841C152.531 369.31 152.438 369.748 152.375 370.186C152.094 371.905 151.813 373.656 151.47 375.407C151.283 376.314 150.908 378.19 148.786 378.19H148.723C148.224 378.159 146.851 378.034 146.57 376.377V376.252C146.539 375.47 146.32 374.657 146.133 374.282C145.821 374.845 145.415 375.908 145.197 376.502C144.853 377.409 144.666 377.878 144.479 378.159C143.854 379.097 142.918 379.472 141.857 379.253C140.359 378.941 140.39 377.596 140.421 377.002V376.783C140.421 375.532 140.421 374.313 140.421 373.062C140.421 370.748 140.421 368.341 140.359 365.964C140.234 362.65 140.765 359.711 141.919 357.178C142.7 355.458 143.23 353.582 143.73 351.769C144.479 349.111 145.259 346.359 146.851 343.889C147.132 343.107 147.631 342.044 148.755 341.356C149.285 340.668 149.816 339.949 150.346 339.261C151.564 337.698 152.812 336.072 153.873 334.415C162.613 321.032 172.351 307.18 184.492 290.921C185.615 289.42 186.677 287.856 187.738 286.355C190.828 281.947 194.011 277.381 198.287 273.786C200.191 271.941 202.501 270.565 204.748 269.252C205.872 268.595 207.058 267.876 208.15 267.157C210.304 263.999 212.457 260.872 214.611 257.714L215.922 255.806C218.013 252.773 221.727 250.522 225.379 248.49C227.345 247.395 228.032 245.769 228.438 243.706C229.312 235.826 237.645 227.602 244.512 225.539C246.759 224.507 249.412 223.35 252.127 222.756C255.498 222.005 258.057 219.66 260.742 217.159L261.491 216.471C262.864 215.189 267.827 211.906 270.792 210.28C271.79 209.748 272.82 209.279 273.819 208.81C276.94 207.403 279.874 206.059 281.31 202.9C281.372 202.744 281.466 202.588 281.528 202.431C281.84 201.775 282.121 201.243 282.059 200.649C281.56 195.99 281.06 191.331 280.53 186.641C280.467 186.109 280.342 186.078 280.217 186.016C277.783 185.203 276.191 181.2 275.848 177.667C275.723 176.291 275.785 174.884 275.879 173.54C275.879 173.071 275.941 172.57 275.941 172.101C275.941 171.288 276.285 170.163 277.034 169.631C277.377 169.381 277.783 169.287 278.189 169.35C278.22 169.131 278.251 168.662 278.189 167.786C278.126 166.817 278.064 165.879 278.001 164.909C277.877 163.002 277.752 161.095 277.596 159.219C277.346 156.436 278.407 152.59 280.03 150.495C281.216 148.587 282.059 147.556 284.493 145.054L284.587 144.96C287.022 143.147 292.171 140.645 295.105 140.77C295.105 140.77 295.23 140.77 295.355 140.77C303.47 140.082 310.368 143.084 314.737 149.244C317.702 153.434 319.825 156.717 320.231 161.001C320.293 161.783 320.387 163.534 320.355 164.409C320.355 165.003 320.106 165.41 319.918 165.722C319.794 165.91 319.731 166.066 319.7 166.254C319.544 168.005 319.45 169.912 319.388 171.726C319.201 175.947 319.013 180.325 317.827 184.39C317.172 186.61 316.641 188.955 316.142 191.175C315.393 194.458 314.644 197.835 313.458 201.087L314.02 202.431C315.081 203.369 316.548 203.588 318.077 203.807C318.701 203.901 319.357 203.995 319.981 204.12C320.199 203.807 320.355 203.432 320.574 203.088C320.98 202.338 321.385 201.556 322.041 200.899C322.103 200.837 322.197 200.712 322.197 200.618L322.259 200.055C322.322 199.336 322.478 198.71 322.696 198.179C324.912 192.895 329.563 190.424 334.557 188.142C337.647 186.735 340.924 185.922 344.295 185.734L345.855 184.734C347.572 176.104 353.315 169.975 358.87 164.034L359.37 163.502C361.648 161.064 364.52 159.531 367.516 158.03L367.797 157.78C369.482 154.935 369.951 151.808 370.2 149.15C370.606 144.554 371.199 140.395 372.01 136.455C372.26 135.298 372.198 134.986 372.135 134.923C372.135 134.923 372.073 134.923 371.917 134.923C371.698 134.923 371.324 134.923 370.637 135.08C361.367 136.862 352.503 132.391 348.602 123.917C345.886 118.038 345.512 112.035 347.478 106C347.697 105.312 347.697 104.562 347.447 103.874C344.014 94.3058 347.728 81.861 355.937 75.5761C356.186 75.3885 356.467 75.2008 356.779 75.0132C357.778 74.3879 358.34 73.9501 358.34 73.0433C357.497 69.6351 358.558 67.3212 361.586 65.9767C367.36 63.444 372.01 62.3496 376.63 62.5059C379.22 62.5997 379.688 64.382 379.782 65.539C384.245 66.7897 387.023 69.7914 387.679 74.1065C387.835 74.2315 387.991 74.3566 388.116 74.4191C392.672 76.389 393.578 80.4226 394.108 84.3624C394.764 89.3654 395.575 94.4621 396.355 99.4025C397.104 104.124 397.854 109.002 398.509 113.817C400.101 125.543 399.477 136.862 396.699 147.462C395.825 150.745 394.92 154.591 395.107 158.531C395.232 160.876 393.515 164.253 389.895 168.881C389.77 169.037 389.707 169.131 389.645 169.193C387.554 172.164 386.024 174.415 385.65 176.635V176.885C385.119 179.793 384.495 182.92 383.371 184.108C382.061 186.985 381.28 189.111 380.562 191.018C379.158 194.802 378.159 197.522 374.289 202.65C373.446 203.776 366.985 211.562 365.518 212.687C364.551 213.438 363.583 214.157 362.616 214.907C358.746 217.815 355.125 220.536 352.004 224.132C352.503 226.195 354.001 232.449 354.314 235.044C354.626 237.671 354.126 241.548 353.533 246.051C353.003 250.241 352.378 255.025 352.41 259.277C352.41 263.498 349.85 274.974 348.758 277.256C347.104 280.633 346.511 287.043 346.074 291.702C345.949 292.953 345.855 294.11 345.73 295.079C345.137 300.02 345.137 305.21 345.668 310.964L345.73 311.558C346.074 315.122 346.448 318.812 345.013 322.439C345.013 322.502 345.137 322.689 345.231 322.783C345.449 323.064 345.762 323.471 345.855 324.034C346.043 326.16 346.199 326.41 346.573 327.035C346.729 327.286 346.885 327.567 347.104 328.005C348.165 330.162 353.159 342.795 354.158 347.235C354.751 349.861 355.718 352.175 356.717 354.614C357.747 357.147 358.839 359.773 359.526 362.806C360.712 368.184 362.21 372.374 364.239 376.001C365.675 378.597 366.392 381.348 367.079 384.037C367.454 385.538 367.859 387.07 368.359 388.54V388.696C368.577 389.853 369.701 395.138 370.2 397.076C370.762 399.328 371.48 401.548 372.167 403.674C373.009 406.3 373.914 409.021 374.507 411.897C374.726 412.929 374.944 413.648 375.132 414.305C375.506 415.525 375.818 416.588 376.037 419.12C376.13 420.152 375.132 420.465 374.757 420.59C374.757 420.59 374.726 420.59 374.695 420.59L374.913 421.34C375.381 423.06 376.006 425.186 376.224 426.187C376.599 427.938 376.973 431.972 377.348 438.163C377.379 438.913 377.566 439.632 377.847 440.352C379.376 444.073 381.468 449.263 381.967 451.389C382.716 454.547 384.089 456.361 385.712 458.487C386.836 459.957 387.991 461.458 389.021 463.553L392.985 471.37C393.671 472.714 394.264 474.121 394.764 475.591L395.201 476.904C396.293 480.031 397.385 483.252 398.197 488.255C398.197 488.348 399.102 495.665 399.227 501.825C399.258 503.42 399.601 504.983 399.945 506.672C400.132 507.516 400.288 508.36 400.444 509.204C401.599 512.487 403.503 533.156 403.565 535.282L403.815 538.159C403.909 539.128 404.158 540.066 404.533 541.004C405.969 544.381 407.56 548.852 408.247 551.229L408.871 552.542C409.402 553.637 409.932 554.731 410.432 555.825C410.588 556.138 410.775 556.201 411.368 556.357C411.649 556.419 411.961 556.513 412.273 556.669C414.24 557.639 414.364 560.172 414.458 561.829C414.583 564.706 415.863 567.019 417.205 569.458C417.579 570.115 417.923 570.772 418.266 571.459C418.921 572.741 419.733 573.961 420.732 575.399C423.104 578.776 422.854 581.184 422.386 585.53L422.355 585.343Z" fill="#8E836E"/>
</svg>
