<svg width="13" height="13" viewBox="0 0 13 13" fill="none" xmlns="http://www.w3.org/2000/svg">
<path d="M4.66042 8.9466C4.60236 8.92642 4.54086 8.918 4.47951 8.92185C4.41815 8.92569 4.35818 8.94172 4.30309 8.96899C4.248 8.99626 4.1989 9.03424 4.15864 9.08069C4.11838 9.12715 4.08778 9.18115 4.06863 9.23956C3.68191 10.3939 2.43386 10.7513 1.71316 10.8626C1.82449 10.1419 2.18191 8.89386 3.3362 8.50714C3.39941 8.49183 3.45874 8.46354 3.51041 8.42406C3.56209 8.38458 3.60499 8.33478 3.63638 8.27782C3.66777 8.22087 3.68696 8.158 3.69274 8.09323C3.69852 8.02845 3.69076 7.96319 3.66995 7.90157C3.64914 7.83996 3.61574 7.78335 3.57187 7.73535C3.528 7.68734 3.47462 7.64899 3.41512 7.62273C3.35563 7.59647 3.29132 7.58288 3.22629 7.58282C3.16125 7.58276 3.09692 7.59623 3.03738 7.62238C2.07644 7.93878 1.37331 8.7005 0.998314 9.81964C0.832157 10.3231 0.741331 10.8483 0.728783 11.3782C0.728783 11.5026 0.778169 11.6218 0.866076 11.7097C0.953984 11.7976 1.07321 11.847 1.19753 11.847C1.72751 11.8344 2.25272 11.7436 2.75613 11.5775C3.87527 11.2025 4.63699 10.4993 4.95339 9.53839C4.97357 9.48033 4.98199 9.41883 4.97814 9.35748C4.97429 9.29612 4.95827 9.23615 4.931 9.18106C4.90372 9.12597 4.86575 9.07687 4.8193 9.03661C4.77284 8.99635 4.71883 8.96575 4.66042 8.9466Z" fill="white"/>
<path d="M12.3362 1.02471C12.3087 0.826175 12.2172 0.64204 12.0754 0.500315C11.9337 0.358589 11.7496 0.267029 11.551 0.239558C10.8889 0.139948 9.17214 0.0930733 7.49636 1.76885L6.96902 2.29034H3.37722C3.129 2.29203 2.89132 2.39089 2.71511 2.56573L0.822533 4.46417C0.702524 4.58352 0.617296 4.73331 0.576003 4.89745C0.53471 5.06159 0.538912 5.23388 0.588158 5.39581C0.637018 5.55891 0.729374 5.70563 0.855314 5.82021C0.981253 5.9348 1.13602 6.01292 1.303 6.0462L3.61745 6.50909L6.06667 8.95831L6.52956 11.2728C6.56284 11.4397 6.64096 11.5945 6.75555 11.7204C6.87013 11.8464 7.01685 11.9387 7.17995 11.9876C7.26705 12.0155 7.35803 12.0293 7.44949 12.0286C7.57271 12.0297 7.69489 12.0059 7.80867 11.9586C7.92246 11.9112 8.0255 11.8414 8.11159 11.7532L10.01 9.86065C10.1849 9.68445 10.2837 9.44676 10.2854 9.19854V5.60675L10.8069 5.0794C12.4827 3.40362 12.4358 1.68682 12.3362 1.02471ZM3.37722 3.22784H6.03152L3.69363 5.56573L1.48464 5.12628L3.37722 3.22784ZM9.34792 9.19854L7.44949 11.0911L7.01003 8.88214L9.34792 6.54425V9.19854Z" fill="white"/>
</svg>
