<svg width="25" height="26" viewBox="0 0 25 26" fill="none" xmlns="http://www.w3.org/2000/svg">
<g clip-path="url(#clip0_1190_17816)">
<path d="M13.541 9.8737C13.541 9.59743 13.6508 9.33248 13.8461 9.13713C14.0415 8.94178 14.3064 8.83203 14.5827 8.83203H20.8327C21.109 8.83203 21.3739 8.94178 21.5693 9.13713C21.7646 9.33248 21.8743 9.59743 21.8743 9.8737V20.2904C21.8743 20.5666 21.7646 20.8316 21.5693 21.0269C21.3739 21.2223 21.109 21.332 20.8327 21.332H14.5827C14.3064 21.332 14.0415 21.2223 13.8461 21.0269C13.6508 20.8316 13.541 20.5666 13.541 20.2904V9.8737Z" stroke="#88816E" stroke-width="2" stroke-linecap="round" stroke-linejoin="round"/>
<path d="M18.75 8.83464V5.70964C18.75 5.43337 18.6403 5.16842 18.4449 4.97307C18.2496 4.77772 17.9846 4.66797 17.7083 4.66797H4.16667C3.8904 4.66797 3.62545 4.77772 3.4301 4.97307C3.23475 5.16842 3.125 5.43337 3.125 5.70964V18.2096C3.125 18.4859 3.23475 18.7509 3.4301 18.9462C3.62545 19.1416 3.8904 19.2513 4.16667 19.2513H13.5417" stroke="#88816E" stroke-width="2" stroke-linecap="round" stroke-linejoin="round"/>
<path d="M16.666 9.875H18.7493" stroke="#88816E" stroke-width="2" stroke-linecap="round" stroke-linejoin="round"/>
</g>
<defs>
<clipPath id="clip0_1190_17816">
<rect width="25" height="25" fill="white" transform="translate(0 0.5)"/>
</clipPath>
</defs>
</svg>
