<svg width="25" height="26" viewBox="0 0 25 26" fill="none" xmlns="http://www.w3.org/2000/svg">
<g clip-path="url(#clip0_1190_17756)">
<path d="M7.29102 7.79167C7.29102 8.06793 7.40076 8.33289 7.59611 8.52824C7.79146 8.72359 8.05642 8.83333 8.33268 8.83333C8.60895 8.83333 8.8739 8.72359 9.06925 8.52824C9.2646 8.33289 9.37435 8.06793 9.37435 7.79167C9.37435 7.5154 9.2646 7.25045 9.06925 7.0551C8.8739 6.85975 8.60895 6.75 8.33268 6.75C8.05642 6.75 7.79146 6.85975 7.59611 7.0551C7.40076 7.25045 7.29102 7.5154 7.29102 7.79167Z" stroke="#88816E" stroke-width="2" stroke-linecap="round" stroke-linejoin="round"/>
<path d="M13.541 22.375L14.5827 13L21.8744 6.75" stroke="#88816E" stroke-width="2" stroke-linecap="round" stroke-linejoin="round"/>
<path d="M3.125 11.957H9.375L14.5833 12.9987" stroke="#88816E" stroke-width="2" stroke-linecap="round" stroke-linejoin="round"/>
<path d="M11.9785 9.35286L16.666 5.70703" stroke="#88816E" stroke-width="2" stroke-linecap="round" stroke-linejoin="round"/>
</g>
<defs>
<clipPath id="clip0_1190_17756">
<rect width="25" height="25" fill="white" transform="translate(0 0.5)"/>
</clipPath>
</defs>
</svg>
