<svg width="25" height="26" viewBox="0 0 25 26" fill="none" xmlns="http://www.w3.org/2000/svg">
<g clip-path="url(#clip0_1190_17794)">
<path d="M8.33398 7.79167C8.33398 8.89674 8.77297 9.95654 9.55437 10.7379C10.3358 11.5193 11.3956 11.9583 12.5007 11.9583C13.6057 11.9583 14.6655 11.5193 15.4469 10.7379C16.2283 9.95654 16.6673 8.89674 16.6673 7.79167C16.6673 6.6866 16.2283 5.62679 15.4469 4.84539C14.6655 4.06399 13.6057 3.625 12.5007 3.625C11.3956 3.625 10.3358 4.06399 9.55437 4.84539C8.77297 5.62679 8.33398 6.6866 8.33398 7.79167Z" stroke="#88816E" stroke-width="2" stroke-linecap="round" stroke-linejoin="round"/>
<path d="M6.25 22.375V20.2917C6.25 19.1866 6.68899 18.1268 7.47039 17.3454C8.25179 16.564 9.3116 16.125 10.4167 16.125H14.0625" stroke="#88816E" stroke-width="2" stroke-linecap="round" stroke-linejoin="round"/>
<path d="M19.791 23.418V23.4284" stroke="#88816E" stroke-width="2" stroke-linecap="round" stroke-linejoin="round"/>
<path d="M19.791 20.2914C20.258 20.2899 20.711 20.1318 21.0774 19.8424C21.4439 19.553 21.7027 19.149 21.8124 18.6951C21.9221 18.2412 21.8764 17.7636 21.6825 17.3388C21.4886 16.9139 21.1579 16.5664 20.7431 16.3518C20.3287 16.1396 19.8547 16.0737 19.3981 16.1651C18.9416 16.2564 18.5293 16.4996 18.2285 16.855" stroke="#88816E" stroke-width="2" stroke-linecap="round" stroke-linejoin="round"/>
</g>
<defs>
<clipPath id="clip0_1190_17794">
<rect width="25" height="25" fill="white" transform="translate(0 0.5)"/>
</clipPath>
</defs>
</svg>
