<svg width="25" height="26" viewBox="0 0 25 26" fill="none" xmlns="http://www.w3.org/2000/svg">
<g clip-path="url(#clip0_1190_17802)">
<path d="M12.5003 3.625C14.9334 5.77768 18.1091 6.89851 21.3544 6.75C21.8269 8.35731 21.9715 10.0432 21.7796 11.7075C21.5876 13.3718 21.0631 14.9805 20.2372 16.4381C19.4112 17.8956 18.3007 19.1723 16.9716 20.1922C15.6425 21.2121 14.1219 21.9544 12.5003 22.375C10.8786 21.9544 9.35807 21.2121 8.02897 20.1922C6.69987 19.1723 5.58935 17.8956 4.7634 16.4381C3.93744 14.9805 3.41291 13.3718 3.22098 11.7075C3.02904 10.0432 3.17362 8.35731 3.64611 6.75C6.89145 6.89851 10.0671 5.77768 12.5003 3.625Z" stroke="#88816E" stroke-width="2" stroke-linecap="round" stroke-linejoin="round"/>
<path d="M11.459 11.9596C11.459 12.2359 11.5687 12.5009 11.7641 12.6962C11.9594 12.8916 12.2244 13.0013 12.5007 13.0013C12.7769 13.0013 13.0419 12.8916 13.2372 12.6962C13.4326 12.5009 13.5423 12.2359 13.5423 11.9596C13.5423 11.6834 13.4326 11.4184 13.2372 11.2231C13.0419 11.0277 12.7769 10.918 12.5007 10.918C12.2244 10.918 11.9594 11.0277 11.7641 11.2231C11.5687 11.4184 11.459 11.6834 11.459 11.9596Z" stroke="#88816E" stroke-width="2" stroke-linecap="round" stroke-linejoin="round"/>
<path d="M12.5 13V15.6042" stroke="#88816E" stroke-width="2" stroke-linecap="round" stroke-linejoin="round"/>
</g>
<defs>
<clipPath id="clip0_1190_17802">
<rect width="25" height="25" fill="white" transform="translate(0 0.5)"/>
</clipPath>
</defs>
</svg>
