<svg width="25" height="26" viewBox="0 0 25 26" fill="none" xmlns="http://www.w3.org/2000/svg">
<g clip-path="url(#clip0_1190_17773)">
<path d="M2.08398 13H3.12565" stroke="#88816E" stroke-width="2" stroke-linecap="round" stroke-linejoin="round"/>
<path d="M6.25 8.83203H4.16667C3.8904 8.83203 3.62545 8.94178 3.4301 9.13713C3.23475 9.33248 3.125 9.59743 3.125 9.8737V16.1237C3.125 16.4 3.23475 16.6649 3.4301 16.8603C3.62545 17.0556 3.8904 17.1654 4.16667 17.1654H6.25" stroke="#88816E" stroke-width="2" stroke-linecap="round" stroke-linejoin="round"/>
<path d="M6.25 7.79167V18.2083C6.25 18.4846 6.35975 18.7496 6.5551 18.9449C6.75045 19.1403 7.0154 19.25 7.29167 19.25H8.33333C8.6096 19.25 8.87455 19.1403 9.0699 18.9449C9.26525 18.7496 9.375 18.4846 9.375 18.2083V7.79167C9.375 7.5154 9.26525 7.25045 9.0699 7.0551C8.87455 6.85975 8.6096 6.75 8.33333 6.75H7.29167C7.0154 6.75 6.75045 6.85975 6.5551 7.0551C6.35975 7.25045 6.25 7.5154 6.25 7.79167Z" stroke="#88816E" stroke-width="2" stroke-linecap="round" stroke-linejoin="round"/>
<path d="M9.375 13H15.625" stroke="#88816E" stroke-width="2" stroke-linecap="round" stroke-linejoin="round"/>
<path d="M15.625 7.79167V18.2083C15.625 18.4846 15.7347 18.7496 15.9301 18.9449C16.1254 19.1403 16.3904 19.25 16.6667 19.25H17.7083C17.9846 19.25 18.2496 19.1403 18.4449 18.9449C18.6403 18.7496 18.75 18.4846 18.75 18.2083V7.79167C18.75 7.5154 18.6403 7.25045 18.4449 7.0551C18.2496 6.85975 17.9846 6.75 17.7083 6.75H16.6667C16.3904 6.75 16.1254 6.85975 15.9301 7.0551C15.7347 7.25045 15.625 7.5154 15.625 7.79167Z" stroke="#88816E" stroke-width="2" stroke-linecap="round" stroke-linejoin="round"/>
<path d="M18.75 8.83203H20.8333C21.1096 8.83203 21.3746 8.94178 21.5699 9.13713C21.7653 9.33248 21.875 9.59743 21.875 9.8737V16.1237C21.875 16.4 21.7653 16.6649 21.5699 16.8603C21.3746 17.0556 21.1096 17.1654 20.8333 17.1654H18.75" stroke="#88816E" stroke-width="2" stroke-linecap="round" stroke-linejoin="round"/>
<path d="M22.9167 13H21.875" stroke="#88816E" stroke-width="2" stroke-linecap="round" stroke-linejoin="round"/>
</g>
<defs>
<clipPath id="clip0_1190_17773">
<rect width="25" height="25" fill="white" transform="translate(0 0.5)"/>
</clipPath>
</defs>
</svg>
