<svg width="16" height="15" viewBox="0 0 16 15" fill="none" xmlns="http://www.w3.org/2000/svg">
<path fill-rule="evenodd" clip-rule="evenodd" d="M2.15697 3.41436C3.18963 3.41436 4.0268 2.6509 4.0268 1.7081C4.0268 0.764456 3.18963 0 2.15697 0C1.1233 0 0.286133 0.764456 0.286133 1.7081C0.286133 2.6509 1.1233 3.41436 2.15697 3.41436ZM0.714722 14.3905H4.06972V4.71436H0.714722V14.3905ZM10.5589 6.81401C9.30358 6.81401 8.77858 7.89913 8.77858 9.00878V14.2669H5.42908V4.59072H8.77858V5.8934C9.65991 4.75539 10.4257 4.28574 11.8142 4.28574C13.2039 4.28574 15.4629 4.94458 15.4629 8.7662V14.2669H12.1229V8.98225C12.1229 7.89913 11.8142 6.81401 10.5589 6.81401Z" fill="white"/>
</svg>
