<svg width="12" height="12" viewBox="0 0 12 12" fill="none" xmlns="http://www.w3.org/2000/svg">
<path d="M4.15945 8.87042C4.10138 8.85024 4.03988 8.84183 3.97853 8.84568C3.91718 8.84952 3.85721 8.86555 3.80212 8.89282C3.74703 8.92009 3.69792 8.95806 3.65767 9.00452C3.61741 9.05097 3.58681 9.10498 3.56765 9.16339C3.18093 10.3177 1.93288 10.6751 1.21218 10.7864C1.32351 10.0657 1.68093 8.81769 2.83523 8.43097C2.89843 8.41566 2.95776 8.38737 3.00944 8.34789C3.06111 8.30841 3.10401 8.25861 3.1354 8.20165C3.16679 8.1447 3.18599 8.08183 3.19177 8.01706C3.19755 7.95228 3.18978 7.88701 3.16897 7.8254C3.14816 7.76379 3.11476 7.70718 3.07089 7.65917C3.02702 7.61117 2.97364 7.57282 2.91414 7.54656C2.85465 7.5203 2.79034 7.50671 2.72531 7.50665C2.66028 7.50659 2.59594 7.52006 2.5364 7.5462C1.57546 7.86261 0.872337 8.62433 0.497337 9.74347C0.33118 10.2469 0.240355 10.7721 0.227806 11.3021C0.227806 11.4264 0.277192 11.5456 0.3651 11.6335C0.453007 11.7214 0.572236 11.7708 0.696556 11.7708C1.22653 11.7583 1.75174 11.6674 2.25515 11.5013C3.37429 11.1263 4.13601 10.4232 4.45241 9.46222C4.4726 9.40416 4.48101 9.34265 4.47716 9.2813C4.47332 9.21995 4.45729 9.15998 4.43002 9.10489C4.40275 9.0498 4.36478 9.0007 4.31832 8.96044C4.27186 8.92018 4.21786 8.88958 4.15945 8.87042Z" fill="white"/>
<path d="M11.8352 0.948542C11.8078 0.750003 11.7162 0.565869 11.5745 0.424143C11.4327 0.282418 11.2486 0.190857 11.0501 0.163386C10.388 0.0637764 8.67117 0.0169015 6.99538 1.69268L6.46804 2.21417H2.87624C2.62802 2.21586 2.39034 2.31472 2.21413 2.48956L0.321556 4.388C0.201547 4.50735 0.11632 4.65714 0.0750267 4.82128C0.0337337 4.98542 0.0379356 5.1577 0.0871811 5.31964C0.136041 5.48274 0.228398 5.62946 0.354337 5.74404C0.480276 5.85863 0.635043 5.93675 0.802025 5.97003L3.11648 6.43292L5.5657 8.88214L6.02859 11.1966C6.06186 11.3636 6.13999 11.5183 6.25457 11.6443C6.36915 11.7702 6.51587 11.8626 6.67898 11.9114C6.76607 11.9393 6.85706 11.9532 6.94851 11.9524C7.07174 11.9535 7.19391 11.9297 7.3077 11.8824C7.42148 11.8351 7.52452 11.7652 7.61062 11.6771L9.50906 9.78448C9.68389 9.60827 9.78275 9.37059 9.78445 9.12237V5.53057L10.3059 5.00323C11.9817 3.32745 11.9348 1.61065 11.8352 0.948542ZM2.87624 3.15167H5.53054L3.19265 5.48956L0.983666 5.0501L2.87624 3.15167ZM8.84695 9.12237L6.94851 11.0149L6.50906 8.80596L8.84695 6.46807V9.12237Z" fill="white"/>
</svg>
