<svg width="353" height="855" viewBox="0 0 353 855" fill="none" xmlns="http://www.w3.org/2000/svg">
<path opacity="0.08" d="M350.451 260.278C334.658 133.798 227.821 3.65907 53.0368 0.000680978C53.0368 0.000680978 -216.474 -2.43825 -246.812 284.604C-246.812 284.604 -252.898 383.131 -195.812 469.462L53.068 855L301.948 469.462C301.948 469.462 366.275 386.758 350.513 260.278H350.451ZM175.355 585.343L175.292 585.874C175.074 588.094 174.855 589.97 172.483 591.659C169.799 593.66 165.929 594.692 161.871 594.692C158.126 594.692 154.256 593.816 150.947 592.096C147.202 590.127 145.142 585.874 145.953 581.747L146.047 581.246C146.172 580.684 146.234 580.371 146.141 580.058C145.735 579.308 141.334 576.744 140.367 576.306L140.647 575.712L140.304 576.306L139.742 575.962C136.247 573.68 135.092 570.928 136.34 567.77C136.652 566.988 137.089 566.206 137.745 565.331C138.151 564.768 138.463 564.143 138.806 563.455C139.399 562.235 140.086 560.891 141.428 559.984L143.612 554.762C142.395 550.51 141.833 546.195 141.459 542.161C141.303 541.723 140.991 540.629 140.398 537.533C139.212 533.687 137.401 529.904 135.654 526.277C134.499 523.869 133.313 521.399 132.314 518.866C130.878 515.333 129.037 511.893 127.258 508.61C126.727 507.61 126.196 506.609 125.666 505.608C125.416 505.139 124.917 504.483 124.355 503.701C123.294 502.263 121.952 500.449 121.296 498.698C120.641 497.103 118.643 491.475 118.362 489.88L115.023 475.466C114.773 474.747 114.555 473.996 114.399 473.246C114.055 471.807 113.712 470.463 112.869 469.494C109.779 465.867 103.755 455.923 100.135 449.982C98.9177 447.981 97.8877 446.293 97.6692 446.011L97.6068 445.886C97.6068 445.886 92.8002 436.662 91.1148 433.535C90.0224 431.503 89.3669 430.283 88.8051 430.002C88.3682 429.783 87.5255 430.064 85.8401 430.69C84.4043 431.221 83.1871 431.221 82.1883 430.69C81.0959 430.064 80.378 428.814 79.9723 426.812C79.8786 426.343 79.7226 425.874 79.4729 425.405C78.6614 423.779 77.8499 422.153 77.0384 420.528C75.0097 416.4 72.8873 412.148 70.64 408.083C70.1719 407.239 69.7349 406.363 69.2667 405.519C67.394 401.954 65.6462 398.608 62.6499 395.951C61.0893 394.544 59.3415 393.918 57.6873 394.137C56.0643 394.356 54.6598 395.388 53.5674 397.108C52.6934 398.483 51.9131 399.953 51.1641 401.391C49.6035 404.299 48.0117 407.301 45.6396 409.771C44.2039 411.272 43.0803 413.023 42.0815 414.68C39.1789 419.433 35.1526 426.625 33.3735 431.253C32.9366 432.347 32.4996 432.941 31.8754 433.191C31.1575 433.504 30.5021 433.191 30.0027 432.972C29.7842 432.878 29.597 432.785 29.3473 432.722C28.1612 432.409 26.4446 434.63 25.8203 435.474C25.6643 435.661 25.5395 435.849 25.4458 435.974C21.8565 441.54 17.4557 446.449 13.6167 450.608C12.1809 452.202 9.80887 455.954 7.93617 458.987C6.71893 460.926 5.78258 462.458 5.22076 463.177C0.539047 469.681 -1.27122 476.279 -3.17513 483.283C-3.89299 485.972 -4.67328 488.724 -5.60962 491.6C-5.89053 492.757 -6.54596 494.665 -7.54472 497.166C-8.29379 499.042 -8.69957 500.043 -8.98047 500.574C-10.7907 504.67 -13.5998 508.141 -16.284 511.518L-17.0018 512.394C-19.8421 515.489 -27.8634 535.939 -28.4564 538.596L-34.293 557.701L-34.1057 558.514C-33.5439 560.922 -32.9821 563.205 -31.7961 565.3C-29.8922 568.645 -30.4227 573.805 -32.9821 576.587C-34.3866 578.088 -35.7911 578.62 -36.9147 579.026C-38.4129 579.589 -39.1308 579.839 -39.3804 581.997L-39.4429 582.216C-39.5989 582.653 -39.7238 583.341 -39.8174 584.029C-40.1295 586.155 -40.5977 589.032 -43.3443 590.815C-49.0248 594.504 -53.4881 594.317 -59.6679 594.066H-60.1673C-60.6042 594.035 -60.9788 594.035 -61.2909 594.035C-62.8827 594.035 -63.6006 593.973 -65.9102 592.784C-70.7792 590.252 -70.5607 583.998 -69.6556 580.715C-69.562 580.402 -69.4683 580.058 -69.3123 579.777C-69.2498 579.308 -69.0001 578.87 -68.532 578.12C-68.2198 577.651 -67.9389 577.15 -67.6268 576.681C-66.9402 575.556 -66.2223 574.399 -65.3796 573.367C-63.5069 571.053 -61.2597 568.176 -59.4494 565.831C-58.4507 564.549 -57.5767 563.392 -56.9525 562.61C-56.7652 562.235 -56.3907 561.829 -55.8601 561.235C-54.362 559.546 -51.865 556.763 -51.3656 552.48V552.354L-46.1221 533.062C-45.217 530.092 -44.5616 527.09 -44.1558 524.119C-43.2819 517.772 -41.5652 507.297 -40.4416 503.764C-39.9422 500.262 -36.072 480.875 -34.6675 475.278C-34.2305 473.558 -31.0158 463.803 -25.8035 458.644C-23.0256 455.892 -21.2154 453.047 -20.2478 449.951C-18.9994 445.949 -17.1267 442.384 -15.4413 439.414C-14.6922 438.1 -13.8182 436.349 -13.631 434.411C-13.5373 432.91 -13.2564 431.503 -13.0067 430.127C-12.8195 429.126 -12.6322 428.188 -12.5074 427.219C-12.4762 426.906 -12.2577 423.185 -12.1953 420.684C-12.4137 420.59 -12.6634 420.465 -12.8507 420.246C-13.2876 419.715 -13.194 419.058 -13.1004 418.558C-13.1004 418.464 -13.0692 418.339 -13.0379 418.245C-13.0379 417.213 -11.9456 412.617 -11.7271 411.71H-11.6647C-11.0716 407.395 -1.64577 380.473 2.72383 370.874C3.62897 368.935 3.84746 365.214 3.97231 363.213C4.06593 361.9 4.06595 361.618 4.222 361.368C5.81378 358.46 7.15587 355.364 8.43555 352.363C10.2146 348.204 12.0561 343.889 14.6466 340.012C15.1772 339.199 15.4581 338.229 15.4581 337.229C15.4581 336.447 15.6454 335.822 15.8951 335.103C17.0187 331.663 17.1747 330.6 17.3308 329.568C17.4557 328.724 17.5805 327.848 18.1423 325.878C18.2984 325.316 18.8602 325.065 19.3283 324.847C19.422 324.815 19.5468 324.753 19.6405 324.69C21.5756 319.156 21.3571 308.65 21.2322 302.365V301.333C20.1086 295.736 17.0187 290.889 14.0536 286.199C13.2421 284.948 12.4618 283.666 11.6815 282.416C9.87128 279.383 8.68524 276.944 7.68648 272.722C7.53043 272.128 6.53166 268.47 5.68895 266.312C5.06471 264.905 4.47169 263.53 4.12837 263.186C3.72263 263.405 2.78629 264.593 1.81873 265.812L1.4754 266.25C-0.397293 268.564 -2.55089 270.627 -5.0166 272.316C-7.01413 273.692 -8.98045 275.13 -10.9468 276.568C-15.2852 279.695 -19.7484 282.947 -24.4614 285.699C-26.0844 286.637 -27.1768 288.044 -28.3316 289.545C-28.8934 290.233 -29.4552 290.983 -30.0794 291.64C-37.539 302.896 -48.1509 312.12 -67.6893 327.254C-67.9077 327.411 -69.6244 329.037 -70.9041 330.225C-71.9965 331.257 -73.0264 332.195 -73.3385 332.507C-76.7406 335.54 -76.2724 339.261 -75.3049 343.795C-74.9303 345.515 -74.8991 347.235 -74.8679 348.923C-74.8055 351.206 -74.7743 353.363 -73.9628 355.427C-73.2761 357.178 -72.4646 359.867 -72.2774 361.649C-72.1837 362.525 -72.2149 363.15 -72.5583 363.963C-73.3385 365.245 -74.3373 365.902 -75.3985 365.933C-76.5845 365.964 -77.8018 365.183 -78.7694 363.776C-79.9866 361.962 -80.486 359.898 -80.9854 357.897C-81.2039 357.022 -81.4223 356.084 -81.7032 355.239C-81.7656 355.021 -81.8281 354.833 -81.8905 354.614C-82.2026 353.52 -82.3275 353.27 -83.0141 353.176C-85.1365 352.738 -86.1977 352.8 -86.4786 353.019L-86.5722 353.082C-90.3176 355.239 -92.2215 357.803 -92.8145 361.368C-92.7209 361.681 -92.6272 361.993 -92.5336 362.306C-92.2527 363.213 -91.9406 364.12 -91.8782 365.089C-91.7533 366.496 -92.0342 367.497 -92.6897 368.153C-93.1266 368.56 -93.6884 368.81 -94.4063 368.841C-94.4687 369.31 -94.5624 369.748 -94.6248 370.186C-94.9057 371.905 -95.1866 373.656 -95.5299 375.407C-95.7172 376.314 -96.0917 378.19 -98.2141 378.19H-98.2765C-98.7759 378.159 -100.149 378.034 -100.43 376.377V376.252C-100.461 375.47 -100.68 374.657 -100.867 374.282C-101.179 374.845 -101.585 375.908 -101.803 376.502C-102.147 377.409 -102.334 377.878 -102.521 378.159C-103.146 379.097 -104.082 379.472 -105.143 379.253C-106.641 378.941 -106.61 377.596 -106.579 377.002V376.783C-106.579 375.532 -106.579 374.313 -106.579 373.062C-106.579 370.748 -106.579 368.341 -106.641 365.964C-106.766 362.65 -106.235 359.711 -105.081 357.178C-104.3 355.458 -103.77 353.582 -103.27 351.769C-102.521 349.111 -101.741 346.359 -100.149 343.889C-99.8683 343.107 -99.3689 342.044 -98.2453 341.356C-97.7147 340.668 -97.1841 339.949 -96.6535 339.261C-95.4363 337.698 -94.1878 336.072 -93.1266 334.415C-84.3874 321.032 -74.6494 307.18 -62.5081 290.921C-61.3845 289.42 -60.3234 287.856 -59.2622 286.355C-56.1722 281.947 -52.9886 277.381 -48.7127 273.786C-46.8088 271.941 -44.4991 270.565 -42.2519 269.252C-41.1283 268.595 -39.9423 267.876 -38.8499 267.157C-36.6963 263.999 -34.5427 260.872 -32.3891 257.714L-31.0782 255.806C-28.987 252.773 -25.2729 250.522 -21.6211 248.49C-19.6548 247.395 -18.9681 245.769 -18.5624 243.706C-17.6885 235.826 -9.355 227.602 -2.48848 225.539C-0.241241 224.507 2.41174 223.35 5.12714 222.756C8.49797 222.005 11.0573 219.66 13.7415 217.159L14.4906 216.471C15.8639 215.189 20.8265 211.906 23.7916 210.28C24.7904 209.748 25.8203 209.279 26.8191 208.81C29.9402 207.403 32.8741 206.059 34.3099 202.9C34.3723 202.744 34.4659 202.588 34.5284 202.431C34.8405 201.775 35.1214 201.243 35.0589 200.649C34.5596 195.99 34.0602 191.331 33.5296 186.641C33.4672 186.109 33.3423 186.078 33.2175 186.016C30.783 185.203 29.1912 181.2 28.8479 177.667C28.723 176.291 28.7855 174.884 28.8791 173.54C28.8791 173.071 28.9415 172.57 28.9415 172.101C28.9415 171.288 29.2848 170.163 30.0339 169.631C30.3772 169.381 30.783 169.287 31.1887 169.35C31.2199 169.131 31.2512 168.662 31.1887 167.786C31.1263 166.817 31.0639 165.879 31.0015 164.909C30.8766 163.002 30.7518 161.095 30.5957 159.219C30.346 156.436 31.4072 152.59 33.0302 150.495C34.2162 148.587 35.0589 147.556 37.4934 145.054L37.5871 144.96C40.0216 143.147 45.1715 140.645 48.1053 140.77C48.1053 140.77 48.2302 140.77 48.355 140.77C56.47 140.082 63.3678 143.084 67.7374 149.244C70.7025 153.434 72.8249 156.717 73.2306 161.001C73.293 161.783 73.3867 163.534 73.3554 164.409C73.3554 165.003 73.1058 165.41 72.9185 165.722C72.7936 165.91 72.7312 166.066 72.7 166.254C72.5439 168.005 72.4503 169.912 72.3879 171.726C72.2006 175.947 72.0133 180.325 70.8273 184.39C70.1719 186.61 69.6413 188.955 69.1419 191.175C68.3928 194.458 67.6437 197.835 66.4577 201.087L67.0195 202.431C68.0807 203.369 69.5476 203.588 71.077 203.807C71.7012 203.901 72.3567 203.995 72.9809 204.12C73.1994 203.807 73.3554 203.432 73.5739 203.088C73.9797 202.338 74.3854 201.556 75.0409 200.899C75.1033 200.837 75.1969 200.712 75.1969 200.618L75.2594 200.055C75.3218 199.336 75.4778 198.71 75.6963 198.179C77.9123 192.895 82.5628 190.424 87.5567 188.142C90.6466 186.735 93.9238 185.922 97.2946 185.734L98.8552 184.734C100.572 176.104 106.315 169.975 111.87 164.034L112.37 163.502C114.648 161.064 117.52 159.531 120.516 158.03L120.797 157.78C122.482 154.935 122.951 151.808 123.2 149.15C123.606 144.554 124.199 140.395 125.01 136.455C125.26 135.298 125.198 134.986 125.135 134.923C125.135 134.923 125.073 134.923 124.917 134.923C124.698 134.923 124.324 134.923 123.637 135.08C114.367 136.862 105.503 132.391 101.602 123.917C98.8864 118.038 98.5119 112.035 100.478 106C100.697 105.312 100.697 104.562 100.447 103.874C97.0138 94.3058 100.728 81.861 108.937 75.5761C109.186 75.3885 109.467 75.2008 109.779 75.0132C110.778 74.3879 111.34 73.9501 111.34 73.0433C110.497 69.6351 111.558 67.3212 114.586 65.9767C120.36 63.444 125.01 62.3496 129.63 62.5059C132.22 62.5997 132.688 64.382 132.782 65.539C137.245 66.7897 140.023 69.7914 140.679 74.1065C140.835 74.2315 140.991 74.3566 141.116 74.4191C145.672 76.389 146.578 80.4226 147.108 84.3624C147.764 89.3654 148.575 94.4621 149.355 99.4025C150.104 104.124 150.854 109.002 151.509 113.817C153.101 125.543 152.477 136.862 149.699 147.462C148.825 150.745 147.92 154.591 148.107 158.531C148.232 160.876 146.515 164.253 142.895 168.881C142.77 169.037 142.707 169.131 142.645 169.193C140.554 172.164 139.024 174.415 138.65 176.635V176.885C138.119 179.793 137.495 182.92 136.371 184.108C135.061 186.985 134.28 189.111 133.562 191.018C132.158 194.802 131.159 197.522 127.289 202.65C126.446 203.776 119.985 211.562 118.518 212.687C117.551 213.438 116.583 214.157 115.616 214.907C111.746 217.815 108.125 220.536 105.004 224.132C105.503 226.195 107.001 232.449 107.314 235.044C107.626 237.671 107.126 241.548 106.533 246.051C106.003 250.241 105.378 255.025 105.41 259.277C105.41 263.498 102.85 274.974 101.758 277.256C100.104 280.633 99.5107 287.043 99.0737 291.702C98.9489 292.953 98.8552 294.11 98.7304 295.079C98.1374 300.02 98.1374 305.21 98.668 310.964L98.7304 311.558C99.0737 315.122 99.4483 318.812 98.0125 322.439C98.0125 322.502 98.1374 322.689 98.231 322.783C98.4495 323.064 98.7616 323.471 98.8552 324.034C99.0425 326.16 99.1986 326.41 99.5731 327.035C99.7292 327.286 99.8852 327.567 100.104 328.005C101.165 330.162 106.159 342.795 107.158 347.235C107.751 349.861 108.718 352.175 109.717 354.614C110.747 357.147 111.839 359.773 112.526 362.806C113.712 368.184 115.21 372.374 117.239 376.001C118.675 378.597 119.392 381.348 120.079 384.037C120.454 385.538 120.859 387.07 121.359 388.54V388.696C121.577 389.853 122.701 395.138 123.2 397.076C123.762 399.328 124.48 401.548 125.167 403.674C126.009 406.3 126.914 409.021 127.507 411.897C127.726 412.929 127.944 413.648 128.132 414.305C128.506 415.525 128.818 416.588 129.037 419.12C129.13 420.152 128.132 420.465 127.757 420.59C127.757 420.59 127.726 420.59 127.695 420.59L127.913 421.34C128.381 423.06 129.006 425.186 129.224 426.187C129.599 427.938 129.973 431.972 130.348 438.163C130.379 438.913 130.566 439.632 130.847 440.352C132.376 444.073 134.468 449.263 134.967 451.389C135.716 454.547 137.089 456.361 138.712 458.487C139.836 459.957 140.991 461.458 142.021 463.553L145.985 471.37C146.671 472.714 147.264 474.121 147.764 475.591L148.201 476.904C149.293 480.031 150.385 483.252 151.197 488.255C151.197 488.348 152.102 495.665 152.227 501.825C152.258 503.42 152.601 504.983 152.945 506.672C153.132 507.516 153.288 508.36 153.444 509.204C154.599 512.487 156.503 533.156 156.565 535.282L156.815 538.159C156.909 539.128 157.158 540.066 157.533 541.004C158.969 544.381 160.56 548.852 161.247 551.229L161.871 552.542C162.402 553.637 162.932 554.731 163.432 555.825C163.588 556.138 163.775 556.201 164.368 556.357C164.649 556.419 164.961 556.513 165.273 556.669C167.24 557.639 167.364 560.172 167.458 561.829C167.583 564.706 168.863 567.019 170.205 569.458C170.579 570.115 170.923 570.772 171.266 571.459C171.921 572.741 172.733 573.961 173.732 575.399C176.104 578.776 175.854 581.184 175.386 585.53L175.355 585.343Z" fill="#8E836E"/>
</svg>
